<svg width="336" height="158" viewBox="0 0 336 158" fill="none" xmlns="http://www.w3.org/2000/svg">
<g filter="url(#filter0_dddd_2681_9543)">
<rect x="8" y="2" width="320" height="120" rx="24" fill="url(#paint0_radial_2681_9543)"/>
<rect x="8" y="2" width="320" height="120" rx="24" fill="url(#paint1_radial_2681_9543)" fill-opacity="0.4"/>
<rect x="10" y="4" width="316" height="116" rx="22" stroke="url(#paint2_radial_2681_9543)" stroke-width="4"/>
<g filter="url(#filter1_dddd_2681_9543)">
<mask id="path-3-outside-1_2681_9543" maskUnits="userSpaceOnUse" x="40.5" y="37.5" width="248" height="50" fill="black">
<rect fill="white" x="40.5" y="37.5" width="248" height="50"/>
<path d="M54.6222 85.5L41.8949 38.9545H47.6222L57.3494 76.8636H57.804L67.7131 38.9545H74.0767L83.9858 76.8636H84.4403L94.1676 38.9545H99.8949L87.1676 85.5H81.3494L71.0767 48.4091H70.7131L60.4403 85.5H54.6222ZM117.577 86.2273C114.213 86.2273 111.312 85.4848 108.872 84C106.448 82.5 104.577 80.4091 103.259 77.7273C101.955 75.0303 101.304 71.8939 101.304 68.3182C101.304 64.7424 101.955 61.5909 103.259 58.8636C104.577 56.1212 106.41 53.9848 108.759 52.4545C111.122 50.9091 113.88 50.1364 117.031 50.1364C118.849 50.1364 120.645 50.4394 122.418 51.0455C124.19 51.6515 125.804 52.6364 127.259 54C128.713 55.3485 129.872 57.1364 130.736 59.3636C131.599 61.5909 132.031 64.3333 132.031 67.5909V69.8636H105.122V65.2273H126.577C126.577 63.2576 126.183 61.5 125.395 59.9545C124.622 58.4091 123.516 57.1894 122.077 56.2955C120.652 55.4015 118.971 54.9545 117.031 54.9545C114.895 54.9545 113.046 55.4848 111.486 56.5455C109.94 57.5909 108.751 58.9545 107.918 60.6364C107.084 62.3182 106.668 64.1212 106.668 66.0455V69.1364C106.668 71.7727 107.122 74.0076 108.031 75.8409C108.955 77.6591 110.236 79.0455 111.872 80C113.509 80.9394 115.41 81.4091 117.577 81.4091C118.986 81.4091 120.259 81.2121 121.395 80.8182C122.546 80.4091 123.539 79.803 124.372 79C125.205 78.1818 125.849 77.1667 126.304 75.9545L131.486 77.4091C130.94 79.1667 130.024 80.7121 128.736 82.0455C127.448 83.3636 125.857 84.3939 123.963 85.1364C122.069 85.8636 119.94 86.2273 117.577 86.2273ZM154.827 86.2273C151.463 86.2273 148.562 85.4848 146.122 84C143.698 82.5 141.827 80.4091 140.509 77.7273C139.205 75.0303 138.554 71.8939 138.554 68.3182C138.554 64.7424 139.205 61.5909 140.509 58.8636C141.827 56.1212 143.66 53.9848 146.009 52.4545C148.372 50.9091 151.13 50.1364 154.281 50.1364C156.099 50.1364 157.895 50.4394 159.668 51.0455C161.44 51.6515 163.054 52.6364 164.509 54C165.963 55.3485 167.122 57.1364 167.986 59.3636C168.849 61.5909 169.281 64.3333 169.281 67.5909V69.8636H142.372V65.2273H163.827C163.827 63.2576 163.433 61.5 162.645 59.9545C161.872 58.4091 160.766 57.1894 159.327 56.2955C157.902 55.4015 156.221 54.9545 154.281 54.9545C152.145 54.9545 150.296 55.4848 148.736 56.5455C147.19 57.5909 146.001 58.9545 145.168 60.6364C144.334 62.3182 143.918 64.1212 143.918 66.0455V69.1364C143.918 71.7727 144.372 74.0076 145.281 75.8409C146.205 77.6591 147.486 79.0455 149.122 80C150.759 80.9394 152.66 81.4091 154.827 81.4091C156.236 81.4091 157.509 81.2121 158.645 80.8182C159.796 80.4091 160.789 79.803 161.622 79C162.455 78.1818 163.099 77.1667 163.554 75.9545L168.736 77.4091C168.19 79.1667 167.274 80.7121 165.986 82.0455C164.698 83.3636 163.107 84.3939 161.213 85.1364C159.319 85.8636 157.19 86.2273 154.827 86.2273ZM182.44 72.7727L182.349 66.1364H183.44L198.713 50.5909H205.349L189.077 67.0455H188.622L182.44 72.7727ZM177.44 85.5V38.9545H182.804V85.5H177.44ZM199.622 85.5L185.986 68.2273L189.804 64.5L206.44 85.5H199.622ZM247.616 85.5L255.253 38.9545H259.798L252.162 85.5H247.616ZM226.435 72.5909L227.162 68.0455H261.889L261.162 72.5909H226.435ZM231.253 85.5L238.889 38.9545H243.435L235.798 85.5H231.253ZM229.162 56.4091L229.889 51.8636H264.616L263.889 56.4091H229.162ZM286.901 38.9545V85.5H281.264V44.8636H280.991L269.628 52.4091V46.6818L281.264 38.9545H286.901Z"/>
</mask>
<path d="M54.6222 85.5L41.8949 38.9545H47.6222L57.3494 76.8636H57.804L67.7131 38.9545H74.0767L83.9858 76.8636H84.4403L94.1676 38.9545H99.8949L87.1676 85.5H81.3494L71.0767 48.4091H70.7131L60.4403 85.5H54.6222ZM117.577 86.2273C114.213 86.2273 111.312 85.4848 108.872 84C106.448 82.5 104.577 80.4091 103.259 77.7273C101.955 75.0303 101.304 71.8939 101.304 68.3182C101.304 64.7424 101.955 61.5909 103.259 58.8636C104.577 56.1212 106.41 53.9848 108.759 52.4545C111.122 50.9091 113.88 50.1364 117.031 50.1364C118.849 50.1364 120.645 50.4394 122.418 51.0455C124.19 51.6515 125.804 52.6364 127.259 54C128.713 55.3485 129.872 57.1364 130.736 59.3636C131.599 61.5909 132.031 64.3333 132.031 67.5909V69.8636H105.122V65.2273H126.577C126.577 63.2576 126.183 61.5 125.395 59.9545C124.622 58.4091 123.516 57.1894 122.077 56.2955C120.652 55.4015 118.971 54.9545 117.031 54.9545C114.895 54.9545 113.046 55.4848 111.486 56.5455C109.94 57.5909 108.751 58.9545 107.918 60.6364C107.084 62.3182 106.668 64.1212 106.668 66.0455V69.1364C106.668 71.7727 107.122 74.0076 108.031 75.8409C108.955 77.6591 110.236 79.0455 111.872 80C113.509 80.9394 115.41 81.4091 117.577 81.4091C118.986 81.4091 120.259 81.2121 121.395 80.8182C122.546 80.4091 123.539 79.803 124.372 79C125.205 78.1818 125.849 77.1667 126.304 75.9545L131.486 77.4091C130.94 79.1667 130.024 80.7121 128.736 82.0455C127.448 83.3636 125.857 84.3939 123.963 85.1364C122.069 85.8636 119.94 86.2273 117.577 86.2273ZM154.827 86.2273C151.463 86.2273 148.562 85.4848 146.122 84C143.698 82.5 141.827 80.4091 140.509 77.7273C139.205 75.0303 138.554 71.8939 138.554 68.3182C138.554 64.7424 139.205 61.5909 140.509 58.8636C141.827 56.1212 143.66 53.9848 146.009 52.4545C148.372 50.9091 151.13 50.1364 154.281 50.1364C156.099 50.1364 157.895 50.4394 159.668 51.0455C161.44 51.6515 163.054 52.6364 164.509 54C165.963 55.3485 167.122 57.1364 167.986 59.3636C168.849 61.5909 169.281 64.3333 169.281 67.5909V69.8636H142.372V65.2273H163.827C163.827 63.2576 163.433 61.5 162.645 59.9545C161.872 58.4091 160.766 57.1894 159.327 56.2955C157.902 55.4015 156.221 54.9545 154.281 54.9545C152.145 54.9545 150.296 55.4848 148.736 56.5455C147.19 57.5909 146.001 58.9545 145.168 60.6364C144.334 62.3182 143.918 64.1212 143.918 66.0455V69.1364C143.918 71.7727 144.372 74.0076 145.281 75.8409C146.205 77.6591 147.486 79.0455 149.122 80C150.759 80.9394 152.66 81.4091 154.827 81.4091C156.236 81.4091 157.509 81.2121 158.645 80.8182C159.796 80.4091 160.789 79.803 161.622 79C162.455 78.1818 163.099 77.1667 163.554 75.9545L168.736 77.4091C168.19 79.1667 167.274 80.7121 165.986 82.0455C164.698 83.3636 163.107 84.3939 161.213 85.1364C159.319 85.8636 157.19 86.2273 154.827 86.2273ZM182.44 72.7727L182.349 66.1364H183.44L198.713 50.5909H205.349L189.077 67.0455H188.622L182.44 72.7727ZM177.44 85.5V38.9545H182.804V85.5H177.44ZM199.622 85.5L185.986 68.2273L189.804 64.5L206.44 85.5H199.622ZM247.616 85.5L255.253 38.9545H259.798L252.162 85.5H247.616ZM226.435 72.5909L227.162 68.0455H261.889L261.162 72.5909H226.435ZM231.253 85.5L238.889 38.9545H243.435L235.798 85.5H231.253ZM229.162 56.4091L229.889 51.8636H264.616L263.889 56.4091H229.162ZM286.901 38.9545V85.5H281.264V44.8636H280.991L269.628 52.4091V46.6818L281.264 38.9545H286.901Z" fill="url(#paint3_linear_2681_9543)"/>
<path d="M54.6222 85.5L53.6576 85.7638C53.7764 86.1985 54.1715 86.5 54.6222 86.5V85.5ZM41.8949 38.9545V37.9545C41.5831 37.9545 41.2892 38.1 41.1 38.3478C40.9108 38.5957 40.8481 38.9176 40.9303 39.2183L41.8949 38.9545ZM47.6222 38.9545L48.5908 38.706C48.4773 38.2638 48.0787 37.9545 47.6222 37.9545V38.9545ZM57.3494 76.8636L56.3808 77.1122C56.4943 77.5544 56.8929 77.8636 57.3494 77.8636V76.8636ZM57.804 76.8636V77.8636C58.2589 77.8636 58.6564 77.5566 58.7715 77.1165L57.804 76.8636ZM67.7131 38.9545V37.9545C67.2582 37.9545 66.8606 38.2616 66.7456 38.7016L67.7131 38.9545ZM74.0767 38.9545L75.0442 38.7016C74.9292 38.2616 74.5316 37.9545 74.0767 37.9545V38.9545ZM83.9858 76.8636L83.0183 77.1165C83.1333 77.5566 83.5309 77.8636 83.9858 77.8636V76.8636ZM84.4403 76.8636V77.8636C84.8969 77.8636 85.2955 77.5544 85.409 77.1122L84.4403 76.8636ZM94.1676 38.9545V37.9545C93.7111 37.9545 93.3125 38.2638 93.199 38.706L94.1676 38.9545ZM99.8949 38.9545L100.859 39.2183C100.942 38.9176 100.879 38.5957 100.69 38.3478C100.501 38.1 100.207 37.9545 99.8949 37.9545V38.9545ZM87.1676 85.5V86.5C87.6183 86.5 88.0133 86.1985 88.1322 85.7638L87.1676 85.5ZM81.3494 85.5L80.3857 85.7669C80.5057 86.2001 80.8999 86.5 81.3494 86.5V85.5ZM71.0767 48.4091L72.0404 48.1422C71.9205 47.709 71.5262 47.4091 71.0767 47.4091V48.4091ZM70.7131 48.4091V47.4091C70.2636 47.4091 69.8693 47.709 69.7493 48.1422L70.7131 48.4091ZM60.4403 85.5V86.5C60.8898 86.5 61.2841 86.2001 61.4041 85.7669L60.4403 85.5ZM54.6222 85.5L55.5868 85.2362L42.8595 38.6908L41.8949 38.9545L40.9303 39.2183L53.6576 85.7638L54.6222 85.5ZM41.8949 38.9545V39.9545H47.6222V38.9545V37.9545H41.8949V38.9545ZM47.6222 38.9545L46.6535 39.2031L56.3808 77.1122L57.3494 76.8636L58.3181 76.6151L48.5908 38.706L47.6222 38.9545ZM57.3494 76.8636V77.8636H57.804V76.8636V75.8636H57.3494V76.8636ZM57.804 76.8636L58.7715 77.1165L68.6806 39.2074L67.7131 38.9545L66.7456 38.7016L56.8365 76.6107L57.804 76.8636ZM67.7131 38.9545V39.9545H74.0767V38.9545V37.9545H67.7131V38.9545ZM74.0767 38.9545L73.1092 39.2074L83.0183 77.1165L83.9858 76.8636L84.9533 76.6107L75.0442 38.7016L74.0767 38.9545ZM83.9858 76.8636V77.8636H84.4403V76.8636V75.8636H83.9858V76.8636ZM84.4403 76.8636L85.409 77.1122L95.1362 39.2031L94.1676 38.9545L93.199 38.706L83.4717 76.6151L84.4403 76.8636ZM94.1676 38.9545V39.9545H99.8949V38.9545V37.9545H94.1676V38.9545ZM99.8949 38.9545L98.9303 38.6908L86.203 85.2362L87.1676 85.5L88.1322 85.7638L100.859 39.2183L99.8949 38.9545ZM87.1676 85.5V84.5H81.3494V85.5V86.5H87.1676V85.5ZM81.3494 85.5L82.3132 85.2331L72.0404 48.1422L71.0767 48.4091L70.113 48.676L80.3857 85.7669L81.3494 85.5ZM71.0767 48.4091V47.4091H70.7131V48.4091V49.4091H71.0767V48.4091ZM70.7131 48.4091L69.7493 48.1422L59.4766 85.2331L60.4403 85.5L61.4041 85.7669L71.6768 48.676L70.7131 48.4091ZM60.4403 85.5V84.5H54.6222V85.5V86.5H60.4403V85.5ZM108.872 84L108.346 84.8504L108.352 84.8542L108.872 84ZM103.259 77.7273L102.358 78.1623L102.361 78.1684L103.259 77.7273ZM103.259 58.8636L102.357 58.4304L102.356 58.4325L103.259 58.8636ZM108.759 52.4545L109.304 53.2924L109.306 53.2915L108.759 52.4545ZM122.418 51.0455L122.741 50.0992V50.0992L122.418 51.0455ZM127.259 54L126.575 54.7295L126.579 54.7333L127.259 54ZM130.736 59.3636L131.668 59.0021V59.0021L130.736 59.3636ZM132.031 69.8636V70.8636C132.584 70.8636 133.031 70.4159 133.031 69.8636H132.031ZM105.122 69.8636H104.122C104.122 70.4159 104.57 70.8636 105.122 70.8636V69.8636ZM105.122 65.2273V64.2273C104.57 64.2273 104.122 64.675 104.122 65.2273H105.122ZM126.577 65.2273V66.2273C127.129 66.2273 127.577 65.7796 127.577 65.2273H126.577ZM125.395 59.9545L124.5 60.4018L124.504 60.4087L125.395 59.9545ZM122.077 56.2955L121.545 57.1424L121.549 57.145L122.077 56.2955ZM111.486 56.5455L112.046 57.3737L112.048 57.3725L111.486 56.5455ZM107.918 60.6364L107.022 60.1924V60.1924L107.918 60.6364ZM108.031 75.8409L107.135 76.2852L107.14 76.2941L108.031 75.8409ZM111.872 80L111.368 80.8638L111.374 80.8673L111.872 80ZM121.395 80.8182L121.722 81.763L121.73 81.7605L121.395 80.8182ZM124.372 79L125.066 79.7201L125.073 79.7136L124.372 79ZM126.304 75.9545L126.574 74.9918C126.074 74.8514 125.55 75.1172 125.368 75.6034L126.304 75.9545ZM131.486 77.4091L132.441 77.7055C132.521 77.4477 132.493 77.1685 132.364 76.9313C132.235 76.6942 132.016 76.5193 131.756 76.4463L131.486 77.4091ZM128.736 82.0455L129.451 82.7443L129.455 82.7402L128.736 82.0455ZM123.963 85.1364L124.322 86.0699L124.328 86.0674L123.963 85.1364ZM117.577 86.2273V85.2273C114.363 85.2273 111.649 84.5195 109.392 83.1458L108.872 84L108.352 84.8542C110.974 86.4502 114.063 87.2273 117.577 87.2273V86.2273ZM108.872 84L109.398 83.1496C107.142 81.7533 105.395 79.8079 104.156 77.2862L103.259 77.7273L102.361 78.1684C103.758 81.0103 105.754 83.2467 108.346 84.8504L108.872 84ZM103.259 77.7273L104.159 77.2922C102.933 74.7547 102.304 71.7722 102.304 68.3182H101.304H100.304C100.304 72.0157 100.978 75.3059 102.358 78.1623L103.259 77.7273ZM101.304 68.3182H102.304C102.304 64.8646 102.933 61.8649 104.161 59.2947L103.259 58.8636L102.356 58.4325C100.978 61.3169 100.304 64.6203 100.304 68.3182H101.304ZM103.259 58.8636L104.16 59.2969C105.406 56.7047 107.122 54.7143 109.304 53.2924L108.759 52.4545L108.213 51.6167C105.698 53.2553 103.748 55.5378 102.357 58.4304L103.259 58.8636ZM108.759 52.4545L109.306 53.2915C111.488 51.8645 114.051 51.1364 117.031 51.1364V50.1364V49.1364C113.709 49.1364 110.756 49.9537 108.211 51.6176L108.759 52.4545ZM117.031 50.1364V51.1364C118.736 51.1364 120.422 51.4201 122.094 51.9917L122.418 51.0455L122.741 50.0992C120.867 49.4587 118.963 49.1364 117.031 49.1364V50.1364ZM122.418 51.0455L122.094 51.9917C123.724 52.549 125.217 53.4565 126.575 54.7295L127.259 54L127.942 53.2705C126.391 51.8162 124.656 50.7541 122.741 50.0992L122.418 51.0455ZM127.259 54L126.579 54.7333C127.901 55.9597 128.984 57.6108 129.803 59.7252L130.736 59.3636L131.668 59.0021C130.761 56.6619 129.525 54.7373 127.938 53.2667L127.259 54ZM130.736 59.3636L129.803 59.7252C130.609 61.8036 131.031 64.415 131.031 67.5909H132.031H133.031C133.031 64.2517 132.59 61.3783 131.668 59.0021L130.736 59.3636ZM132.031 67.5909H131.031V69.8636H132.031H133.031V67.5909H132.031ZM132.031 69.8636V68.8636H105.122V69.8636V70.8636H132.031V69.8636ZM105.122 69.8636H106.122V65.2273H105.122H104.122V69.8636H105.122ZM105.122 65.2273V66.2273H126.577V65.2273V64.2273H105.122V65.2273ZM126.577 65.2273H127.577C127.577 63.1212 127.155 61.2045 126.286 59.5004L125.395 59.9545L124.504 60.4087C125.211 61.7955 125.577 63.3939 125.577 65.2273H126.577ZM125.395 59.9545L126.289 59.5073C125.436 57.7999 124.204 56.4395 122.604 55.446L122.077 56.2955L121.549 57.145C122.828 57.9393 123.809 59.0183 124.5 60.4018L125.395 59.9545ZM122.077 56.2955L122.608 55.4485C121.002 54.44 119.129 53.9545 117.031 53.9545V54.9545V55.9545C118.812 55.9545 120.303 56.3631 121.545 57.1424L122.077 56.2955ZM117.031 54.9545V53.9545C114.722 53.9545 112.671 54.5306 110.924 55.7184L111.486 56.5455L112.048 57.3725C113.421 56.4391 115.068 55.9545 117.031 55.9545V54.9545ZM111.486 56.5455L110.925 55.7172C109.236 56.8601 107.931 58.3566 107.022 60.1924L107.918 60.6364L108.814 61.0803C109.571 59.5525 110.645 58.3217 112.046 57.3737L111.486 56.5455ZM107.918 60.6364L107.022 60.1924C106.118 62.0158 105.668 63.9712 105.668 66.0455H106.668H107.668C107.668 64.2712 108.05 62.6206 108.814 61.0803L107.918 60.6364ZM106.668 66.0455H105.668V69.1364H106.668H107.668V66.0455H106.668ZM106.668 69.1364H105.668C105.668 71.8839 106.141 74.2798 107.135 76.2852L108.031 75.8409L108.927 75.3967C108.103 73.7353 107.668 71.6616 107.668 69.1364H106.668ZM108.031 75.8409L107.14 76.2941C108.144 78.2698 109.553 79.805 111.368 80.8638L111.872 80L112.376 79.1362C110.918 78.2859 109.767 77.0484 108.923 75.3878L108.031 75.8409ZM111.872 80L111.374 80.8673C113.183 81.9058 115.262 82.4091 117.577 82.4091V81.4091V80.4091C115.558 80.4091 113.834 79.973 112.37 79.1327L111.872 80ZM117.577 81.4091V82.4091C119.079 82.4091 120.464 82.1991 121.722 81.763L121.395 80.8182L121.067 79.8733C120.053 80.2251 118.893 80.4091 117.577 80.4091V81.4091ZM121.395 80.8182L121.73 81.7605C123.008 81.3064 124.124 80.6274 125.066 79.7201L124.372 79L123.678 78.2799C122.953 78.9787 122.085 79.5117 121.06 79.8759L121.395 80.8182ZM124.372 79L125.073 79.7136C126.021 78.7826 126.74 77.6394 127.24 76.3057L126.304 75.9545L125.368 75.6034C124.959 76.6939 124.39 77.5811 123.672 78.2864L124.372 79ZM126.304 75.9545L126.034 76.9173L131.216 78.3719L131.486 77.4091L131.756 76.4463L126.574 74.9918L126.304 75.9545ZM131.486 77.4091L130.531 77.1127C130.032 78.7197 129.197 80.129 128.017 81.3507L128.736 82.0455L129.455 82.7402C130.851 81.2952 131.849 79.6136 132.441 77.7055L131.486 77.4091ZM128.736 82.0455L128.021 81.3466C126.842 82.5534 125.374 83.5092 123.598 84.2053L123.963 85.1364L124.328 86.0674C126.34 85.2787 128.054 84.1739 129.451 82.7443L128.736 82.0455ZM123.963 85.1364L123.605 84.2028C121.842 84.8796 119.838 85.2273 117.577 85.2273V86.2273V87.2273C120.043 87.2273 122.296 86.8477 124.322 86.0699L123.963 85.1364ZM146.122 84L145.596 84.8504L145.602 84.8542L146.122 84ZM140.509 77.7273L139.608 78.1623L139.611 78.1684L140.509 77.7273ZM140.509 58.8636L139.607 58.4304L139.606 58.4325L140.509 58.8636ZM146.009 52.4545L146.554 53.2924L146.556 53.2915L146.009 52.4545ZM159.668 51.0455L159.991 50.0992V50.0992L159.668 51.0455ZM164.509 54L163.825 54.7295L163.829 54.7333L164.509 54ZM167.986 59.3636L168.918 59.0021V59.0021L167.986 59.3636ZM169.281 69.8636V70.8636C169.834 70.8636 170.281 70.4159 170.281 69.8636H169.281ZM142.372 69.8636H141.372C141.372 70.4159 141.82 70.8636 142.372 70.8636V69.8636ZM142.372 65.2273V64.2273C141.82 64.2273 141.372 64.675 141.372 65.2273H142.372ZM163.827 65.2273V66.2273C164.379 66.2273 164.827 65.7796 164.827 65.2273H163.827ZM162.645 59.9545L161.75 60.4018L161.754 60.4087L162.645 59.9545ZM159.327 56.2955L158.795 57.1424L158.799 57.145L159.327 56.2955ZM148.736 56.5455L149.296 57.3737L149.298 57.3725L148.736 56.5455ZM145.168 60.6364L144.272 60.1924V60.1924L145.168 60.6364ZM145.281 75.8409L144.385 76.2852L144.39 76.2941L145.281 75.8409ZM149.122 80L148.618 80.8638L148.624 80.8673L149.122 80ZM158.645 80.8182L158.972 81.763L158.98 81.7605L158.645 80.8182ZM161.622 79L162.316 79.7201L162.323 79.7136L161.622 79ZM163.554 75.9545L163.824 74.9918C163.324 74.8514 162.8 75.1172 162.618 75.6034L163.554 75.9545ZM168.736 77.4091L169.691 77.7055C169.771 77.4477 169.743 77.1685 169.614 76.9313C169.485 76.6942 169.266 76.5193 169.006 76.4463L168.736 77.4091ZM165.986 82.0455L166.701 82.7443L166.705 82.7402L165.986 82.0455ZM161.213 85.1364L161.572 86.0699L161.578 86.0674L161.213 85.1364ZM154.827 86.2273V85.2273C151.613 85.2273 148.899 84.5195 146.642 83.1458L146.122 84L145.602 84.8542C148.224 86.4502 151.313 87.2273 154.827 87.2273V86.2273ZM146.122 84L146.648 83.1496C144.392 81.7533 142.645 79.8079 141.406 77.2862L140.509 77.7273L139.611 78.1684C141.008 81.0103 143.004 83.2467 145.596 84.8504L146.122 84ZM140.509 77.7273L141.409 77.2922C140.183 74.7547 139.554 71.7722 139.554 68.3182H138.554H137.554C137.554 72.0157 138.228 75.3059 139.608 78.1623L140.509 77.7273ZM138.554 68.3182H139.554C139.554 64.8646 140.183 61.8649 141.411 59.2947L140.509 58.8636L139.606 58.4325C138.228 61.3169 137.554 64.6203 137.554 68.3182H138.554ZM140.509 58.8636L141.41 59.2969C142.656 56.7047 144.372 54.7143 146.554 53.2924L146.009 52.4545L145.463 51.6167C142.948 53.2553 140.998 55.5378 139.607 58.4304L140.509 58.8636ZM146.009 52.4545L146.556 53.2915C148.738 51.8645 151.301 51.1364 154.281 51.1364V50.1364V49.1364C150.959 49.1364 148.006 49.9537 145.461 51.6176L146.009 52.4545ZM154.281 50.1364V51.1364C155.986 51.1364 157.672 51.4201 159.344 51.9917L159.668 51.0455L159.991 50.0992C158.117 49.4587 156.213 49.1364 154.281 49.1364V50.1364ZM159.668 51.0455L159.344 51.9917C160.974 52.549 162.467 53.4565 163.825 54.7295L164.509 54L165.192 53.2705C163.641 51.8162 161.906 50.7541 159.991 50.0992L159.668 51.0455ZM164.509 54L163.829 54.7333C165.151 55.9597 166.234 57.6108 167.053 59.7252L167.986 59.3636L168.918 59.0021C168.011 56.6619 166.775 54.7373 165.188 53.2667L164.509 54ZM167.986 59.3636L167.053 59.7252C167.859 61.8036 168.281 64.415 168.281 67.5909H169.281H170.281C170.281 64.2517 169.84 61.3783 168.918 59.0021L167.986 59.3636ZM169.281 67.5909H168.281V69.8636H169.281H170.281V67.5909H169.281ZM169.281 69.8636V68.8636H142.372V69.8636V70.8636H169.281V69.8636ZM142.372 69.8636H143.372V65.2273H142.372H141.372V69.8636H142.372ZM142.372 65.2273V66.2273H163.827V65.2273V64.2273H142.372V65.2273ZM163.827 65.2273H164.827C164.827 63.1212 164.405 61.2045 163.536 59.5004L162.645 59.9545L161.754 60.4087C162.461 61.7955 162.827 63.3939 162.827 65.2273H163.827ZM162.645 59.9545L163.539 59.5073C162.686 57.7999 161.454 56.4395 159.854 55.446L159.327 56.2955L158.799 57.145C160.078 57.9393 161.059 59.0183 161.75 60.4018L162.645 59.9545ZM159.327 56.2955L159.858 55.4485C158.252 54.44 156.379 53.9545 154.281 53.9545V54.9545V55.9545C156.062 55.9545 157.553 56.3631 158.795 57.1424L159.327 56.2955ZM154.281 54.9545V53.9545C151.972 53.9545 149.921 54.5306 148.174 55.7184L148.736 56.5455L149.298 57.3725C150.671 56.4391 152.318 55.9545 154.281 55.9545V54.9545ZM148.736 56.5455L148.175 55.7172C146.486 56.8601 145.181 58.3566 144.272 60.1924L145.168 60.6364L146.064 61.0803C146.821 59.5525 147.895 58.3217 149.296 57.3737L148.736 56.5455ZM145.168 60.6364L144.272 60.1924C143.368 62.0158 142.918 63.9712 142.918 66.0455H143.918H144.918C144.918 64.2712 145.3 62.6206 146.064 61.0803L145.168 60.6364ZM143.918 66.0455H142.918V69.1364H143.918H144.918V66.0455H143.918ZM143.918 69.1364H142.918C142.918 71.8839 143.391 74.2798 144.385 76.2852L145.281 75.8409L146.177 75.3967C145.353 73.7353 144.918 71.6616 144.918 69.1364H143.918ZM145.281 75.8409L144.39 76.2941C145.394 78.2698 146.803 79.805 148.618 80.8638L149.122 80L149.626 79.1362C148.168 78.2859 147.017 77.0484 146.173 75.3878L145.281 75.8409ZM149.122 80L148.624 80.8673C150.433 81.9058 152.512 82.4091 154.827 82.4091V81.4091V80.4091C152.808 80.4091 151.084 79.973 149.62 79.1327L149.122 80ZM154.827 81.4091V82.4091C156.329 82.4091 157.714 82.1991 158.972 81.763L158.645 80.8182L158.317 79.8733C157.303 80.2251 156.143 80.4091 154.827 80.4091V81.4091ZM158.645 80.8182L158.98 81.7605C160.258 81.3064 161.374 80.6274 162.316 79.7201L161.622 79L160.928 78.2799C160.203 78.9787 159.335 79.5117 158.31 79.8759L158.645 80.8182ZM161.622 79L162.323 79.7136C163.271 78.7826 163.99 77.6394 164.49 76.3057L163.554 75.9545L162.618 75.6034C162.209 76.6939 161.64 77.5811 160.922 78.2864L161.622 79ZM163.554 75.9545L163.284 76.9173L168.466 78.3719L168.736 77.4091L169.006 76.4463L163.824 74.9918L163.554 75.9545ZM168.736 77.4091L167.781 77.1127C167.282 78.7197 166.447 80.129 165.267 81.3507L165.986 82.0455L166.705 82.7402C168.101 81.2952 169.099 79.6136 169.691 77.7055L168.736 77.4091ZM165.986 82.0455L165.271 81.3466C164.092 82.5534 162.624 83.5092 160.848 84.2053L161.213 85.1364L161.578 86.0674C163.59 85.2787 165.304 84.1739 166.701 82.7443L165.986 82.0455ZM161.213 85.1364L160.855 84.2028C159.092 84.8796 157.088 85.2273 154.827 85.2273V86.2273V87.2273C157.293 87.2273 159.546 86.8477 161.572 86.0699L161.213 85.1364ZM182.44 72.7727L181.44 72.7864C181.446 73.1814 181.683 73.5362 182.046 73.6919C182.409 73.8475 182.83 73.7748 183.12 73.5063L182.44 72.7727ZM182.349 66.1364V65.1364C182.082 65.1364 181.825 65.2436 181.637 65.4341C181.45 65.6246 181.346 65.8825 181.35 66.1501L182.349 66.1364ZM183.44 66.1364V67.1364C183.709 67.1364 183.966 67.0286 184.154 66.8372L183.44 66.1364ZM198.713 50.5909V49.5909C198.445 49.5909 198.188 49.6987 198 49.8901L198.713 50.5909ZM205.349 50.5909L206.06 51.2941C206.344 51.0072 206.428 50.578 206.272 50.2057C206.117 49.8334 205.753 49.5909 205.349 49.5909V50.5909ZM189.077 67.0455V68.0455C189.344 68.0455 189.6 67.9386 189.788 67.7486L189.077 67.0455ZM188.622 67.0455V66.0455C188.37 66.0455 188.127 66.1406 187.943 66.3119L188.622 67.0455ZM177.44 85.5H176.44C176.44 86.0523 176.888 86.5 177.44 86.5V85.5ZM177.44 38.9545V37.9545C176.888 37.9545 176.44 38.4023 176.44 38.9545H177.44ZM182.804 38.9545H183.804C183.804 38.4023 183.356 37.9545 182.804 37.9545V38.9545ZM182.804 85.5V86.5C183.356 86.5 183.804 86.0523 183.804 85.5H182.804ZM199.622 85.5L198.837 86.1196C199.027 86.3599 199.316 86.5 199.622 86.5V85.5ZM185.986 68.2273L185.287 67.5117C184.921 67.8691 184.884 68.4453 185.201 68.8469L185.986 68.2273ZM189.804 64.5L190.588 63.879C190.412 63.6571 190.15 63.5201 189.868 63.502C189.585 63.484 189.308 63.5866 189.105 63.7844L189.804 64.5ZM206.44 85.5V86.5C206.824 86.5 207.174 86.2806 207.341 85.9353C207.508 85.59 207.462 85.1797 207.224 84.879L206.44 85.5ZM182.44 72.7727L183.44 72.759L183.349 66.1227L182.349 66.1364L181.35 66.1501L181.44 72.7864L182.44 72.7727ZM182.349 66.1364V67.1364H183.44V66.1364V65.1364H182.349V66.1364ZM183.44 66.1364L184.154 66.8372L199.426 51.2917L198.713 50.5909L198 49.8901L182.727 65.4355L183.44 66.1364ZM198.713 50.5909V51.5909H205.349V50.5909V49.5909H198.713V50.5909ZM205.349 50.5909L204.638 49.8877L188.366 66.3423L189.077 67.0455L189.788 67.7486L206.06 51.2941L205.349 50.5909ZM189.077 67.0455V66.0455H188.622V67.0455V68.0455H189.077V67.0455ZM188.622 67.0455L187.943 66.3119L181.761 72.0392L182.44 72.7727L183.12 73.5063L189.302 67.779L188.622 67.0455ZM177.44 85.5H178.44V38.9545H177.44H176.44V85.5H177.44ZM177.44 38.9545V39.9545H182.804V38.9545V37.9545H177.44V38.9545ZM182.804 38.9545H181.804V85.5H182.804H183.804V38.9545H182.804ZM182.804 85.5V84.5H177.44V85.5V86.5H182.804V85.5ZM199.622 85.5L200.407 84.8804L186.771 67.6076L185.986 68.2273L185.201 68.8469L198.837 86.1196L199.622 85.5ZM185.986 68.2273L186.684 68.9428L190.503 65.2156L189.804 64.5L189.105 63.7844L185.287 67.5117L185.986 68.2273ZM189.804 64.5L189.02 65.121L205.656 86.121L206.44 85.5L207.224 84.879L190.588 63.879L189.804 64.5ZM206.44 85.5V84.5H199.622V85.5V86.5H206.44V85.5ZM247.616 85.5L246.63 85.3381C246.582 85.6277 246.664 85.9236 246.854 86.1473C247.044 86.3711 247.323 86.5 247.616 86.5V85.5ZM255.253 38.9545V37.9545C254.763 37.9545 254.345 38.3093 254.266 38.7926L255.253 38.9545ZM259.798 38.9545L260.785 39.1164C260.833 38.8268 260.751 38.5309 260.561 38.3072C260.37 38.0835 260.092 37.9545 259.798 37.9545V38.9545ZM252.162 85.5V86.5C252.652 86.5 253.069 86.1452 253.149 85.6619L252.162 85.5ZM226.435 72.5909L225.447 72.4329C225.401 72.7221 225.484 73.0169 225.674 73.2398C225.864 73.4626 226.142 73.5909 226.435 73.5909V72.5909ZM227.162 68.0455V67.0455C226.671 67.0455 226.252 67.4023 226.174 67.8875L227.162 68.0455ZM261.889 68.0455L262.877 68.2034C262.923 67.9143 262.84 67.6194 262.65 67.3966C262.46 67.1738 262.182 67.0455 261.889 67.0455V68.0455ZM261.162 72.5909V73.5909C261.653 73.5909 262.072 73.234 262.149 72.7489L261.162 72.5909ZM231.253 85.5L230.266 85.3381C230.219 85.6277 230.301 85.9236 230.491 86.1473C230.681 86.3711 230.959 86.5 231.253 86.5V85.5ZM238.889 38.9545V37.9545C238.399 37.9545 237.982 38.3093 237.902 38.7926L238.889 38.9545ZM243.435 38.9545L244.421 39.1164C244.469 38.8268 244.387 38.5309 244.197 38.3072C244.007 38.0835 243.728 37.9545 243.435 37.9545V38.9545ZM235.798 85.5V86.5C236.288 86.5 236.706 86.1452 236.785 85.6619L235.798 85.5ZM229.162 56.4091L228.174 56.2511C228.128 56.5402 228.211 56.8351 228.401 57.0579C228.591 57.2807 228.869 57.4091 229.162 57.4091V56.4091ZM229.889 51.8636V50.8636C229.398 50.8636 228.979 51.2205 228.902 51.7056L229.889 51.8636ZM264.616 51.8636L265.604 52.0216C265.65 51.7325 265.567 51.4376 265.377 51.2148C265.187 50.992 264.909 50.8636 264.616 50.8636V51.8636ZM263.889 56.4091V57.4091C264.38 57.4091 264.799 57.0522 264.877 56.5671L263.889 56.4091ZM247.616 85.5L248.603 85.6619L256.24 39.1164L255.253 38.9545L254.266 38.7926L246.63 85.3381L247.616 85.5ZM255.253 38.9545V39.9545H259.798V38.9545V37.9545H255.253V38.9545ZM259.798 38.9545L258.811 38.7926L251.175 85.3381L252.162 85.5L253.149 85.6619L260.785 39.1164L259.798 38.9545ZM252.162 85.5V84.5H247.616V85.5V86.5H252.162V85.5ZM226.435 72.5909L227.422 72.7489L228.149 68.2034L227.162 68.0455L226.174 67.8875L225.447 72.4329L226.435 72.5909ZM227.162 68.0455V69.0455H261.889V68.0455V67.0455H227.162V68.0455ZM261.889 68.0455L260.902 67.8875L260.174 72.4329L261.162 72.5909L262.149 72.7489L262.877 68.2034L261.889 68.0455ZM261.162 72.5909V71.5909H226.435V72.5909V73.5909H261.162V72.5909ZM231.253 85.5L232.24 85.6619L239.876 39.1164L238.889 38.9545L237.902 38.7926L230.266 85.3381L231.253 85.5ZM238.889 38.9545V39.9545H243.435V38.9545V37.9545H238.889V38.9545ZM243.435 38.9545L242.448 38.7926L234.811 85.3381L235.798 85.5L236.785 85.6619L244.421 39.1164L243.435 38.9545ZM235.798 85.5V84.5H231.253V85.5V86.5H235.798V85.5ZM229.162 56.4091L230.149 56.5671L230.877 52.0216L229.889 51.8636L228.902 51.7056L228.174 56.2511L229.162 56.4091ZM229.889 51.8636V52.8636H264.616V51.8636V50.8636H229.889V51.8636ZM264.616 51.8636L263.629 51.7056L262.902 56.2511L263.889 56.4091L264.877 56.5671L265.604 52.0216L264.616 51.8636ZM263.889 56.4091V55.4091H229.162V56.4091V57.4091H263.889V56.4091ZM286.901 38.9545H287.901C287.901 38.4023 287.453 37.9545 286.901 37.9545V38.9545ZM286.901 85.5V86.5C287.453 86.5 287.901 86.0523 287.901 85.5H286.901ZM281.264 85.5H280.264C280.264 86.0523 280.712 86.5 281.264 86.5V85.5ZM281.264 44.8636H282.264C282.264 44.3114 281.816 43.8636 281.264 43.8636V44.8636ZM280.991 44.8636V43.8636C280.795 43.8636 280.602 43.9217 280.438 44.0306L280.991 44.8636ZM269.628 52.4091H268.628C268.628 52.7776 268.83 53.1162 269.155 53.2903C269.48 53.4645 269.874 53.446 270.181 53.2422L269.628 52.4091ZM269.628 46.6818L269.075 45.8488C268.796 46.0341 268.628 46.3468 268.628 46.6818H269.628ZM281.264 38.9545V37.9545C281.067 37.9545 280.875 38.0126 280.711 38.1215L281.264 38.9545ZM286.901 38.9545H285.901V85.5H286.901H287.901V38.9545H286.901ZM286.901 85.5V84.5H281.264V85.5V86.5H286.901V85.5ZM281.264 85.5H282.264V44.8636H281.264H280.264V85.5H281.264ZM281.264 44.8636V43.8636H280.991V44.8636V45.8636H281.264V44.8636ZM280.991 44.8636L280.438 44.0306L269.075 51.576L269.628 52.4091L270.181 53.2422L281.545 45.6967L280.991 44.8636ZM269.628 52.4091H270.628V46.6818H269.628H268.628V52.4091H269.628ZM269.628 46.6818L270.181 47.5149L281.817 39.7876L281.264 38.9545L280.711 38.1215L269.075 45.8488L269.628 46.6818ZM281.264 38.9545V39.9545H286.901V38.9545V37.9545H281.264V38.9545Z" fill="url(#paint4_linear_2681_9543)" mask="url(#path-3-outside-1_2681_9543)"/>
</g>
</g>
<defs>
<filter id="filter0_dddd_2681_9543" x="0" y="0" width="336" height="150" filterUnits="userSpaceOnUse" color-interpolation-filters="sRGB">
<feFlood flood-opacity="0" result="BackgroundImageFix"/>
<feColorMatrix in="SourceAlpha" type="matrix" values="0 0 0 0 0 0 0 0 0 0 0 0 0 0 0 0 0 0 127 0" result="hardAlpha"/>
<feOffset dy="1"/>
<feGaussianBlur stdDeviation="1.5"/>
<feColorMatrix type="matrix" values="0 0 0 0 0 0 0 0 0 0 0 0 0 0 0 0 0 0 0.1 0"/>
<feBlend mode="normal" in2="BackgroundImageFix" result="effect1_dropShadow_2681_9543"/>
<feColorMatrix in="SourceAlpha" type="matrix" values="0 0 0 0 0 0 0 0 0 0 0 0 0 0 0 0 0 0 127 0" result="hardAlpha"/>
<feOffset dy="5"/>
<feGaussianBlur stdDeviation="2.5"/>
<feColorMatrix type="matrix" values="0 0 0 0 0 0 0 0 0 0 0 0 0 0 0 0 0 0 0.09 0"/>
<feBlend mode="normal" in2="effect1_dropShadow_2681_9543" result="effect2_dropShadow_2681_9543"/>
<feColorMatrix in="SourceAlpha" type="matrix" values="0 0 0 0 0 0 0 0 0 0 0 0 0 0 0 0 0 0 127 0" result="hardAlpha"/>
<feOffset dy="11"/>
<feGaussianBlur stdDeviation="3.5"/>
<feColorMatrix type="matrix" values="0 0 0 0 0 0 0 0 0 0 0 0 0 0 0 0 0 0 0.05 0"/>
<feBlend mode="normal" in2="effect2_dropShadow_2681_9543" result="effect3_dropShadow_2681_9543"/>
<feColorMatrix in="SourceAlpha" type="matrix" values="0 0 0 0 0 0 0 0 0 0 0 0 0 0 0 0 0 0 127 0" result="hardAlpha"/>
<feOffset dy="20"/>
<feGaussianBlur stdDeviation="4"/>
<feColorMatrix type="matrix" values="0 0 0 0 0 0 0 0 0 0 0 0 0 0 0 0 0 0 0.01 0"/>
<feBlend mode="normal" in2="effect3_dropShadow_2681_9543" result="effect4_dropShadow_2681_9543"/>
<feBlend mode="normal" in="SourceGraphic" in2="effect4_dropShadow_2681_9543" result="shape"/>
</filter>
<filter id="filter1_dddd_2681_9543" x="20.8949" y="33.9545" width="287.006" height="123.273" filterUnits="userSpaceOnUse" color-interpolation-filters="sRGB">
<feFlood flood-opacity="0" result="BackgroundImageFix"/>
<feColorMatrix in="SourceAlpha" type="matrix" values="0 0 0 0 0 0 0 0 0 0 0 0 0 0 0 0 0 0 127 0" result="hardAlpha"/>
<feOffset dy="3"/>
<feGaussianBlur stdDeviation="3.5"/>
<feColorMatrix type="matrix" values="0 0 0 0 0 0 0 0 0 0 0 0 0 0 0 0 0 0 0.1 0"/>
<feBlend mode="normal" in2="BackgroundImageFix" result="effect1_dropShadow_2681_9543"/>
<feColorMatrix in="SourceAlpha" type="matrix" values="0 0 0 0 0 0 0 0 0 0 0 0 0 0 0 0 0 0 127 0" result="hardAlpha"/>
<feOffset dy="13"/>
<feGaussianBlur stdDeviation="6.5"/>
<feColorMatrix type="matrix" values="0 0 0 0 0 0 0 0 0 0 0 0 0 0 0 0 0 0 0.09 0"/>
<feBlend mode="normal" in2="effect1_dropShadow_2681_9543" result="effect2_dropShadow_2681_9543"/>
<feColorMatrix in="SourceAlpha" type="matrix" values="0 0 0 0 0 0 0 0 0 0 0 0 0 0 0 0 0 0 127 0" result="hardAlpha"/>
<feOffset dy="28"/>
<feGaussianBlur stdDeviation="8.5"/>
<feColorMatrix type="matrix" values="0 0 0 0 0 0 0 0 0 0 0 0 0 0 0 0 0 0 0.05 0"/>
<feBlend mode="normal" in2="effect2_dropShadow_2681_9543" result="effect3_dropShadow_2681_9543"/>
<feColorMatrix in="SourceAlpha" type="matrix" values="0 0 0 0 0 0 0 0 0 0 0 0 0 0 0 0 0 0 127 0" result="hardAlpha"/>
<feOffset dy="50"/>
<feGaussianBlur stdDeviation="10"/>
<feColorMatrix type="matrix" values="0 0 0 0 0 0 0 0 0 0 0 0 0 0 0 0 0 0 0.02 0"/>
<feBlend mode="normal" in2="effect3_dropShadow_2681_9543" result="effect4_dropShadow_2681_9543"/>
<feBlend mode="normal" in="SourceGraphic" in2="effect4_dropShadow_2681_9543" result="shape"/>
</filter>
<radialGradient id="paint0_radial_2681_9543" cx="0" cy="0" r="1" gradientUnits="userSpaceOnUse" gradientTransform="translate(168 2) rotate(90) scale(120 320)">
<stop stop-color="#5DE000"/>
<stop offset="1" stop-color="#00B658"/>
</radialGradient>
<radialGradient id="paint1_radial_2681_9543" cx="0" cy="0" r="1" gradientUnits="userSpaceOnUse" gradientTransform="translate(168 2) rotate(90) scale(120 160)">
<stop stop-color="white"/>
<stop offset="1" stop-color="white" stop-opacity="0"/>
</radialGradient>
<radialGradient id="paint2_radial_2681_9543" cx="0" cy="0" r="1" gradientUnits="userSpaceOnUse" gradientTransform="translate(168 2) rotate(90) scale(120 197.016)">
<stop stop-color="#D3FF73"/>
<stop offset="1" stop-color="#D3FF73" stop-opacity="0"/>
</radialGradient>
<linearGradient id="paint3_linear_2681_9543" x1="168" y1="85.5" x2="168" y2="38.4399" gradientUnits="userSpaceOnUse">
<stop stop-color="white"/>
<stop offset="1" stop-color="white" stop-opacity="0.6"/>
</linearGradient>
<linearGradient id="paint4_linear_2681_9543" x1="168" y1="40.9022" x2="168" y2="100.5" gradientUnits="userSpaceOnUse">
<stop stop-color="white"/>
<stop offset="0.75" stop-color="white" stop-opacity="0"/>
</linearGradient>
</defs>
</svg>
