<svg width="320" height="156" viewBox="0 0 320 156" fill="none" xmlns="http://www.w3.org/2000/svg">
<path d="M24 2H296C308.15 2 318 11.8497 318 24V96C318 108.15 308.15 118 296 118H24C11.8497 118 2 108.15 2 96V24C2 11.8497 11.8497 2 24 2Z" fill="url(#paint0_radial_2681_9545)"/>
<path d="M24 2H296C308.15 2 318 11.8497 318 24V96C318 108.15 308.15 118 296 118H24C11.8497 118 2 108.15 2 96V24C2 11.8497 11.8497 2 24 2Z" fill="url(#paint1_radial_2681_9545)" fill-opacity="0.4"/>
<path d="M24 2H296C308.15 2 318 11.8497 318 24V96C318 108.15 308.15 118 296 118H24C11.8497 118 2 108.15 2 96V24C2 11.8497 11.8497 2 24 2Z" stroke="url(#paint2_radial_2681_9545)" stroke-width="4"/>
<g filter="url(#filter0_dddd_2681_9545)">
<mask id="path-2-outside-1_2681_9545" maskUnits="userSpaceOnUse" x="28" y="34.5" width="261" height="51" fill="black">
<rect fill="white" x="28" y="34.5" width="261" height="51"/>
<path d="M42.1222 83.5L29.3949 36.9545H35.1222L44.8494 74.8636H45.304L55.2131 36.9545H61.5767L71.4858 74.8636H71.9403L81.6676 36.9545H87.3949L74.6676 83.5H68.8494L58.5767 46.4091H58.2131L47.9403 83.5H42.1222ZM105.077 84.2273C101.713 84.2273 98.8116 83.4848 96.3722 82C93.9479 80.5 92.0767 78.4091 90.7585 75.7273C89.4555 73.0303 88.804 69.8939 88.804 66.3182C88.804 62.7424 89.4555 59.5909 90.7585 56.8636C92.0767 54.1212 93.91 51.9848 96.2585 50.4545C98.6222 48.9091 101.38 48.1364 104.531 48.1364C106.349 48.1364 108.145 48.4394 109.918 49.0455C111.69 49.6515 113.304 50.6364 114.759 52C116.213 53.3485 117.372 55.1364 118.236 57.3636C119.099 59.5909 119.531 62.3333 119.531 65.5909V67.8636H92.6222V63.2273H114.077C114.077 61.2576 113.683 59.5 112.895 57.9545C112.122 56.4091 111.016 55.1894 109.577 54.2955C108.152 53.4015 106.471 52.9545 104.531 52.9545C102.395 52.9545 100.546 53.4848 98.9858 54.5455C97.4403 55.5909 96.2509 56.9545 95.4176 58.6364C94.5843 60.3182 94.1676 62.1212 94.1676 64.0455V67.1364C94.1676 69.7727 94.6222 72.0076 95.5312 73.8409C96.4555 75.6591 97.7358 77.0455 99.3722 78C101.009 78.9394 102.91 79.4091 105.077 79.4091C106.486 79.4091 107.759 79.2121 108.895 78.8182C110.046 78.4091 111.039 77.803 111.872 77C112.705 76.1818 113.349 75.1667 113.804 73.9545L118.986 75.4091C118.44 77.1667 117.524 78.7121 116.236 80.0455C114.948 81.3636 113.357 82.3939 111.463 83.1364C109.569 83.8636 107.44 84.2273 105.077 84.2273ZM142.327 84.2273C138.963 84.2273 136.062 83.4848 133.622 82C131.198 80.5 129.327 78.4091 128.009 75.7273C126.705 73.0303 126.054 69.8939 126.054 66.3182C126.054 62.7424 126.705 59.5909 128.009 56.8636C129.327 54.1212 131.16 51.9848 133.509 50.4545C135.872 48.9091 138.63 48.1364 141.781 48.1364C143.599 48.1364 145.395 48.4394 147.168 49.0455C148.94 49.6515 150.554 50.6364 152.009 52C153.463 53.3485 154.622 55.1364 155.486 57.3636C156.349 59.5909 156.781 62.3333 156.781 65.5909V67.8636H129.872V63.2273H151.327C151.327 61.2576 150.933 59.5 150.145 57.9545C149.372 56.4091 148.266 55.1894 146.827 54.2955C145.402 53.4015 143.721 52.9545 141.781 52.9545C139.645 52.9545 137.796 53.4848 136.236 54.5455C134.69 55.5909 133.501 56.9545 132.668 58.6364C131.834 60.3182 131.418 62.1212 131.418 64.0455V67.1364C131.418 69.7727 131.872 72.0076 132.781 73.8409C133.705 75.6591 134.986 77.0455 136.622 78C138.259 78.9394 140.16 79.4091 142.327 79.4091C143.736 79.4091 145.009 79.2121 146.145 78.8182C147.296 78.4091 148.289 77.803 149.122 77C149.955 76.1818 150.599 75.1667 151.054 73.9545L156.236 75.4091C155.69 77.1667 154.774 78.7121 153.486 80.0455C152.198 81.3636 150.607 82.3939 148.713 83.1364C146.819 83.8636 144.69 84.2273 142.327 84.2273ZM169.94 70.7727L169.849 64.1364H170.94L186.213 48.5909H192.849L176.577 65.0455H176.122L169.94 70.7727ZM164.94 83.5V36.9545H170.304V83.5H164.94ZM187.122 83.5L173.486 66.2273L177.304 62.5L193.94 83.5H187.122ZM235.116 83.5L242.753 36.9545H247.298L239.662 83.5H235.116ZM213.935 70.5909L214.662 66.0455H249.389L248.662 70.5909H213.935ZM218.753 83.5L226.389 36.9545H230.935L223.298 83.5H218.753ZM216.662 54.4091L217.389 49.8636H252.116L251.389 54.4091H216.662ZM258.037 83.5V79.4091L273.401 62.5909C275.204 60.6212 276.688 58.9091 277.855 57.4545C279.022 55.9848 279.885 54.6061 280.446 53.3182C281.022 52.0152 281.31 50.6515 281.31 49.2273C281.31 47.5909 280.916 46.1742 280.128 44.9773C279.355 43.7803 278.295 42.8561 276.946 42.2045C275.598 41.553 274.082 41.2273 272.401 41.2273C270.613 41.2273 269.052 41.5985 267.719 42.3409C266.401 43.0682 265.378 44.0909 264.651 45.4091C263.938 46.7273 263.582 48.2727 263.582 50.0455H258.219C258.219 47.3182 258.848 44.9242 260.105 42.8636C261.363 40.803 263.075 39.197 265.241 38.0455C267.423 36.8939 269.87 36.3182 272.582 36.3182C275.31 36.3182 277.726 36.8939 279.832 38.0455C281.938 39.197 283.59 40.75 284.787 42.7045C285.984 44.6591 286.582 46.8333 286.582 49.2273C286.582 50.9394 286.272 52.6136 285.651 54.25C285.045 55.8712 283.984 57.6818 282.469 59.6818C280.969 61.6667 278.885 64.0909 276.219 66.9545L265.764 78.1364V78.5H287.401V83.5H258.037Z"/>
</mask>
<path d="M42.1222 83.5L29.3949 36.9545H35.1222L44.8494 74.8636H45.304L55.2131 36.9545H61.5767L71.4858 74.8636H71.9403L81.6676 36.9545H87.3949L74.6676 83.5H68.8494L58.5767 46.4091H58.2131L47.9403 83.5H42.1222ZM105.077 84.2273C101.713 84.2273 98.8116 83.4848 96.3722 82C93.9479 80.5 92.0767 78.4091 90.7585 75.7273C89.4555 73.0303 88.804 69.8939 88.804 66.3182C88.804 62.7424 89.4555 59.5909 90.7585 56.8636C92.0767 54.1212 93.91 51.9848 96.2585 50.4545C98.6222 48.9091 101.38 48.1364 104.531 48.1364C106.349 48.1364 108.145 48.4394 109.918 49.0455C111.69 49.6515 113.304 50.6364 114.759 52C116.213 53.3485 117.372 55.1364 118.236 57.3636C119.099 59.5909 119.531 62.3333 119.531 65.5909V67.8636H92.6222V63.2273H114.077C114.077 61.2576 113.683 59.5 112.895 57.9545C112.122 56.4091 111.016 55.1894 109.577 54.2955C108.152 53.4015 106.471 52.9545 104.531 52.9545C102.395 52.9545 100.546 53.4848 98.9858 54.5455C97.4403 55.5909 96.2509 56.9545 95.4176 58.6364C94.5843 60.3182 94.1676 62.1212 94.1676 64.0455V67.1364C94.1676 69.7727 94.6222 72.0076 95.5312 73.8409C96.4555 75.6591 97.7358 77.0455 99.3722 78C101.009 78.9394 102.91 79.4091 105.077 79.4091C106.486 79.4091 107.759 79.2121 108.895 78.8182C110.046 78.4091 111.039 77.803 111.872 77C112.705 76.1818 113.349 75.1667 113.804 73.9545L118.986 75.4091C118.44 77.1667 117.524 78.7121 116.236 80.0455C114.948 81.3636 113.357 82.3939 111.463 83.1364C109.569 83.8636 107.44 84.2273 105.077 84.2273ZM142.327 84.2273C138.963 84.2273 136.062 83.4848 133.622 82C131.198 80.5 129.327 78.4091 128.009 75.7273C126.705 73.0303 126.054 69.8939 126.054 66.3182C126.054 62.7424 126.705 59.5909 128.009 56.8636C129.327 54.1212 131.16 51.9848 133.509 50.4545C135.872 48.9091 138.63 48.1364 141.781 48.1364C143.599 48.1364 145.395 48.4394 147.168 49.0455C148.94 49.6515 150.554 50.6364 152.009 52C153.463 53.3485 154.622 55.1364 155.486 57.3636C156.349 59.5909 156.781 62.3333 156.781 65.5909V67.8636H129.872V63.2273H151.327C151.327 61.2576 150.933 59.5 150.145 57.9545C149.372 56.4091 148.266 55.1894 146.827 54.2955C145.402 53.4015 143.721 52.9545 141.781 52.9545C139.645 52.9545 137.796 53.4848 136.236 54.5455C134.69 55.5909 133.501 56.9545 132.668 58.6364C131.834 60.3182 131.418 62.1212 131.418 64.0455V67.1364C131.418 69.7727 131.872 72.0076 132.781 73.8409C133.705 75.6591 134.986 77.0455 136.622 78C138.259 78.9394 140.16 79.4091 142.327 79.4091C143.736 79.4091 145.009 79.2121 146.145 78.8182C147.296 78.4091 148.289 77.803 149.122 77C149.955 76.1818 150.599 75.1667 151.054 73.9545L156.236 75.4091C155.69 77.1667 154.774 78.7121 153.486 80.0455C152.198 81.3636 150.607 82.3939 148.713 83.1364C146.819 83.8636 144.69 84.2273 142.327 84.2273ZM169.94 70.7727L169.849 64.1364H170.94L186.213 48.5909H192.849L176.577 65.0455H176.122L169.94 70.7727ZM164.94 83.5V36.9545H170.304V83.5H164.94ZM187.122 83.5L173.486 66.2273L177.304 62.5L193.94 83.5H187.122ZM235.116 83.5L242.753 36.9545H247.298L239.662 83.5H235.116ZM213.935 70.5909L214.662 66.0455H249.389L248.662 70.5909H213.935ZM218.753 83.5L226.389 36.9545H230.935L223.298 83.5H218.753ZM216.662 54.4091L217.389 49.8636H252.116L251.389 54.4091H216.662ZM258.037 83.5V79.4091L273.401 62.5909C275.204 60.6212 276.688 58.9091 277.855 57.4545C279.022 55.9848 279.885 54.6061 280.446 53.3182C281.022 52.0152 281.31 50.6515 281.31 49.2273C281.31 47.5909 280.916 46.1742 280.128 44.9773C279.355 43.7803 278.295 42.8561 276.946 42.2045C275.598 41.553 274.082 41.2273 272.401 41.2273C270.613 41.2273 269.052 41.5985 267.719 42.3409C266.401 43.0682 265.378 44.0909 264.651 45.4091C263.938 46.7273 263.582 48.2727 263.582 50.0455H258.219C258.219 47.3182 258.848 44.9242 260.105 42.8636C261.363 40.803 263.075 39.197 265.241 38.0455C267.423 36.8939 269.87 36.3182 272.582 36.3182C275.31 36.3182 277.726 36.8939 279.832 38.0455C281.938 39.197 283.59 40.75 284.787 42.7045C285.984 44.6591 286.582 46.8333 286.582 49.2273C286.582 50.9394 286.272 52.6136 285.651 54.25C285.045 55.8712 283.984 57.6818 282.469 59.6818C280.969 61.6667 278.885 64.0909 276.219 66.9545L265.764 78.1364V78.5H287.401V83.5H258.037Z" fill="url(#paint3_linear_2681_9545)"/>
<path d="M42.1222 83.5L41.1576 83.7638C41.2764 84.1985 41.6715 84.5 42.1222 84.5V83.5ZM29.3949 36.9545V35.9545C29.0831 35.9545 28.7892 36.1 28.6 36.3478C28.4108 36.5957 28.3481 36.9176 28.4303 37.2183L29.3949 36.9545ZM35.1222 36.9545L36.0908 36.706C35.9773 36.2638 35.5787 35.9545 35.1222 35.9545V36.9545ZM44.8494 74.8636L43.8808 75.1122C43.9943 75.5544 44.3929 75.8636 44.8494 75.8636V74.8636ZM45.304 74.8636V75.8636C45.7589 75.8636 46.1564 75.5566 46.2715 75.1165L45.304 74.8636ZM55.2131 36.9545V35.9545C54.7582 35.9545 54.3606 36.2616 54.2456 36.7016L55.2131 36.9545ZM61.5767 36.9545L62.5442 36.7016C62.4292 36.2616 62.0316 35.9545 61.5767 35.9545V36.9545ZM71.4858 74.8636L70.5183 75.1165C70.6333 75.5566 71.0309 75.8636 71.4858 75.8636V74.8636ZM71.9403 74.8636V75.8636C72.3969 75.8636 72.7955 75.5544 72.909 75.1122L71.9403 74.8636ZM81.6676 36.9545V35.9545C81.2111 35.9545 80.8125 36.2638 80.699 36.706L81.6676 36.9545ZM87.3949 36.9545L88.3595 37.2183C88.4417 36.9176 88.379 36.5957 88.1898 36.3478C88.0006 36.1 87.7067 35.9545 87.3949 35.9545V36.9545ZM74.6676 83.5V84.5C75.1183 84.5 75.5133 84.1985 75.6322 83.7638L74.6676 83.5ZM68.8494 83.5L67.8857 83.7669C68.0057 84.2001 68.3999 84.5 68.8494 84.5V83.5ZM58.5767 46.4091L59.5404 46.1422C59.4205 45.709 59.0262 45.4091 58.5767 45.4091V46.4091ZM58.2131 46.4091V45.4091C57.7636 45.4091 57.3693 45.709 57.2493 46.1422L58.2131 46.4091ZM47.9403 83.5V84.5C48.3898 84.5 48.7841 84.2001 48.9041 83.7669L47.9403 83.5ZM42.1222 83.5L43.0868 83.2362L30.3595 36.6908L29.3949 36.9545L28.4303 37.2183L41.1576 83.7638L42.1222 83.5ZM29.3949 36.9545V37.9545H35.1222V36.9545V35.9545H29.3949V36.9545ZM35.1222 36.9545L34.1535 37.2031L43.8808 75.1122L44.8494 74.8636L45.8181 74.6151L36.0908 36.706L35.1222 36.9545ZM44.8494 74.8636V75.8636H45.304V74.8636V73.8636H44.8494V74.8636ZM45.304 74.8636L46.2715 75.1165L56.1806 37.2074L55.2131 36.9545L54.2456 36.7016L44.3365 74.6107L45.304 74.8636ZM55.2131 36.9545V37.9545H61.5767V36.9545V35.9545H55.2131V36.9545ZM61.5767 36.9545L60.6092 37.2074L70.5183 75.1165L71.4858 74.8636L72.4533 74.6107L62.5442 36.7016L61.5767 36.9545ZM71.4858 74.8636V75.8636H71.9403V74.8636V73.8636H71.4858V74.8636ZM71.9403 74.8636L72.909 75.1122L82.6362 37.2031L81.6676 36.9545L80.699 36.706L70.9717 74.6151L71.9403 74.8636ZM81.6676 36.9545V37.9545H87.3949V36.9545V35.9545H81.6676V36.9545ZM87.3949 36.9545L86.4303 36.6908L73.703 83.2362L74.6676 83.5L75.6322 83.7638L88.3595 37.2183L87.3949 36.9545ZM74.6676 83.5V82.5H68.8494V83.5V84.5H74.6676V83.5ZM68.8494 83.5L69.8132 83.2331L59.5404 46.1422L58.5767 46.4091L57.613 46.676L67.8857 83.7669L68.8494 83.5ZM58.5767 46.4091V45.4091H58.2131V46.4091V47.4091H58.5767V46.4091ZM58.2131 46.4091L57.2493 46.1422L46.9766 83.2331L47.9403 83.5L48.9041 83.7669L59.1768 46.676L58.2131 46.4091ZM47.9403 83.5V82.5H42.1222V83.5V84.5H47.9403V83.5ZM96.3722 82L95.846 82.8504L95.8522 82.8542L96.3722 82ZM90.7585 75.7273L89.8581 76.1623L89.8611 76.1684L90.7585 75.7273ZM90.7585 56.8636L89.8572 56.4304L89.8562 56.4325L90.7585 56.8636ZM96.2585 50.4545L96.8045 51.2924L96.8058 51.2915L96.2585 50.4545ZM109.918 49.0455L110.241 48.0992V48.0992L109.918 49.0455ZM114.759 52L114.075 52.7295L114.079 52.7333L114.759 52ZM118.236 57.3636L119.168 57.0021V57.0021L118.236 57.3636ZM119.531 67.8636V68.8636C120.084 68.8636 120.531 68.4159 120.531 67.8636H119.531ZM92.6222 67.8636H91.6222C91.6222 68.4159 92.0699 68.8636 92.6222 68.8636V67.8636ZM92.6222 63.2273V62.2273C92.0699 62.2273 91.6222 62.675 91.6222 63.2273H92.6222ZM114.077 63.2273V64.2273C114.629 64.2273 115.077 63.7796 115.077 63.2273H114.077ZM112.895 57.9545L112 58.4018L112.004 58.4087L112.895 57.9545ZM109.577 54.2955L109.045 55.1424L109.049 55.145L109.577 54.2955ZM98.9858 54.5455L99.5461 55.3737L99.5479 55.3725L98.9858 54.5455ZM95.4176 58.6364L94.5216 58.1924V58.1924L95.4176 58.6364ZM95.5312 73.8409L94.6353 74.2852L94.6398 74.2941L95.5312 73.8409ZM99.3722 78L98.8683 78.8638L98.8743 78.8673L99.3722 78ZM108.895 78.8182L109.222 79.763L109.23 79.7605L108.895 78.8182ZM111.872 77L112.566 77.7201L112.573 77.7136L111.872 77ZM113.804 73.9545L114.074 72.9918C113.574 72.8514 113.05 73.1172 112.868 73.6034L113.804 73.9545ZM118.986 75.4091L119.941 75.7055C120.021 75.4477 119.993 75.1685 119.864 74.9313C119.735 74.6942 119.516 74.5193 119.256 74.4463L118.986 75.4091ZM116.236 80.0455L116.951 80.7443L116.955 80.7402L116.236 80.0455ZM111.463 83.1364L111.822 84.0699L111.828 84.0674L111.463 83.1364ZM105.077 84.2273V83.2273C101.863 83.2273 99.1489 82.5195 96.8921 81.1458L96.3722 82L95.8522 82.8542C98.4742 84.4502 101.563 85.2273 105.077 85.2273V84.2273ZM96.3722 82L96.8983 81.1496C94.6417 79.7533 92.8955 77.8079 91.656 75.2862L90.7585 75.7273L89.8611 76.1684C91.2579 79.0103 93.2541 81.2467 95.846 82.8504L96.3722 82ZM90.7585 75.7273L91.6589 75.2922C90.4329 72.7547 89.804 69.7722 89.804 66.3182H88.804H87.804C87.804 70.0157 88.478 73.3059 89.8581 76.1623L90.7585 75.7273ZM88.804 66.3182H89.804C89.804 62.8646 90.4328 59.8649 91.6608 57.2947L90.7585 56.8636L89.8562 56.4325C88.4781 59.3169 87.804 62.6203 87.804 66.3182H88.804ZM90.7585 56.8636L91.6598 57.2969C92.9058 54.7047 94.6222 52.7143 96.8045 51.2924L96.2585 50.4545L95.7126 49.6167C93.1979 51.2553 91.2476 53.5378 89.8572 56.4304L90.7585 56.8636ZM96.2585 50.4545L96.8058 51.2915C98.9882 49.8645 101.551 49.1364 104.531 49.1364V48.1364V47.1364C101.209 47.1364 98.2561 47.9537 95.7113 49.6176L96.2585 50.4545ZM104.531 48.1364V49.1364C106.236 49.1364 107.922 49.4201 109.594 49.9917L109.918 49.0455L110.241 48.0992C108.367 47.4587 106.463 47.1364 104.531 47.1364V48.1364ZM109.918 49.0455L109.594 49.9917C111.224 50.549 112.717 51.4565 114.075 52.7295L114.759 52L115.442 51.2705C113.891 49.8162 112.156 48.7541 110.241 48.0992L109.918 49.0455ZM114.759 52L114.079 52.7333C115.401 53.9597 116.484 55.6108 117.303 57.7252L118.236 57.3636L119.168 57.0021C118.261 54.6619 117.025 52.7373 115.438 51.2667L114.759 52ZM118.236 57.3636L117.303 57.7252C118.109 59.8036 118.531 62.415 118.531 65.5909H119.531H120.531C120.531 62.2517 120.09 59.3783 119.168 57.0021L118.236 57.3636ZM119.531 65.5909H118.531V67.8636H119.531H120.531V65.5909H119.531ZM119.531 67.8636V66.8636H92.6222V67.8636V68.8636H119.531V67.8636ZM92.6222 67.8636H93.6222V63.2273H92.6222H91.6222V67.8636H92.6222ZM92.6222 63.2273V64.2273H114.077V63.2273V62.2273H92.6222V63.2273ZM114.077 63.2273H115.077C115.077 61.1212 114.655 59.2045 113.786 57.5004L112.895 57.9545L112.004 58.4087C112.711 59.7955 113.077 61.3939 113.077 63.2273H114.077ZM112.895 57.9545L113.789 57.5073C112.936 55.7999 111.704 54.4395 110.104 53.446L109.577 54.2955L109.049 55.145C110.328 55.9393 111.309 57.0183 112 58.4018L112.895 57.9545ZM109.577 54.2955L110.108 53.4485C108.502 52.44 106.629 51.9545 104.531 51.9545V52.9545V53.9545C106.312 53.9545 107.803 54.3631 109.045 55.1424L109.577 54.2955ZM104.531 52.9545V51.9545C102.222 51.9545 100.171 52.5306 98.4237 53.7184L98.9858 54.5455L99.5479 55.3725C100.921 54.4391 102.568 53.9545 104.531 53.9545V52.9545ZM98.9858 54.5455L98.4255 53.7172C96.7359 54.8601 95.4312 56.3566 94.5216 58.1924L95.4176 58.6364L96.3137 59.0803C97.0707 57.5525 98.1448 56.3217 99.5461 55.3737L98.9858 54.5455ZM95.4176 58.6364L94.5216 58.1924C93.6181 60.0158 93.1676 61.9712 93.1676 64.0455H94.1676H95.1676C95.1676 62.2712 95.5505 60.6206 96.3137 59.0803L95.4176 58.6364ZM94.1676 64.0455H93.1676V67.1364H94.1676H95.1676V64.0455H94.1676ZM94.1676 67.1364H93.1676C93.1676 69.8839 93.641 72.2798 94.6353 74.2852L95.5312 73.8409L96.4272 73.3967C95.6034 71.7353 95.1676 69.6616 95.1676 67.1364H94.1676ZM95.5312 73.8409L94.6398 74.2941C95.6441 76.2698 97.0532 77.805 98.8683 78.8638L99.3722 78L99.876 77.1362C98.4184 76.2859 97.2668 75.0484 96.4227 73.3878L95.5312 73.8409ZM99.3722 78L98.8743 78.8673C100.683 79.9058 102.762 80.4091 105.077 80.4091V79.4091V78.4091C103.058 78.4091 101.334 77.973 99.87 77.1327L99.3722 78ZM105.077 79.4091V80.4091C106.579 80.4091 107.964 80.1991 109.222 79.763L108.895 78.8182L108.567 77.8733C107.553 78.2251 106.393 78.4091 105.077 78.4091V79.4091ZM108.895 78.8182L109.23 79.7605C110.508 79.3064 111.624 78.6274 112.566 77.7201L111.872 77L111.178 76.2799C110.453 76.9787 109.585 77.5117 108.56 77.8759L108.895 78.8182ZM111.872 77L112.573 77.7136C113.521 76.7826 114.24 75.6394 114.74 74.3057L113.804 73.9545L112.868 73.6034C112.459 74.6939 111.89 75.5811 111.172 76.2864L111.872 77ZM113.804 73.9545L113.534 74.9173L118.716 76.3719L118.986 75.4091L119.256 74.4463L114.074 72.9918L113.804 73.9545ZM118.986 75.4091L118.031 75.1127C117.532 76.7197 116.697 78.129 115.517 79.3507L116.236 80.0455L116.955 80.7402C118.351 79.2952 119.349 77.6136 119.941 75.7055L118.986 75.4091ZM116.236 80.0455L115.521 79.3466C114.342 80.5534 112.874 81.5092 111.098 82.2053L111.463 83.1364L111.828 84.0674C113.84 83.2787 115.554 82.1739 116.951 80.7443L116.236 80.0455ZM111.463 83.1364L111.105 82.2028C109.342 82.8796 107.338 83.2273 105.077 83.2273V84.2273V85.2273C107.543 85.2273 109.796 84.8477 111.822 84.0699L111.463 83.1364ZM133.622 82L133.096 82.8504L133.102 82.8542L133.622 82ZM128.009 75.7273L127.108 76.1623L127.111 76.1684L128.009 75.7273ZM128.009 56.8636L127.107 56.4304L127.106 56.4325L128.009 56.8636ZM133.509 50.4545L134.054 51.2924L134.056 51.2915L133.509 50.4545ZM147.168 49.0455L147.491 48.0992V48.0992L147.168 49.0455ZM152.009 52L151.325 52.7295L151.329 52.7333L152.009 52ZM155.486 57.3636L156.418 57.0021V57.0021L155.486 57.3636ZM156.781 67.8636V68.8636C157.334 68.8636 157.781 68.4159 157.781 67.8636H156.781ZM129.872 67.8636H128.872C128.872 68.4159 129.32 68.8636 129.872 68.8636V67.8636ZM129.872 63.2273V62.2273C129.32 62.2273 128.872 62.675 128.872 63.2273H129.872ZM151.327 63.2273V64.2273C151.879 64.2273 152.327 63.7796 152.327 63.2273H151.327ZM150.145 57.9545L149.25 58.4018L149.254 58.4087L150.145 57.9545ZM146.827 54.2955L146.295 55.1424L146.299 55.145L146.827 54.2955ZM136.236 54.5455L136.796 55.3737L136.798 55.3725L136.236 54.5455ZM132.668 58.6364L131.772 58.1924V58.1924L132.668 58.6364ZM132.781 73.8409L131.885 74.2852L131.89 74.2941L132.781 73.8409ZM136.622 78L136.118 78.8638L136.124 78.8673L136.622 78ZM146.145 78.8182L146.472 79.763L146.48 79.7605L146.145 78.8182ZM149.122 77L149.816 77.7201L149.823 77.7136L149.122 77ZM151.054 73.9545L151.324 72.9918C150.824 72.8514 150.3 73.1172 150.118 73.6034L151.054 73.9545ZM156.236 75.4091L157.191 75.7055C157.271 75.4477 157.243 75.1685 157.114 74.9313C156.985 74.6942 156.766 74.5193 156.506 74.4463L156.236 75.4091ZM153.486 80.0455L154.201 80.7443L154.205 80.7402L153.486 80.0455ZM148.713 83.1364L149.072 84.0699L149.078 84.0674L148.713 83.1364ZM142.327 84.2273V83.2273C139.113 83.2273 136.399 82.5195 134.142 81.1458L133.622 82L133.102 82.8542C135.724 84.4502 138.813 85.2273 142.327 85.2273V84.2273ZM133.622 82L134.148 81.1496C131.892 79.7533 130.145 77.8079 128.906 75.2862L128.009 75.7273L127.111 76.1684C128.508 79.0103 130.504 81.2467 133.096 82.8504L133.622 82ZM128.009 75.7273L128.909 75.2922C127.683 72.7547 127.054 69.7722 127.054 66.3182H126.054H125.054C125.054 70.0157 125.728 73.3059 127.108 76.1623L128.009 75.7273ZM126.054 66.3182H127.054C127.054 62.8646 127.683 59.8649 128.911 57.2947L128.009 56.8636L127.106 56.4325C125.728 59.3169 125.054 62.6203 125.054 66.3182H126.054ZM128.009 56.8636L128.91 57.2969C130.156 54.7047 131.872 52.7143 134.054 51.2924L133.509 50.4545L132.963 49.6167C130.448 51.2553 128.498 53.5378 127.107 56.4304L128.009 56.8636ZM133.509 50.4545L134.056 51.2915C136.238 49.8645 138.801 49.1364 141.781 49.1364V48.1364V47.1364C138.459 47.1364 135.506 47.9537 132.961 49.6176L133.509 50.4545ZM141.781 48.1364V49.1364C143.486 49.1364 145.172 49.4201 146.844 49.9917L147.168 49.0455L147.491 48.0992C145.617 47.4587 143.713 47.1364 141.781 47.1364V48.1364ZM147.168 49.0455L146.844 49.9917C148.474 50.549 149.967 51.4565 151.325 52.7295L152.009 52L152.692 51.2705C151.141 49.8162 149.406 48.7541 147.491 48.0992L147.168 49.0455ZM152.009 52L151.329 52.7333C152.651 53.9597 153.734 55.6108 154.553 57.7252L155.486 57.3636L156.418 57.0021C155.511 54.6619 154.275 52.7373 152.688 51.2667L152.009 52ZM155.486 57.3636L154.553 57.7252C155.359 59.8036 155.781 62.415 155.781 65.5909H156.781H157.781C157.781 62.2517 157.34 59.3783 156.418 57.0021L155.486 57.3636ZM156.781 65.5909H155.781V67.8636H156.781H157.781V65.5909H156.781ZM156.781 67.8636V66.8636H129.872V67.8636V68.8636H156.781V67.8636ZM129.872 67.8636H130.872V63.2273H129.872H128.872V67.8636H129.872ZM129.872 63.2273V64.2273H151.327V63.2273V62.2273H129.872V63.2273ZM151.327 63.2273H152.327C152.327 61.1212 151.905 59.2045 151.036 57.5004L150.145 57.9545L149.254 58.4087C149.961 59.7955 150.327 61.3939 150.327 63.2273H151.327ZM150.145 57.9545L151.039 57.5073C150.186 55.7999 148.954 54.4395 147.354 53.446L146.827 54.2955L146.299 55.145C147.578 55.9393 148.559 57.0183 149.25 58.4018L150.145 57.9545ZM146.827 54.2955L147.358 53.4485C145.752 52.44 143.879 51.9545 141.781 51.9545V52.9545V53.9545C143.562 53.9545 145.053 54.3631 146.295 55.1424L146.827 54.2955ZM141.781 52.9545V51.9545C139.472 51.9545 137.421 52.5306 135.674 53.7184L136.236 54.5455L136.798 55.3725C138.171 54.4391 139.818 53.9545 141.781 53.9545V52.9545ZM136.236 54.5455L135.675 53.7172C133.986 54.8601 132.681 56.3566 131.772 58.1924L132.668 58.6364L133.564 59.0803C134.321 57.5525 135.395 56.3217 136.796 55.3737L136.236 54.5455ZM132.668 58.6364L131.772 58.1924C130.868 60.0158 130.418 61.9712 130.418 64.0455H131.418H132.418C132.418 62.2712 132.8 60.6206 133.564 59.0803L132.668 58.6364ZM131.418 64.0455H130.418V67.1364H131.418H132.418V64.0455H131.418ZM131.418 67.1364H130.418C130.418 69.8839 130.891 72.2798 131.885 74.2852L132.781 73.8409L133.677 73.3967C132.853 71.7353 132.418 69.6616 132.418 67.1364H131.418ZM132.781 73.8409L131.89 74.2941C132.894 76.2698 134.303 77.805 136.118 78.8638L136.622 78L137.126 77.1362C135.668 76.2859 134.517 75.0484 133.673 73.3878L132.781 73.8409ZM136.622 78L136.124 78.8673C137.933 79.9058 140.012 80.4091 142.327 80.4091V79.4091V78.4091C140.308 78.4091 138.584 77.973 137.12 77.1327L136.622 78ZM142.327 79.4091V80.4091C143.829 80.4091 145.214 80.1991 146.472 79.763L146.145 78.8182L145.817 77.8733C144.803 78.2251 143.643 78.4091 142.327 78.4091V79.4091ZM146.145 78.8182L146.48 79.7605C147.758 79.3064 148.874 78.6274 149.816 77.7201L149.122 77L148.428 76.2799C147.703 76.9787 146.835 77.5117 145.81 77.8759L146.145 78.8182ZM149.122 77L149.823 77.7136C150.771 76.7826 151.49 75.6394 151.99 74.3057L151.054 73.9545L150.118 73.6034C149.709 74.6939 149.14 75.5811 148.422 76.2864L149.122 77ZM151.054 73.9545L150.784 74.9173L155.966 76.3719L156.236 75.4091L156.506 74.4463L151.324 72.9918L151.054 73.9545ZM156.236 75.4091L155.281 75.1127C154.782 76.7197 153.947 78.129 152.767 79.3507L153.486 80.0455L154.205 80.7402C155.601 79.2952 156.599 77.6136 157.191 75.7055L156.236 75.4091ZM153.486 80.0455L152.771 79.3466C151.592 80.5534 150.124 81.5092 148.348 82.2053L148.713 83.1364L149.078 84.0674C151.09 83.2787 152.804 82.1739 154.201 80.7443L153.486 80.0455ZM148.713 83.1364L148.355 82.2028C146.592 82.8796 144.588 83.2273 142.327 83.2273V84.2273V85.2273C144.793 85.2273 147.046 84.8477 149.072 84.0699L148.713 83.1364ZM169.94 70.7727L168.94 70.7864C168.946 71.1814 169.183 71.5362 169.546 71.6919C169.909 71.8475 170.33 71.7748 170.62 71.5063L169.94 70.7727ZM169.849 64.1364V63.1364C169.582 63.1364 169.325 63.2436 169.137 63.4341C168.95 63.6246 168.846 63.8825 168.85 64.1501L169.849 64.1364ZM170.94 64.1364V65.1364C171.209 65.1364 171.466 65.0286 171.654 64.8372L170.94 64.1364ZM186.213 48.5909V47.5909C185.945 47.5909 185.688 47.6987 185.5 47.8901L186.213 48.5909ZM192.849 48.5909L193.56 49.2941C193.844 49.0072 193.928 48.578 193.772 48.2057C193.617 47.8334 193.253 47.5909 192.849 47.5909V48.5909ZM176.577 65.0455V66.0455C176.844 66.0455 177.1 65.9386 177.288 65.7486L176.577 65.0455ZM176.122 65.0455V64.0455C175.87 64.0455 175.627 64.1406 175.443 64.3119L176.122 65.0455ZM164.94 83.5H163.94C163.94 84.0523 164.388 84.5 164.94 84.5V83.5ZM164.94 36.9545V35.9545C164.388 35.9545 163.94 36.4023 163.94 36.9545H164.94ZM170.304 36.9545H171.304C171.304 36.4023 170.856 35.9545 170.304 35.9545V36.9545ZM170.304 83.5V84.5C170.856 84.5 171.304 84.0523 171.304 83.5H170.304ZM187.122 83.5L186.337 84.1196C186.527 84.3599 186.816 84.5 187.122 84.5V83.5ZM173.486 66.2273L172.787 65.5117C172.421 65.8691 172.384 66.4453 172.701 66.8469L173.486 66.2273ZM177.304 62.5L178.088 61.879C177.912 61.6571 177.65 61.5201 177.368 61.502C177.085 61.484 176.808 61.5866 176.605 61.7844L177.304 62.5ZM193.94 83.5V84.5C194.324 84.5 194.674 84.2806 194.841 83.9353C195.008 83.59 194.962 83.1797 194.724 82.879L193.94 83.5ZM169.94 70.7727L170.94 70.759L170.849 64.1227L169.849 64.1364L168.85 64.1501L168.94 70.7864L169.94 70.7727ZM169.849 64.1364V65.1364H170.94V64.1364V63.1364H169.849V64.1364ZM170.94 64.1364L171.654 64.8372L186.926 49.2917L186.213 48.5909L185.5 47.8901L170.227 63.4355L170.94 64.1364ZM186.213 48.5909V49.5909H192.849V48.5909V47.5909H186.213V48.5909ZM192.849 48.5909L192.138 47.8877L175.866 64.3423L176.577 65.0455L177.288 65.7486L193.56 49.2941L192.849 48.5909ZM176.577 65.0455V64.0455H176.122V65.0455V66.0455H176.577V65.0455ZM176.122 65.0455L175.443 64.3119L169.261 70.0392L169.94 70.7727L170.62 71.5063L176.802 65.779L176.122 65.0455ZM164.94 83.5H165.94V36.9545H164.94H163.94V83.5H164.94ZM164.94 36.9545V37.9545H170.304V36.9545V35.9545H164.94V36.9545ZM170.304 36.9545H169.304V83.5H170.304H171.304V36.9545H170.304ZM170.304 83.5V82.5H164.94V83.5V84.5H170.304V83.5ZM187.122 83.5L187.907 82.8804L174.271 65.6076L173.486 66.2273L172.701 66.8469L186.337 84.1196L187.122 83.5ZM173.486 66.2273L174.184 66.9428L178.003 63.2156L177.304 62.5L176.605 61.7844L172.787 65.5117L173.486 66.2273ZM177.304 62.5L176.52 63.121L193.156 84.121L193.94 83.5L194.724 82.879L178.088 61.879L177.304 62.5ZM193.94 83.5V82.5H187.122V83.5V84.5H193.94V83.5ZM235.116 83.5L234.13 83.3381C234.082 83.6277 234.164 83.9236 234.354 84.1473C234.544 84.3711 234.823 84.5 235.116 84.5V83.5ZM242.753 36.9545V35.9545C242.263 35.9545 241.845 36.3093 241.766 36.7926L242.753 36.9545ZM247.298 36.9545L248.285 37.1164C248.333 36.8268 248.251 36.5309 248.061 36.3072C247.87 36.0835 247.592 35.9545 247.298 35.9545V36.9545ZM239.662 83.5V84.5C240.152 84.5 240.569 84.1452 240.649 83.6619L239.662 83.5ZM213.935 70.5909L212.947 70.4329C212.901 70.7221 212.984 71.0169 213.174 71.2398C213.364 71.4626 213.642 71.5909 213.935 71.5909V70.5909ZM214.662 66.0455V65.0455C214.171 65.0455 213.752 65.4023 213.674 65.8875L214.662 66.0455ZM249.389 66.0455L250.377 66.2034C250.423 65.9143 250.34 65.6194 250.15 65.3966C249.96 65.1738 249.682 65.0455 249.389 65.0455V66.0455ZM248.662 70.5909V71.5909C249.153 71.5909 249.572 71.234 249.649 70.7489L248.662 70.5909ZM218.753 83.5L217.766 83.3381C217.719 83.6277 217.801 83.9236 217.991 84.1473C218.181 84.3711 218.459 84.5 218.753 84.5V83.5ZM226.389 36.9545V35.9545C225.899 35.9545 225.482 36.3093 225.402 36.7926L226.389 36.9545ZM230.935 36.9545L231.921 37.1164C231.969 36.8268 231.887 36.5309 231.697 36.3072C231.507 36.0835 231.228 35.9545 230.935 35.9545V36.9545ZM223.298 83.5V84.5C223.788 84.5 224.206 84.1452 224.285 83.6619L223.298 83.5ZM216.662 54.4091L215.674 54.2511C215.628 54.5402 215.711 54.8351 215.901 55.0579C216.091 55.2807 216.369 55.4091 216.662 55.4091V54.4091ZM217.389 49.8636V48.8636C216.898 48.8636 216.479 49.2205 216.402 49.7056L217.389 49.8636ZM252.116 49.8636L253.104 50.0216C253.15 49.7325 253.067 49.4376 252.877 49.2148C252.687 48.992 252.409 48.8636 252.116 48.8636V49.8636ZM251.389 54.4091V55.4091C251.88 55.4091 252.299 55.0522 252.377 54.5671L251.389 54.4091ZM235.116 83.5L236.103 83.6619L243.74 37.1164L242.753 36.9545L241.766 36.7926L234.13 83.3381L235.116 83.5ZM242.753 36.9545V37.9545H247.298V36.9545V35.9545H242.753V36.9545ZM247.298 36.9545L246.311 36.7926L238.675 83.3381L239.662 83.5L240.649 83.6619L248.285 37.1164L247.298 36.9545ZM239.662 83.5V82.5H235.116V83.5V84.5H239.662V83.5ZM213.935 70.5909L214.922 70.7489L215.649 66.2034L214.662 66.0455L213.674 65.8875L212.947 70.4329L213.935 70.5909ZM214.662 66.0455V67.0455H249.389V66.0455V65.0455H214.662V66.0455ZM249.389 66.0455L248.402 65.8875L247.674 70.4329L248.662 70.5909L249.649 70.7489L250.377 66.2034L249.389 66.0455ZM248.662 70.5909V69.5909H213.935V70.5909V71.5909H248.662V70.5909ZM218.753 83.5L219.74 83.6619L227.376 37.1164L226.389 36.9545L225.402 36.7926L217.766 83.3381L218.753 83.5ZM226.389 36.9545V37.9545H230.935V36.9545V35.9545H226.389V36.9545ZM230.935 36.9545L229.948 36.7926L222.311 83.3381L223.298 83.5L224.285 83.6619L231.921 37.1164L230.935 36.9545ZM223.298 83.5V82.5H218.753V83.5V84.5H223.298V83.5ZM216.662 54.4091L217.649 54.5671L218.377 50.0216L217.389 49.8636L216.402 49.7056L215.674 54.2511L216.662 54.4091ZM217.389 49.8636V50.8636H252.116V49.8636V48.8636H217.389V49.8636ZM252.116 49.8636L251.129 49.7056L250.402 54.2511L251.389 54.4091L252.377 54.5671L253.104 50.0216L252.116 49.8636ZM251.389 54.4091V53.4091H216.662V54.4091V55.4091H251.389V54.4091ZM258.037 83.5H257.037C257.037 84.0523 257.485 84.5 258.037 84.5V83.5ZM258.037 79.4091L257.299 78.7346C257.13 78.9189 257.037 79.1595 257.037 79.4091H258.037ZM273.401 62.5909L272.663 61.9157L272.662 61.9165L273.401 62.5909ZM277.855 57.4545L278.635 58.0802L278.638 58.0763L277.855 57.4545ZM280.446 53.3182L279.531 52.914L279.529 52.9191L280.446 53.3182ZM280.128 44.9773L279.288 45.5197L279.293 45.5271L280.128 44.9773ZM276.946 42.2045L277.381 41.3041V41.3041L276.946 42.2045ZM267.719 42.3409L268.202 43.2165L268.205 43.2146L267.719 42.3409ZM264.651 45.4091L263.775 44.926L263.771 44.9338L264.651 45.4091ZM263.582 50.0455V51.0455C264.135 51.0455 264.582 50.5977 264.582 50.0455H263.582ZM258.219 50.0455H257.219C257.219 50.5977 257.666 51.0455 258.219 51.0455V50.0455ZM260.105 42.8636L260.959 43.3846V43.3846L260.105 42.8636ZM265.241 38.0455L264.775 37.1611L264.772 37.1624L265.241 38.0455ZM279.832 38.0455L280.312 37.168V37.168L279.832 38.0455ZM284.787 42.7045L283.934 43.2268L284.787 42.7045ZM285.651 54.25L284.716 53.8951L284.714 53.8998L285.651 54.25ZM282.469 59.6818L281.672 59.078L281.671 59.0789L282.469 59.6818ZM276.219 66.9545L276.949 67.6375L276.951 67.636L276.219 66.9545ZM265.764 78.1364L265.034 77.4534C264.861 77.6386 264.764 77.8828 264.764 78.1364H265.764ZM265.764 78.5H264.764C264.764 79.0523 265.212 79.5 265.764 79.5V78.5ZM287.401 78.5H288.401C288.401 77.9477 287.953 77.5 287.401 77.5V78.5ZM287.401 83.5V84.5C287.953 84.5 288.401 84.0523 288.401 83.5H287.401ZM258.037 83.5H259.037V79.4091H258.037H257.037V83.5H258.037ZM258.037 79.4091L258.775 80.0835L274.139 63.2654L273.401 62.5909L272.662 61.9165L257.299 78.7346L258.037 79.4091ZM273.401 62.5909L274.138 63.2661C275.95 61.2866 277.451 59.5572 278.635 58.0802L277.855 57.4545L277.075 56.8289C275.926 58.2609 274.457 59.9558 272.663 61.9157L273.401 62.5909ZM277.855 57.4545L278.638 58.0763C279.842 56.5598 280.758 55.1064 281.363 53.7173L280.446 53.3182L279.529 52.9191C279.013 54.1057 278.201 55.4099 277.072 56.8328L277.855 57.4545ZM280.446 53.3182L281.361 53.7223C281.993 52.292 282.31 50.7907 282.31 49.2273H281.31H280.31C280.31 50.5123 280.051 51.7383 279.531 52.914L280.446 53.3182ZM281.31 49.2273H282.31C282.31 47.424 281.873 45.81 280.963 44.4275L280.128 44.9773L279.293 45.5271C279.958 46.5385 280.31 47.7578 280.31 49.2273H281.31ZM280.128 44.9773L280.968 44.4349C280.09 43.0756 278.886 42.0313 277.381 41.3041L276.946 42.2045L276.511 43.105C277.703 43.6809 278.62 44.485 279.288 45.5196L280.128 44.9773ZM276.946 42.2045L277.381 41.3041C275.881 40.5794 274.214 40.2273 272.401 40.2273V41.2273V42.2273C273.95 42.2273 275.314 42.5266 276.511 43.105L276.946 42.2045ZM272.401 41.2273V40.2273C270.472 40.2273 268.738 40.6288 267.232 41.4672L267.719 42.3409L268.205 43.2146C269.366 42.5682 270.754 42.2273 272.401 42.2273V41.2273ZM267.719 42.3409L267.236 41.4653C265.752 42.2838 264.593 43.4426 263.775 44.926L264.651 45.4091L265.526 45.8922C266.162 44.7392 267.049 43.8526 268.202 43.2165L267.719 42.3409ZM264.651 45.4091L263.771 44.9338C262.966 46.4226 262.582 48.1372 262.582 50.0455H263.582H264.582C264.582 48.4083 264.91 47.032 265.53 45.8844L264.651 45.4091ZM263.582 50.0455V49.0455H258.219V50.0455V51.0455H263.582V50.0455ZM258.219 50.0455H259.219C259.219 47.4776 259.809 45.2687 260.959 43.3846L260.105 42.8636L259.252 42.3427C257.886 44.5798 257.219 47.1588 257.219 50.0455H258.219ZM260.105 42.8636L260.959 43.3846C262.121 41.4795 263.7 39.9974 265.711 38.9285L265.241 38.0455L264.772 37.1624C262.45 38.3966 260.604 40.1265 259.252 42.3427L260.105 42.8636ZM265.241 38.0455L265.708 38.9298C267.732 37.8616 270.016 37.3182 272.582 37.3182V36.3182V35.3182C269.724 35.3182 267.114 35.9263 264.775 37.1611L265.241 38.0455ZM272.582 36.3182V37.3182C275.165 37.3182 277.413 37.8622 279.353 38.9229L279.832 38.0455L280.312 37.168C278.04 35.9257 275.454 35.3182 272.582 35.3182V36.3182ZM279.832 38.0455L279.353 38.9229C281.313 39.9947 282.833 41.4283 283.934 43.2268L284.787 42.7045L285.64 42.1823C284.347 40.0717 282.564 38.3992 280.312 37.168L279.832 38.0455ZM284.787 42.7045L283.934 43.2268C285.03 45.017 285.582 47.0091 285.582 49.2273H286.582H287.582C287.582 46.6576 286.937 44.3012 285.64 42.1823L284.787 42.7045ZM286.582 49.2273H285.582C285.582 50.8154 285.295 52.3695 284.716 53.8951L285.651 54.25L286.585 54.6049C287.249 52.8577 287.582 51.0634 287.582 49.2273H286.582ZM285.651 54.25L284.714 53.8998C284.153 55.3994 283.152 57.1238 281.672 59.078L282.469 59.6818L283.266 60.2857C284.816 58.2398 285.936 56.343 286.587 54.6002L285.651 54.25ZM282.469 59.6818L281.671 59.0789C280.2 61.0256 278.142 63.422 275.487 66.2731L276.219 66.9545L276.951 67.636C279.629 64.7598 281.738 62.3077 283.267 60.2847L282.469 59.6818ZM276.219 66.9545L275.488 66.2716L265.034 77.4534L265.764 78.1364L266.495 78.8193L276.949 67.6375L276.219 66.9545ZM265.764 78.1364H264.764V78.5H265.764H266.764V78.1364H265.764ZM265.764 78.5V79.5H287.401V78.5V77.5H265.764V78.5ZM287.401 78.5H286.401V83.5H287.401H288.401V78.5H287.401ZM287.401 83.5V82.5H258.037V83.5V84.5H287.401V83.5Z" fill="url(#paint4_linear_2681_9545)" mask="url(#path-2-outside-1_2681_9545)"/>
</g>
<defs>
<filter id="filter0_dddd_2681_9545" x="8.3949" y="31.3182" width="300.006" height="123.909" filterUnits="userSpaceOnUse" color-interpolation-filters="sRGB">
<feFlood flood-opacity="0" result="BackgroundImageFix"/>
<feColorMatrix in="SourceAlpha" type="matrix" values="0 0 0 0 0 0 0 0 0 0 0 0 0 0 0 0 0 0 127 0" result="hardAlpha"/>
<feOffset dy="3"/>
<feGaussianBlur stdDeviation="3.5"/>
<feColorMatrix type="matrix" values="0 0 0 0 0 0 0 0 0 0 0 0 0 0 0 0 0 0 0.1 0"/>
<feBlend mode="normal" in2="BackgroundImageFix" result="effect1_dropShadow_2681_9545"/>
<feColorMatrix in="SourceAlpha" type="matrix" values="0 0 0 0 0 0 0 0 0 0 0 0 0 0 0 0 0 0 127 0" result="hardAlpha"/>
<feOffset dy="13"/>
<feGaussianBlur stdDeviation="6.5"/>
<feColorMatrix type="matrix" values="0 0 0 0 0 0 0 0 0 0 0 0 0 0 0 0 0 0 0.09 0"/>
<feBlend mode="normal" in2="effect1_dropShadow_2681_9545" result="effect2_dropShadow_2681_9545"/>
<feColorMatrix in="SourceAlpha" type="matrix" values="0 0 0 0 0 0 0 0 0 0 0 0 0 0 0 0 0 0 127 0" result="hardAlpha"/>
<feOffset dy="28"/>
<feGaussianBlur stdDeviation="8.5"/>
<feColorMatrix type="matrix" values="0 0 0 0 0 0 0 0 0 0 0 0 0 0 0 0 0 0 0.05 0"/>
<feBlend mode="normal" in2="effect2_dropShadow_2681_9545" result="effect3_dropShadow_2681_9545"/>
<feColorMatrix in="SourceAlpha" type="matrix" values="0 0 0 0 0 0 0 0 0 0 0 0 0 0 0 0 0 0 127 0" result="hardAlpha"/>
<feOffset dy="50"/>
<feGaussianBlur stdDeviation="10"/>
<feColorMatrix type="matrix" values="0 0 0 0 0 0 0 0 0 0 0 0 0 0 0 0 0 0 0.02 0"/>
<feBlend mode="normal" in2="effect3_dropShadow_2681_9545" result="effect4_dropShadow_2681_9545"/>
<feBlend mode="normal" in="SourceGraphic" in2="effect4_dropShadow_2681_9545" result="shape"/>
</filter>
<radialGradient id="paint0_radial_2681_9545" cx="0" cy="0" r="1" gradientUnits="userSpaceOnUse" gradientTransform="translate(160 -1.56405e-06) rotate(90) scale(120 320)">
<stop stop-color="#5DE000"/>
<stop offset="1" stop-color="#00B658"/>
</radialGradient>
<radialGradient id="paint1_radial_2681_9545" cx="0" cy="0" r="1" gradientUnits="userSpaceOnUse" gradientTransform="translate(160) rotate(90) scale(120 160)">
<stop stop-color="white"/>
<stop offset="1" stop-color="white" stop-opacity="0"/>
</radialGradient>
<radialGradient id="paint2_radial_2681_9545" cx="0" cy="0" r="1" gradientUnits="userSpaceOnUse" gradientTransform="translate(160) rotate(90) scale(120 197.016)">
<stop stop-color="#D3FF73"/>
<stop offset="1" stop-color="#D3FF73" stop-opacity="0"/>
</radialGradient>
<linearGradient id="paint3_linear_2681_9545" x1="160" y1="83.5" x2="160" y2="36.4399" gradientUnits="userSpaceOnUse">
<stop stop-color="white"/>
<stop offset="1" stop-color="white" stop-opacity="0.6"/>
</linearGradient>
<linearGradient id="paint4_linear_2681_9545" x1="160" y1="38.9022" x2="160" y2="98.5" gradientUnits="userSpaceOnUse">
<stop stop-color="white"/>
<stop offset="0.75" stop-color="white" stop-opacity="0"/>
</linearGradient>
</defs>
</svg>
