<svg width="336" height="158" viewBox="0 0 336 158" fill="none" xmlns="http://www.w3.org/2000/svg">
<g filter="url(#filter0_dddd_2681_9545)">
<path d="M8 26C8 12.7452 18.7452 2 32 2H304C317.255 2 328 12.7452 328 26V98C328 111.255 317.255 122 304 122H32C18.7452 122 8 111.255 8 98V26Z" fill="url(#paint0_radial_2681_9545)"/>
<path d="M8 26C8 12.7452 18.7452 2 32 2H304C317.255 2 328 12.7452 328 26V98C328 111.255 317.255 122 304 122H32C18.7452 122 8 111.255 8 98V26Z" fill="url(#paint1_radial_2681_9545)" fill-opacity="0.4"/>
<path d="M32 4H304C316.15 4 326 13.8497 326 26V98C326 110.15 316.15 120 304 120H32C19.8497 120 10 110.15 10 98V26C10 13.8497 19.8497 4 32 4Z" stroke="url(#paint2_radial_2681_9545)" stroke-width="4"/>
<g filter="url(#filter1_dddd_2681_9545)">
<mask id="path-3-outside-1_2681_9545" maskUnits="userSpaceOnUse" x="36" y="36.5" width="261" height="51" fill="black">
<rect fill="white" x="36" y="36.5" width="261" height="51"/>
<path d="M50.1222 85.5L37.3949 38.9545H43.1222L52.8494 76.8636H53.304L63.2131 38.9545H69.5767L79.4858 76.8636H79.9403L89.6676 38.9545H95.3949L82.6676 85.5H76.8494L66.5767 48.4091H66.2131L55.9403 85.5H50.1222ZM113.077 86.2273C109.713 86.2273 106.812 85.4848 104.372 84C101.948 82.5 100.077 80.4091 98.7585 77.7273C97.4555 75.0303 96.804 71.8939 96.804 68.3182C96.804 64.7424 97.4555 61.5909 98.7585 58.8636C100.077 56.1212 101.91 53.9848 104.259 52.4545C106.622 50.9091 109.38 50.1364 112.531 50.1364C114.349 50.1364 116.145 50.4394 117.918 51.0455C119.69 51.6515 121.304 52.6364 122.759 54C124.213 55.3485 125.372 57.1364 126.236 59.3636C127.099 61.5909 127.531 64.3333 127.531 67.5909V69.8636H100.622V65.2273H122.077C122.077 63.2576 121.683 61.5 120.895 59.9545C120.122 58.4091 119.016 57.1894 117.577 56.2955C116.152 55.4015 114.471 54.9545 112.531 54.9545C110.395 54.9545 108.546 55.4848 106.986 56.5455C105.44 57.5909 104.251 58.9545 103.418 60.6364C102.584 62.3182 102.168 64.1212 102.168 66.0455V69.1364C102.168 71.7727 102.622 74.0076 103.531 75.8409C104.455 77.6591 105.736 79.0455 107.372 80C109.009 80.9394 110.91 81.4091 113.077 81.4091C114.486 81.4091 115.759 81.2121 116.895 80.8182C118.046 80.4091 119.039 79.803 119.872 79C120.705 78.1818 121.349 77.1667 121.804 75.9545L126.986 77.4091C126.44 79.1667 125.524 80.7121 124.236 82.0455C122.948 83.3636 121.357 84.3939 119.463 85.1364C117.569 85.8636 115.44 86.2273 113.077 86.2273ZM150.327 86.2273C146.963 86.2273 144.062 85.4848 141.622 84C139.198 82.5 137.327 80.4091 136.009 77.7273C134.705 75.0303 134.054 71.8939 134.054 68.3182C134.054 64.7424 134.705 61.5909 136.009 58.8636C137.327 56.1212 139.16 53.9848 141.509 52.4545C143.872 50.9091 146.63 50.1364 149.781 50.1364C151.599 50.1364 153.395 50.4394 155.168 51.0455C156.94 51.6515 158.554 52.6364 160.009 54C161.463 55.3485 162.622 57.1364 163.486 59.3636C164.349 61.5909 164.781 64.3333 164.781 67.5909V69.8636H137.872V65.2273H159.327C159.327 63.2576 158.933 61.5 158.145 59.9545C157.372 58.4091 156.266 57.1894 154.827 56.2955C153.402 55.4015 151.721 54.9545 149.781 54.9545C147.645 54.9545 145.796 55.4848 144.236 56.5455C142.69 57.5909 141.501 58.9545 140.668 60.6364C139.834 62.3182 139.418 64.1212 139.418 66.0455V69.1364C139.418 71.7727 139.872 74.0076 140.781 75.8409C141.705 77.6591 142.986 79.0455 144.622 80C146.259 80.9394 148.16 81.4091 150.327 81.4091C151.736 81.4091 153.009 81.2121 154.145 80.8182C155.296 80.4091 156.289 79.803 157.122 79C157.955 78.1818 158.599 77.1667 159.054 75.9545L164.236 77.4091C163.69 79.1667 162.774 80.7121 161.486 82.0455C160.198 83.3636 158.607 84.3939 156.713 85.1364C154.819 85.8636 152.69 86.2273 150.327 86.2273ZM177.94 72.7727L177.849 66.1364H178.94L194.213 50.5909H200.849L184.577 67.0455H184.122L177.94 72.7727ZM172.94 85.5V38.9545H178.304V85.5H172.94ZM195.122 85.5L181.486 68.2273L185.304 64.5L201.94 85.5H195.122ZM243.116 85.5L250.753 38.9545H255.298L247.662 85.5H243.116ZM221.935 72.5909L222.662 68.0455H257.389L256.662 72.5909H221.935ZM226.753 85.5L234.389 38.9545H238.935L231.298 85.5H226.753ZM224.662 56.4091L225.389 51.8636H260.116L259.389 56.4091H224.662ZM266.037 85.5V81.4091L281.401 64.5909C283.204 62.6212 284.688 60.9091 285.855 59.4545C287.022 57.9848 287.885 56.6061 288.446 55.3182C289.022 54.0152 289.31 52.6515 289.31 51.2273C289.31 49.5909 288.916 48.1742 288.128 46.9773C287.355 45.7803 286.295 44.8561 284.946 44.2045C283.598 43.553 282.082 43.2273 280.401 43.2273C278.613 43.2273 277.052 43.5985 275.719 44.3409C274.401 45.0682 273.378 46.0909 272.651 47.4091C271.938 48.7273 271.582 50.2727 271.582 52.0455H266.219C266.219 49.3182 266.848 46.9242 268.105 44.8636C269.363 42.803 271.075 41.197 273.241 40.0455C275.423 38.8939 277.87 38.3182 280.582 38.3182C283.31 38.3182 285.726 38.8939 287.832 40.0455C289.938 41.197 291.59 42.75 292.787 44.7045C293.984 46.6591 294.582 48.8333 294.582 51.2273C294.582 52.9394 294.272 54.6136 293.651 56.25C293.045 57.8712 291.984 59.6818 290.469 61.6818C288.969 63.6667 286.885 66.0909 284.219 68.9545L273.764 80.1364V80.5H295.401V85.5H266.037Z"/>
</mask>
<path d="M50.1222 85.5L37.3949 38.9545H43.1222L52.8494 76.8636H53.304L63.2131 38.9545H69.5767L79.4858 76.8636H79.9403L89.6676 38.9545H95.3949L82.6676 85.5H76.8494L66.5767 48.4091H66.2131L55.9403 85.5H50.1222ZM113.077 86.2273C109.713 86.2273 106.812 85.4848 104.372 84C101.948 82.5 100.077 80.4091 98.7585 77.7273C97.4555 75.0303 96.804 71.8939 96.804 68.3182C96.804 64.7424 97.4555 61.5909 98.7585 58.8636C100.077 56.1212 101.91 53.9848 104.259 52.4545C106.622 50.9091 109.38 50.1364 112.531 50.1364C114.349 50.1364 116.145 50.4394 117.918 51.0455C119.69 51.6515 121.304 52.6364 122.759 54C124.213 55.3485 125.372 57.1364 126.236 59.3636C127.099 61.5909 127.531 64.3333 127.531 67.5909V69.8636H100.622V65.2273H122.077C122.077 63.2576 121.683 61.5 120.895 59.9545C120.122 58.4091 119.016 57.1894 117.577 56.2955C116.152 55.4015 114.471 54.9545 112.531 54.9545C110.395 54.9545 108.546 55.4848 106.986 56.5455C105.44 57.5909 104.251 58.9545 103.418 60.6364C102.584 62.3182 102.168 64.1212 102.168 66.0455V69.1364C102.168 71.7727 102.622 74.0076 103.531 75.8409C104.455 77.6591 105.736 79.0455 107.372 80C109.009 80.9394 110.91 81.4091 113.077 81.4091C114.486 81.4091 115.759 81.2121 116.895 80.8182C118.046 80.4091 119.039 79.803 119.872 79C120.705 78.1818 121.349 77.1667 121.804 75.9545L126.986 77.4091C126.44 79.1667 125.524 80.7121 124.236 82.0455C122.948 83.3636 121.357 84.3939 119.463 85.1364C117.569 85.8636 115.44 86.2273 113.077 86.2273ZM150.327 86.2273C146.963 86.2273 144.062 85.4848 141.622 84C139.198 82.5 137.327 80.4091 136.009 77.7273C134.705 75.0303 134.054 71.8939 134.054 68.3182C134.054 64.7424 134.705 61.5909 136.009 58.8636C137.327 56.1212 139.16 53.9848 141.509 52.4545C143.872 50.9091 146.63 50.1364 149.781 50.1364C151.599 50.1364 153.395 50.4394 155.168 51.0455C156.94 51.6515 158.554 52.6364 160.009 54C161.463 55.3485 162.622 57.1364 163.486 59.3636C164.349 61.5909 164.781 64.3333 164.781 67.5909V69.8636H137.872V65.2273H159.327C159.327 63.2576 158.933 61.5 158.145 59.9545C157.372 58.4091 156.266 57.1894 154.827 56.2955C153.402 55.4015 151.721 54.9545 149.781 54.9545C147.645 54.9545 145.796 55.4848 144.236 56.5455C142.69 57.5909 141.501 58.9545 140.668 60.6364C139.834 62.3182 139.418 64.1212 139.418 66.0455V69.1364C139.418 71.7727 139.872 74.0076 140.781 75.8409C141.705 77.6591 142.986 79.0455 144.622 80C146.259 80.9394 148.16 81.4091 150.327 81.4091C151.736 81.4091 153.009 81.2121 154.145 80.8182C155.296 80.4091 156.289 79.803 157.122 79C157.955 78.1818 158.599 77.1667 159.054 75.9545L164.236 77.4091C163.69 79.1667 162.774 80.7121 161.486 82.0455C160.198 83.3636 158.607 84.3939 156.713 85.1364C154.819 85.8636 152.69 86.2273 150.327 86.2273ZM177.94 72.7727L177.849 66.1364H178.94L194.213 50.5909H200.849L184.577 67.0455H184.122L177.94 72.7727ZM172.94 85.5V38.9545H178.304V85.5H172.94ZM195.122 85.5L181.486 68.2273L185.304 64.5L201.94 85.5H195.122ZM243.116 85.5L250.753 38.9545H255.298L247.662 85.5H243.116ZM221.935 72.5909L222.662 68.0455H257.389L256.662 72.5909H221.935ZM226.753 85.5L234.389 38.9545H238.935L231.298 85.5H226.753ZM224.662 56.4091L225.389 51.8636H260.116L259.389 56.4091H224.662ZM266.037 85.5V81.4091L281.401 64.5909C283.204 62.6212 284.688 60.9091 285.855 59.4545C287.022 57.9848 287.885 56.6061 288.446 55.3182C289.022 54.0152 289.31 52.6515 289.31 51.2273C289.31 49.5909 288.916 48.1742 288.128 46.9773C287.355 45.7803 286.295 44.8561 284.946 44.2045C283.598 43.553 282.082 43.2273 280.401 43.2273C278.613 43.2273 277.052 43.5985 275.719 44.3409C274.401 45.0682 273.378 46.0909 272.651 47.4091C271.938 48.7273 271.582 50.2727 271.582 52.0455H266.219C266.219 49.3182 266.848 46.9242 268.105 44.8636C269.363 42.803 271.075 41.197 273.241 40.0455C275.423 38.8939 277.87 38.3182 280.582 38.3182C283.31 38.3182 285.726 38.8939 287.832 40.0455C289.938 41.197 291.59 42.75 292.787 44.7045C293.984 46.6591 294.582 48.8333 294.582 51.2273C294.582 52.9394 294.272 54.6136 293.651 56.25C293.045 57.8712 291.984 59.6818 290.469 61.6818C288.969 63.6667 286.885 66.0909 284.219 68.9545L273.764 80.1364V80.5H295.401V85.5H266.037Z" fill="url(#paint3_linear_2681_9545)"/>
<path d="M50.1222 85.5L49.1576 85.7638C49.2764 86.1985 49.6715 86.5 50.1222 86.5V85.5ZM37.3949 38.9545V37.9545C37.0831 37.9545 36.7892 38.1 36.6 38.3478C36.4108 38.5957 36.3481 38.9176 36.4303 39.2183L37.3949 38.9545ZM43.1222 38.9545L44.0908 38.706C43.9773 38.2638 43.5787 37.9545 43.1222 37.9545V38.9545ZM52.8494 76.8636L51.8808 77.1122C51.9943 77.5544 52.3929 77.8636 52.8494 77.8636V76.8636ZM53.304 76.8636V77.8636C53.7589 77.8636 54.1564 77.5566 54.2715 77.1165L53.304 76.8636ZM63.2131 38.9545V37.9545C62.7582 37.9545 62.3606 38.2616 62.2456 38.7016L63.2131 38.9545ZM69.5767 38.9545L70.5442 38.7016C70.4292 38.2616 70.0316 37.9545 69.5767 37.9545V38.9545ZM79.4858 76.8636L78.5183 77.1165C78.6333 77.5566 79.0309 77.8636 79.4858 77.8636V76.8636ZM79.9403 76.8636V77.8636C80.3969 77.8636 80.7955 77.5544 80.909 77.1122L79.9403 76.8636ZM89.6676 38.9545V37.9545C89.2111 37.9545 88.8125 38.2638 88.699 38.706L89.6676 38.9545ZM95.3949 38.9545L96.3595 39.2183C96.4417 38.9176 96.379 38.5957 96.1898 38.3478C96.0006 38.1 95.7067 37.9545 95.3949 37.9545V38.9545ZM82.6676 85.5V86.5C83.1183 86.5 83.5133 86.1985 83.6322 85.7638L82.6676 85.5ZM76.8494 85.5L75.8857 85.7669C76.0057 86.2001 76.3999 86.5 76.8494 86.5V85.5ZM66.5767 48.4091L67.5404 48.1422C67.4205 47.709 67.0262 47.4091 66.5767 47.4091V48.4091ZM66.2131 48.4091V47.4091C65.7636 47.4091 65.3693 47.709 65.2493 48.1422L66.2131 48.4091ZM55.9403 85.5V86.5C56.3898 86.5 56.7841 86.2001 56.9041 85.7669L55.9403 85.5ZM50.1222 85.5L51.0868 85.2362L38.3595 38.6908L37.3949 38.9545L36.4303 39.2183L49.1576 85.7638L50.1222 85.5ZM37.3949 38.9545V39.9545H43.1222V38.9545V37.9545H37.3949V38.9545ZM43.1222 38.9545L42.1535 39.2031L51.8808 77.1122L52.8494 76.8636L53.8181 76.6151L44.0908 38.706L43.1222 38.9545ZM52.8494 76.8636V77.8636H53.304V76.8636V75.8636H52.8494V76.8636ZM53.304 76.8636L54.2715 77.1165L64.1806 39.2074L63.2131 38.9545L62.2456 38.7016L52.3365 76.6107L53.304 76.8636ZM63.2131 38.9545V39.9545H69.5767V38.9545V37.9545H63.2131V38.9545ZM69.5767 38.9545L68.6092 39.2074L78.5183 77.1165L79.4858 76.8636L80.4533 76.6107L70.5442 38.7016L69.5767 38.9545ZM79.4858 76.8636V77.8636H79.9403V76.8636V75.8636H79.4858V76.8636ZM79.9403 76.8636L80.909 77.1122L90.6362 39.2031L89.6676 38.9545L88.699 38.706L78.9717 76.6151L79.9403 76.8636ZM89.6676 38.9545V39.9545H95.3949V38.9545V37.9545H89.6676V38.9545ZM95.3949 38.9545L94.4303 38.6908L81.703 85.2362L82.6676 85.5L83.6322 85.7638L96.3595 39.2183L95.3949 38.9545ZM82.6676 85.5V84.5H76.8494V85.5V86.5H82.6676V85.5ZM76.8494 85.5L77.8132 85.2331L67.5404 48.1422L66.5767 48.4091L65.613 48.676L75.8857 85.7669L76.8494 85.5ZM66.5767 48.4091V47.4091H66.2131V48.4091V49.4091H66.5767V48.4091ZM66.2131 48.4091L65.2493 48.1422L54.9766 85.2331L55.9403 85.5L56.9041 85.7669L67.1768 48.676L66.2131 48.4091ZM55.9403 85.5V84.5H50.1222V85.5V86.5H55.9403V85.5ZM104.372 84L103.846 84.8504L103.852 84.8542L104.372 84ZM98.7585 77.7273L97.8581 78.1623L97.8611 78.1684L98.7585 77.7273ZM98.7585 58.8636L97.8572 58.4304L97.8562 58.4325L98.7585 58.8636ZM104.259 52.4545L104.804 53.2924L104.806 53.2915L104.259 52.4545ZM117.918 51.0455L118.241 50.0992V50.0992L117.918 51.0455ZM122.759 54L122.075 54.7295L122.079 54.7333L122.759 54ZM126.236 59.3636L127.168 59.0021V59.0021L126.236 59.3636ZM127.531 69.8636V70.8636C128.084 70.8636 128.531 70.4159 128.531 69.8636H127.531ZM100.622 69.8636H99.6222C99.6222 70.4159 100.07 70.8636 100.622 70.8636V69.8636ZM100.622 65.2273V64.2273C100.07 64.2273 99.6222 64.675 99.6222 65.2273H100.622ZM122.077 65.2273V66.2273C122.629 66.2273 123.077 65.7796 123.077 65.2273H122.077ZM120.895 59.9545L120 60.4018L120.004 60.4087L120.895 59.9545ZM117.577 56.2955L117.045 57.1424L117.049 57.145L117.577 56.2955ZM106.986 56.5455L107.546 57.3737L107.548 57.3725L106.986 56.5455ZM103.418 60.6364L102.522 60.1924V60.1924L103.418 60.6364ZM103.531 75.8409L102.635 76.2852L102.64 76.2941L103.531 75.8409ZM107.372 80L106.868 80.8638L106.874 80.8673L107.372 80ZM116.895 80.8182L117.222 81.763L117.23 81.7605L116.895 80.8182ZM119.872 79L120.566 79.7201L120.573 79.7136L119.872 79ZM121.804 75.9545L122.074 74.9918C121.574 74.8514 121.05 75.1172 120.868 75.6034L121.804 75.9545ZM126.986 77.4091L127.941 77.7055C128.021 77.4477 127.993 77.1685 127.864 76.9313C127.735 76.6942 127.516 76.5193 127.256 76.4463L126.986 77.4091ZM124.236 82.0455L124.951 82.7443L124.955 82.7402L124.236 82.0455ZM119.463 85.1364L119.822 86.0699L119.828 86.0674L119.463 85.1364ZM113.077 86.2273V85.2273C109.863 85.2273 107.149 84.5195 104.892 83.1458L104.372 84L103.852 84.8542C106.474 86.4502 109.563 87.2273 113.077 87.2273V86.2273ZM104.372 84L104.898 83.1496C102.642 81.7533 100.895 79.8079 99.656 77.2862L98.7585 77.7273L97.8611 78.1684C99.2579 81.0103 101.254 83.2467 103.846 84.8504L104.372 84ZM98.7585 77.7273L99.6589 77.2922C98.4329 74.7547 97.804 71.7722 97.804 68.3182H96.804H95.804C95.804 72.0157 96.478 75.3059 97.8581 78.1623L98.7585 77.7273ZM96.804 68.3182H97.804C97.804 64.8646 98.4328 61.8649 99.6608 59.2947L98.7585 58.8636L97.8562 58.4325C96.4781 61.3169 95.804 64.6203 95.804 68.3182H96.804ZM98.7585 58.8636L99.6598 59.2969C100.906 56.7047 102.622 54.7143 104.804 53.2924L104.259 52.4545L103.713 51.6167C101.198 53.2553 99.2476 55.5378 97.8572 58.4304L98.7585 58.8636ZM104.259 52.4545L104.806 53.2915C106.988 51.8645 109.551 51.1364 112.531 51.1364V50.1364V49.1364C109.209 49.1364 106.256 49.9537 103.711 51.6176L104.259 52.4545ZM112.531 50.1364V51.1364C114.236 51.1364 115.922 51.4201 117.594 51.9917L117.918 51.0455L118.241 50.0992C116.367 49.4587 114.463 49.1364 112.531 49.1364V50.1364ZM117.918 51.0455L117.594 51.9917C119.224 52.549 120.717 53.4565 122.075 54.7295L122.759 54L123.442 53.2705C121.891 51.8162 120.156 50.7541 118.241 50.0992L117.918 51.0455ZM122.759 54L122.079 54.7333C123.401 55.9597 124.484 57.6108 125.303 59.7252L126.236 59.3636L127.168 59.0021C126.261 56.6619 125.025 54.7373 123.438 53.2667L122.759 54ZM126.236 59.3636L125.303 59.7252C126.109 61.8036 126.531 64.415 126.531 67.5909H127.531H128.531C128.531 64.2517 128.09 61.3783 127.168 59.0021L126.236 59.3636ZM127.531 67.5909H126.531V69.8636H127.531H128.531V67.5909H127.531ZM127.531 69.8636V68.8636H100.622V69.8636V70.8636H127.531V69.8636ZM100.622 69.8636H101.622V65.2273H100.622H99.6222V69.8636H100.622ZM100.622 65.2273V66.2273H122.077V65.2273V64.2273H100.622V65.2273ZM122.077 65.2273H123.077C123.077 63.1212 122.655 61.2045 121.786 59.5004L120.895 59.9545L120.004 60.4087C120.711 61.7955 121.077 63.3939 121.077 65.2273H122.077ZM120.895 59.9545L121.789 59.5073C120.936 57.7999 119.704 56.4395 118.104 55.446L117.577 56.2955L117.049 57.145C118.328 57.9393 119.309 59.0183 120 60.4018L120.895 59.9545ZM117.577 56.2955L118.108 55.4485C116.502 54.44 114.629 53.9545 112.531 53.9545V54.9545V55.9545C114.312 55.9545 115.803 56.3631 117.045 57.1424L117.577 56.2955ZM112.531 54.9545V53.9545C110.222 53.9545 108.171 54.5306 106.424 55.7184L106.986 56.5455L107.548 57.3725C108.921 56.4391 110.568 55.9545 112.531 55.9545V54.9545ZM106.986 56.5455L106.425 55.7172C104.736 56.8601 103.431 58.3566 102.522 60.1924L103.418 60.6364L104.314 61.0803C105.071 59.5525 106.145 58.3217 107.546 57.3737L106.986 56.5455ZM103.418 60.6364L102.522 60.1924C101.618 62.0158 101.168 63.9712 101.168 66.0455H102.168H103.168C103.168 64.2712 103.55 62.6206 104.314 61.0803L103.418 60.6364ZM102.168 66.0455H101.168V69.1364H102.168H103.168V66.0455H102.168ZM102.168 69.1364H101.168C101.168 71.8839 101.641 74.2798 102.635 76.2852L103.531 75.8409L104.427 75.3967C103.603 73.7353 103.168 71.6616 103.168 69.1364H102.168ZM103.531 75.8409L102.64 76.2941C103.644 78.2698 105.053 79.805 106.868 80.8638L107.372 80L107.876 79.1362C106.418 78.2859 105.267 77.0484 104.423 75.3878L103.531 75.8409ZM107.372 80L106.874 80.8673C108.683 81.9058 110.762 82.4091 113.077 82.4091V81.4091V80.4091C111.058 80.4091 109.334 79.973 107.87 79.1327L107.372 80ZM113.077 81.4091V82.4091C114.579 82.4091 115.964 82.1991 117.222 81.763L116.895 80.8182L116.567 79.8733C115.553 80.2251 114.393 80.4091 113.077 80.4091V81.4091ZM116.895 80.8182L117.23 81.7605C118.508 81.3064 119.624 80.6274 120.566 79.7201L119.872 79L119.178 78.2799C118.453 78.9787 117.585 79.5117 116.56 79.8759L116.895 80.8182ZM119.872 79L120.573 79.7136C121.521 78.7826 122.24 77.6394 122.74 76.3057L121.804 75.9545L120.868 75.6034C120.459 76.6939 119.89 77.5811 119.172 78.2864L119.872 79ZM121.804 75.9545L121.534 76.9173L126.716 78.3719L126.986 77.4091L127.256 76.4463L122.074 74.9918L121.804 75.9545ZM126.986 77.4091L126.031 77.1127C125.532 78.7197 124.697 80.129 123.517 81.3507L124.236 82.0455L124.955 82.7402C126.351 81.2952 127.349 79.6136 127.941 77.7055L126.986 77.4091ZM124.236 82.0455L123.521 81.3466C122.342 82.5534 120.874 83.5092 119.098 84.2053L119.463 85.1364L119.828 86.0674C121.84 85.2787 123.554 84.1739 124.951 82.7443L124.236 82.0455ZM119.463 85.1364L119.105 84.2028C117.342 84.8796 115.338 85.2273 113.077 85.2273V86.2273V87.2273C115.543 87.2273 117.796 86.8477 119.822 86.0699L119.463 85.1364ZM141.622 84L141.096 84.8504L141.102 84.8542L141.622 84ZM136.009 77.7273L135.108 78.1623L135.111 78.1684L136.009 77.7273ZM136.009 58.8636L135.107 58.4304L135.106 58.4325L136.009 58.8636ZM141.509 52.4545L142.054 53.2924L142.056 53.2915L141.509 52.4545ZM155.168 51.0455L155.491 50.0992V50.0992L155.168 51.0455ZM160.009 54L159.325 54.7295L159.329 54.7333L160.009 54ZM163.486 59.3636L164.418 59.0021V59.0021L163.486 59.3636ZM164.781 69.8636V70.8636C165.334 70.8636 165.781 70.4159 165.781 69.8636H164.781ZM137.872 69.8636H136.872C136.872 70.4159 137.32 70.8636 137.872 70.8636V69.8636ZM137.872 65.2273V64.2273C137.32 64.2273 136.872 64.675 136.872 65.2273H137.872ZM159.327 65.2273V66.2273C159.879 66.2273 160.327 65.7796 160.327 65.2273H159.327ZM158.145 59.9545L157.25 60.4018L157.254 60.4087L158.145 59.9545ZM154.827 56.2955L154.295 57.1424L154.299 57.145L154.827 56.2955ZM144.236 56.5455L144.796 57.3737L144.798 57.3725L144.236 56.5455ZM140.668 60.6364L139.772 60.1924V60.1924L140.668 60.6364ZM140.781 75.8409L139.885 76.2852L139.89 76.2941L140.781 75.8409ZM144.622 80L144.118 80.8638L144.124 80.8673L144.622 80ZM154.145 80.8182L154.472 81.763L154.48 81.7605L154.145 80.8182ZM157.122 79L157.816 79.7201L157.823 79.7136L157.122 79ZM159.054 75.9545L159.324 74.9918C158.824 74.8514 158.3 75.1172 158.118 75.6034L159.054 75.9545ZM164.236 77.4091L165.191 77.7055C165.271 77.4477 165.243 77.1685 165.114 76.9313C164.985 76.6942 164.766 76.5193 164.506 76.4463L164.236 77.4091ZM161.486 82.0455L162.201 82.7443L162.205 82.7402L161.486 82.0455ZM156.713 85.1364L157.072 86.0699L157.078 86.0674L156.713 85.1364ZM150.327 86.2273V85.2273C147.113 85.2273 144.399 84.5195 142.142 83.1458L141.622 84L141.102 84.8542C143.724 86.4502 146.813 87.2273 150.327 87.2273V86.2273ZM141.622 84L142.148 83.1496C139.892 81.7533 138.145 79.8079 136.906 77.2862L136.009 77.7273L135.111 78.1684C136.508 81.0103 138.504 83.2467 141.096 84.8504L141.622 84ZM136.009 77.7273L136.909 77.2922C135.683 74.7547 135.054 71.7722 135.054 68.3182H134.054H133.054C133.054 72.0157 133.728 75.3059 135.108 78.1623L136.009 77.7273ZM134.054 68.3182H135.054C135.054 64.8646 135.683 61.8649 136.911 59.2947L136.009 58.8636L135.106 58.4325C133.728 61.3169 133.054 64.6203 133.054 68.3182H134.054ZM136.009 58.8636L136.91 59.2969C138.156 56.7047 139.872 54.7143 142.054 53.2924L141.509 52.4545L140.963 51.6167C138.448 53.2553 136.498 55.5378 135.107 58.4304L136.009 58.8636ZM141.509 52.4545L142.056 53.2915C144.238 51.8645 146.801 51.1364 149.781 51.1364V50.1364V49.1364C146.459 49.1364 143.506 49.9537 140.961 51.6176L141.509 52.4545ZM149.781 50.1364V51.1364C151.486 51.1364 153.172 51.4201 154.844 51.9917L155.168 51.0455L155.491 50.0992C153.617 49.4587 151.713 49.1364 149.781 49.1364V50.1364ZM155.168 51.0455L154.844 51.9917C156.474 52.549 157.967 53.4565 159.325 54.7295L160.009 54L160.692 53.2705C159.141 51.8162 157.406 50.7541 155.491 50.0992L155.168 51.0455ZM160.009 54L159.329 54.7333C160.651 55.9597 161.734 57.6108 162.553 59.7252L163.486 59.3636L164.418 59.0021C163.511 56.6619 162.275 54.7373 160.688 53.2667L160.009 54ZM163.486 59.3636L162.553 59.7252C163.359 61.8036 163.781 64.415 163.781 67.5909H164.781H165.781C165.781 64.2517 165.34 61.3783 164.418 59.0021L163.486 59.3636ZM164.781 67.5909H163.781V69.8636H164.781H165.781V67.5909H164.781ZM164.781 69.8636V68.8636H137.872V69.8636V70.8636H164.781V69.8636ZM137.872 69.8636H138.872V65.2273H137.872H136.872V69.8636H137.872ZM137.872 65.2273V66.2273H159.327V65.2273V64.2273H137.872V65.2273ZM159.327 65.2273H160.327C160.327 63.1212 159.905 61.2045 159.036 59.5004L158.145 59.9545L157.254 60.4087C157.961 61.7955 158.327 63.3939 158.327 65.2273H159.327ZM158.145 59.9545L159.039 59.5073C158.186 57.7999 156.954 56.4395 155.354 55.446L154.827 56.2955L154.299 57.145C155.578 57.9393 156.559 59.0183 157.25 60.4018L158.145 59.9545ZM154.827 56.2955L155.358 55.4485C153.752 54.44 151.879 53.9545 149.781 53.9545V54.9545V55.9545C151.562 55.9545 153.053 56.3631 154.295 57.1424L154.827 56.2955ZM149.781 54.9545V53.9545C147.472 53.9545 145.421 54.5306 143.674 55.7184L144.236 56.5455L144.798 57.3725C146.171 56.4391 147.818 55.9545 149.781 55.9545V54.9545ZM144.236 56.5455L143.675 55.7172C141.986 56.8601 140.681 58.3566 139.772 60.1924L140.668 60.6364L141.564 61.0803C142.321 59.5525 143.395 58.3217 144.796 57.3737L144.236 56.5455ZM140.668 60.6364L139.772 60.1924C138.868 62.0158 138.418 63.9712 138.418 66.0455H139.418H140.418C140.418 64.2712 140.8 62.6206 141.564 61.0803L140.668 60.6364ZM139.418 66.0455H138.418V69.1364H139.418H140.418V66.0455H139.418ZM139.418 69.1364H138.418C138.418 71.8839 138.891 74.2798 139.885 76.2852L140.781 75.8409L141.677 75.3967C140.853 73.7353 140.418 71.6616 140.418 69.1364H139.418ZM140.781 75.8409L139.89 76.2941C140.894 78.2698 142.303 79.805 144.118 80.8638L144.622 80L145.126 79.1362C143.668 78.2859 142.517 77.0484 141.673 75.3878L140.781 75.8409ZM144.622 80L144.124 80.8673C145.933 81.9058 148.012 82.4091 150.327 82.4091V81.4091V80.4091C148.308 80.4091 146.584 79.973 145.12 79.1327L144.622 80ZM150.327 81.4091V82.4091C151.829 82.4091 153.214 82.1991 154.472 81.763L154.145 80.8182L153.817 79.8733C152.803 80.2251 151.643 80.4091 150.327 80.4091V81.4091ZM154.145 80.8182L154.48 81.7605C155.758 81.3064 156.874 80.6274 157.816 79.7201L157.122 79L156.428 78.2799C155.703 78.9787 154.835 79.5117 153.81 79.8759L154.145 80.8182ZM157.122 79L157.823 79.7136C158.771 78.7826 159.49 77.6394 159.99 76.3057L159.054 75.9545L158.118 75.6034C157.709 76.6939 157.14 77.5811 156.422 78.2864L157.122 79ZM159.054 75.9545L158.784 76.9173L163.966 78.3719L164.236 77.4091L164.506 76.4463L159.324 74.9918L159.054 75.9545ZM164.236 77.4091L163.281 77.1127C162.782 78.7197 161.947 80.129 160.767 81.3507L161.486 82.0455L162.205 82.7402C163.601 81.2952 164.599 79.6136 165.191 77.7055L164.236 77.4091ZM161.486 82.0455L160.771 81.3466C159.592 82.5534 158.124 83.5092 156.348 84.2053L156.713 85.1364L157.078 86.0674C159.09 85.2787 160.804 84.1739 162.201 82.7443L161.486 82.0455ZM156.713 85.1364L156.355 84.2028C154.592 84.8796 152.588 85.2273 150.327 85.2273V86.2273V87.2273C152.793 87.2273 155.046 86.8477 157.072 86.0699L156.713 85.1364ZM177.94 72.7727L176.94 72.7864C176.946 73.1814 177.183 73.5362 177.546 73.6919C177.909 73.8475 178.33 73.7748 178.62 73.5063L177.94 72.7727ZM177.849 66.1364V65.1364C177.582 65.1364 177.325 65.2436 177.137 65.4341C176.95 65.6246 176.846 65.8825 176.85 66.1501L177.849 66.1364ZM178.94 66.1364V67.1364C179.209 67.1364 179.466 67.0286 179.654 66.8372L178.94 66.1364ZM194.213 50.5909V49.5909C193.945 49.5909 193.688 49.6987 193.5 49.8901L194.213 50.5909ZM200.849 50.5909L201.56 51.2941C201.844 51.0072 201.928 50.578 201.772 50.2057C201.617 49.8334 201.253 49.5909 200.849 49.5909V50.5909ZM184.577 67.0455V68.0455C184.844 68.0455 185.1 67.9386 185.288 67.7486L184.577 67.0455ZM184.122 67.0455V66.0455C183.87 66.0455 183.627 66.1406 183.443 66.3119L184.122 67.0455ZM172.94 85.5H171.94C171.94 86.0523 172.388 86.5 172.94 86.5V85.5ZM172.94 38.9545V37.9545C172.388 37.9545 171.94 38.4023 171.94 38.9545H172.94ZM178.304 38.9545H179.304C179.304 38.4023 178.856 37.9545 178.304 37.9545V38.9545ZM178.304 85.5V86.5C178.856 86.5 179.304 86.0523 179.304 85.5H178.304ZM195.122 85.5L194.337 86.1196C194.527 86.3599 194.816 86.5 195.122 86.5V85.5ZM181.486 68.2273L180.787 67.5117C180.421 67.8691 180.384 68.4453 180.701 68.8469L181.486 68.2273ZM185.304 64.5L186.088 63.879C185.912 63.6571 185.65 63.5201 185.368 63.502C185.085 63.484 184.808 63.5866 184.605 63.7844L185.304 64.5ZM201.94 85.5V86.5C202.324 86.5 202.674 86.2806 202.841 85.9353C203.008 85.59 202.962 85.1797 202.724 84.879L201.94 85.5ZM177.94 72.7727L178.94 72.759L178.849 66.1227L177.849 66.1364L176.85 66.1501L176.94 72.7864L177.94 72.7727ZM177.849 66.1364V67.1364H178.94V66.1364V65.1364H177.849V66.1364ZM178.94 66.1364L179.654 66.8372L194.926 51.2917L194.213 50.5909L193.5 49.8901L178.227 65.4355L178.94 66.1364ZM194.213 50.5909V51.5909H200.849V50.5909V49.5909H194.213V50.5909ZM200.849 50.5909L200.138 49.8877L183.866 66.3423L184.577 67.0455L185.288 67.7486L201.56 51.2941L200.849 50.5909ZM184.577 67.0455V66.0455H184.122V67.0455V68.0455H184.577V67.0455ZM184.122 67.0455L183.443 66.3119L177.261 72.0392L177.94 72.7727L178.62 73.5063L184.802 67.779L184.122 67.0455ZM172.94 85.5H173.94V38.9545H172.94H171.94V85.5H172.94ZM172.94 38.9545V39.9545H178.304V38.9545V37.9545H172.94V38.9545ZM178.304 38.9545H177.304V85.5H178.304H179.304V38.9545H178.304ZM178.304 85.5V84.5H172.94V85.5V86.5H178.304V85.5ZM195.122 85.5L195.907 84.8804L182.271 67.6076L181.486 68.2273L180.701 68.8469L194.337 86.1196L195.122 85.5ZM181.486 68.2273L182.184 68.9428L186.003 65.2156L185.304 64.5L184.605 63.7844L180.787 67.5117L181.486 68.2273ZM185.304 64.5L184.52 65.121L201.156 86.121L201.94 85.5L202.724 84.879L186.088 63.879L185.304 64.5ZM201.94 85.5V84.5H195.122V85.5V86.5H201.94V85.5ZM243.116 85.5L242.13 85.3381C242.082 85.6277 242.164 85.9236 242.354 86.1473C242.544 86.3711 242.823 86.5 243.116 86.5V85.5ZM250.753 38.9545V37.9545C250.263 37.9545 249.845 38.3093 249.766 38.7926L250.753 38.9545ZM255.298 38.9545L256.285 39.1164C256.333 38.8268 256.251 38.5309 256.061 38.3072C255.87 38.0835 255.592 37.9545 255.298 37.9545V38.9545ZM247.662 85.5V86.5C248.152 86.5 248.569 86.1452 248.649 85.6619L247.662 85.5ZM221.935 72.5909L220.947 72.4329C220.901 72.7221 220.984 73.0169 221.174 73.2398C221.364 73.4626 221.642 73.5909 221.935 73.5909V72.5909ZM222.662 68.0455V67.0455C222.171 67.0455 221.752 67.4023 221.674 67.8875L222.662 68.0455ZM257.389 68.0455L258.377 68.2034C258.423 67.9143 258.34 67.6194 258.15 67.3966C257.96 67.1738 257.682 67.0455 257.389 67.0455V68.0455ZM256.662 72.5909V73.5909C257.153 73.5909 257.572 73.234 257.649 72.7489L256.662 72.5909ZM226.753 85.5L225.766 85.3381C225.719 85.6277 225.801 85.9236 225.991 86.1473C226.181 86.3711 226.459 86.5 226.753 86.5V85.5ZM234.389 38.9545V37.9545C233.899 37.9545 233.482 38.3093 233.402 38.7926L234.389 38.9545ZM238.935 38.9545L239.921 39.1164C239.969 38.8268 239.887 38.5309 239.697 38.3072C239.507 38.0835 239.228 37.9545 238.935 37.9545V38.9545ZM231.298 85.5V86.5C231.788 86.5 232.206 86.1452 232.285 85.6619L231.298 85.5ZM224.662 56.4091L223.674 56.2511C223.628 56.5402 223.711 56.8351 223.901 57.0579C224.091 57.2807 224.369 57.4091 224.662 57.4091V56.4091ZM225.389 51.8636V50.8636C224.898 50.8636 224.479 51.2205 224.402 51.7056L225.389 51.8636ZM260.116 51.8636L261.104 52.0216C261.15 51.7325 261.067 51.4376 260.877 51.2148C260.687 50.992 260.409 50.8636 260.116 50.8636V51.8636ZM259.389 56.4091V57.4091C259.88 57.4091 260.299 57.0522 260.377 56.5671L259.389 56.4091ZM243.116 85.5L244.103 85.6619L251.74 39.1164L250.753 38.9545L249.766 38.7926L242.13 85.3381L243.116 85.5ZM250.753 38.9545V39.9545H255.298V38.9545V37.9545H250.753V38.9545ZM255.298 38.9545L254.311 38.7926L246.675 85.3381L247.662 85.5L248.649 85.6619L256.285 39.1164L255.298 38.9545ZM247.662 85.5V84.5H243.116V85.5V86.5H247.662V85.5ZM221.935 72.5909L222.922 72.7489L223.649 68.2034L222.662 68.0455L221.674 67.8875L220.947 72.4329L221.935 72.5909ZM222.662 68.0455V69.0455H257.389V68.0455V67.0455H222.662V68.0455ZM257.389 68.0455L256.402 67.8875L255.674 72.4329L256.662 72.5909L257.649 72.7489L258.377 68.2034L257.389 68.0455ZM256.662 72.5909V71.5909H221.935V72.5909V73.5909H256.662V72.5909ZM226.753 85.5L227.74 85.6619L235.376 39.1164L234.389 38.9545L233.402 38.7926L225.766 85.3381L226.753 85.5ZM234.389 38.9545V39.9545H238.935V38.9545V37.9545H234.389V38.9545ZM238.935 38.9545L237.948 38.7926L230.311 85.3381L231.298 85.5L232.285 85.6619L239.921 39.1164L238.935 38.9545ZM231.298 85.5V84.5H226.753V85.5V86.5H231.298V85.5ZM224.662 56.4091L225.649 56.5671L226.377 52.0216L225.389 51.8636L224.402 51.7056L223.674 56.2511L224.662 56.4091ZM225.389 51.8636V52.8636H260.116V51.8636V50.8636H225.389V51.8636ZM260.116 51.8636L259.129 51.7056L258.402 56.2511L259.389 56.4091L260.377 56.5671L261.104 52.0216L260.116 51.8636ZM259.389 56.4091V55.4091H224.662V56.4091V57.4091H259.389V56.4091ZM266.037 85.5H265.037C265.037 86.0523 265.485 86.5 266.037 86.5V85.5ZM266.037 81.4091L265.299 80.7346C265.13 80.9189 265.037 81.1595 265.037 81.4091H266.037ZM281.401 64.5909L280.663 63.9157L280.662 63.9165L281.401 64.5909ZM285.855 59.4545L286.635 60.0802L286.638 60.0763L285.855 59.4545ZM288.446 55.3182L287.531 54.914L287.529 54.9191L288.446 55.3182ZM288.128 46.9773L287.288 47.5197L287.293 47.5271L288.128 46.9773ZM284.946 44.2045L285.381 43.3041V43.3041L284.946 44.2045ZM275.719 44.3409L276.202 45.2165L276.205 45.2146L275.719 44.3409ZM272.651 47.4091L271.775 46.926L271.771 46.9338L272.651 47.4091ZM271.582 52.0455V53.0455C272.135 53.0455 272.582 52.5977 272.582 52.0455H271.582ZM266.219 52.0455H265.219C265.219 52.5977 265.666 53.0455 266.219 53.0455V52.0455ZM268.105 44.8636L268.959 45.3846V45.3846L268.105 44.8636ZM273.241 40.0455L272.775 39.1611L272.772 39.1624L273.241 40.0455ZM287.832 40.0455L288.312 39.168V39.168L287.832 40.0455ZM292.787 44.7045L291.934 45.2268L292.787 44.7045ZM293.651 56.25L292.716 55.8951L292.714 55.8998L293.651 56.25ZM290.469 61.6818L289.672 61.078L289.671 61.0789L290.469 61.6818ZM284.219 68.9545L284.949 69.6375L284.951 69.636L284.219 68.9545ZM273.764 80.1364L273.034 79.4534C272.861 79.6386 272.764 79.8828 272.764 80.1364H273.764ZM273.764 80.5H272.764C272.764 81.0523 273.212 81.5 273.764 81.5V80.5ZM295.401 80.5H296.401C296.401 79.9477 295.953 79.5 295.401 79.5V80.5ZM295.401 85.5V86.5C295.953 86.5 296.401 86.0523 296.401 85.5H295.401ZM266.037 85.5H267.037V81.4091H266.037H265.037V85.5H266.037ZM266.037 81.4091L266.775 82.0835L282.139 65.2654L281.401 64.5909L280.662 63.9165L265.299 80.7346L266.037 81.4091ZM281.401 64.5909L282.138 65.2661C283.95 63.2866 285.451 61.5572 286.635 60.0802L285.855 59.4545L285.075 58.8289C283.926 60.2609 282.457 61.9558 280.663 63.9157L281.401 64.5909ZM285.855 59.4545L286.638 60.0763C287.842 58.5598 288.758 57.1064 289.363 55.7173L288.446 55.3182L287.529 54.9191C287.013 56.1057 286.201 57.4099 285.072 58.8328L285.855 59.4545ZM288.446 55.3182L289.361 55.7223C289.993 54.292 290.31 52.7907 290.31 51.2273H289.31H288.31C288.31 52.5123 288.051 53.7383 287.531 54.914L288.446 55.3182ZM289.31 51.2273H290.31C290.31 49.424 289.873 47.81 288.963 46.4275L288.128 46.9773L287.293 47.5271C287.958 48.5385 288.31 49.7578 288.31 51.2273H289.31ZM288.128 46.9773L288.968 46.4349C288.09 45.0756 286.886 44.0313 285.381 43.3041L284.946 44.2045L284.511 45.105C285.703 45.6809 286.62 46.485 287.288 47.5196L288.128 46.9773ZM284.946 44.2045L285.381 43.3041C283.881 42.5794 282.214 42.2273 280.401 42.2273V43.2273V44.2273C281.95 44.2273 283.314 44.5266 284.511 45.105L284.946 44.2045ZM280.401 43.2273V42.2273C278.472 42.2273 276.738 42.6288 275.232 43.4672L275.719 44.3409L276.205 45.2146C277.366 44.5682 278.754 44.2273 280.401 44.2273V43.2273ZM275.719 44.3409L275.236 43.4653C273.752 44.2838 272.593 45.4426 271.775 46.926L272.651 47.4091L273.526 47.8922C274.162 46.7392 275.049 45.8526 276.202 45.2165L275.719 44.3409ZM272.651 47.4091L271.771 46.9338C270.966 48.4226 270.582 50.1372 270.582 52.0455H271.582H272.582C272.582 50.4083 272.91 49.032 273.53 47.8844L272.651 47.4091ZM271.582 52.0455V51.0455H266.219V52.0455V53.0455H271.582V52.0455ZM266.219 52.0455H267.219C267.219 49.4776 267.809 47.2687 268.959 45.3846L268.105 44.8636L267.252 44.3427C265.886 46.5798 265.219 49.1588 265.219 52.0455H266.219ZM268.105 44.8636L268.959 45.3846C270.121 43.4795 271.7 41.9974 273.711 40.9285L273.241 40.0455L272.772 39.1624C270.45 40.3966 268.604 42.1265 267.252 44.3427L268.105 44.8636ZM273.241 40.0455L273.708 40.9298C275.732 39.8616 278.016 39.3182 280.582 39.3182V38.3182V37.3182C277.724 37.3182 275.114 37.9263 272.775 39.1611L273.241 40.0455ZM280.582 38.3182V39.3182C283.165 39.3182 285.413 39.8622 287.353 40.9229L287.832 40.0455L288.312 39.168C286.04 37.9257 283.454 37.3182 280.582 37.3182V38.3182ZM287.832 40.0455L287.353 40.9229C289.313 41.9947 290.833 43.4283 291.934 45.2268L292.787 44.7045L293.64 44.1823C292.347 42.0717 290.564 40.3992 288.312 39.168L287.832 40.0455ZM292.787 44.7045L291.934 45.2268C293.03 47.017 293.582 49.0091 293.582 51.2273H294.582H295.582C295.582 48.6576 294.937 46.3012 293.64 44.1823L292.787 44.7045ZM294.582 51.2273H293.582C293.582 52.8154 293.295 54.3695 292.716 55.8951L293.651 56.25L294.585 56.6049C295.249 54.8577 295.582 53.0634 295.582 51.2273H294.582ZM293.651 56.25L292.714 55.8998C292.153 57.3994 291.152 59.1238 289.672 61.078L290.469 61.6818L291.266 62.2857C292.816 60.2398 293.936 58.343 294.587 56.6002L293.651 56.25ZM290.469 61.6818L289.671 61.0789C288.2 63.0256 286.142 65.422 283.487 68.2731L284.219 68.9545L284.951 69.636C287.629 66.7598 289.738 64.3077 291.267 62.2847L290.469 61.6818ZM284.219 68.9545L283.488 68.2716L273.034 79.4534L273.764 80.1364L274.495 80.8193L284.949 69.6375L284.219 68.9545ZM273.764 80.1364H272.764V80.5H273.764H274.764V80.1364H273.764ZM273.764 80.5V81.5H295.401V80.5V79.5H273.764V80.5ZM295.401 80.5H294.401V85.5H295.401H296.401V80.5H295.401ZM295.401 85.5V84.5H266.037V85.5V86.5H295.401V85.5Z" fill="url(#paint4_linear_2681_9545)" mask="url(#path-3-outside-1_2681_9545)"/>
</g>
</g>
<defs>
<filter id="filter0_dddd_2681_9545" x="0" y="0" width="336" height="150" filterUnits="userSpaceOnUse" color-interpolation-filters="sRGB">
<feFlood flood-opacity="0" result="BackgroundImageFix"/>
<feColorMatrix in="SourceAlpha" type="matrix" values="0 0 0 0 0 0 0 0 0 0 0 0 0 0 0 0 0 0 127 0" result="hardAlpha"/>
<feOffset dy="1"/>
<feGaussianBlur stdDeviation="1.5"/>
<feColorMatrix type="matrix" values="0 0 0 0 0 0 0 0 0 0 0 0 0 0 0 0 0 0 0.1 0"/>
<feBlend mode="normal" in2="BackgroundImageFix" result="effect1_dropShadow_2681_9545"/>
<feColorMatrix in="SourceAlpha" type="matrix" values="0 0 0 0 0 0 0 0 0 0 0 0 0 0 0 0 0 0 127 0" result="hardAlpha"/>
<feOffset dy="5"/>
<feGaussianBlur stdDeviation="2.5"/>
<feColorMatrix type="matrix" values="0 0 0 0 0 0 0 0 0 0 0 0 0 0 0 0 0 0 0.09 0"/>
<feBlend mode="normal" in2="effect1_dropShadow_2681_9545" result="effect2_dropShadow_2681_9545"/>
<feColorMatrix in="SourceAlpha" type="matrix" values="0 0 0 0 0 0 0 0 0 0 0 0 0 0 0 0 0 0 127 0" result="hardAlpha"/>
<feOffset dy="11"/>
<feGaussianBlur stdDeviation="3.5"/>
<feColorMatrix type="matrix" values="0 0 0 0 0 0 0 0 0 0 0 0 0 0 0 0 0 0 0.05 0"/>
<feBlend mode="normal" in2="effect2_dropShadow_2681_9545" result="effect3_dropShadow_2681_9545"/>
<feColorMatrix in="SourceAlpha" type="matrix" values="0 0 0 0 0 0 0 0 0 0 0 0 0 0 0 0 0 0 127 0" result="hardAlpha"/>
<feOffset dy="20"/>
<feGaussianBlur stdDeviation="4"/>
<feColorMatrix type="matrix" values="0 0 0 0 0 0 0 0 0 0 0 0 0 0 0 0 0 0 0.01 0"/>
<feBlend mode="normal" in2="effect3_dropShadow_2681_9545" result="effect4_dropShadow_2681_9545"/>
<feBlend mode="normal" in="SourceGraphic" in2="effect4_dropShadow_2681_9545" result="shape"/>
</filter>
<filter id="filter1_dddd_2681_9545" x="16.3949" y="33.3182" width="300.006" height="123.909" filterUnits="userSpaceOnUse" color-interpolation-filters="sRGB">
<feFlood flood-opacity="0" result="BackgroundImageFix"/>
<feColorMatrix in="SourceAlpha" type="matrix" values="0 0 0 0 0 0 0 0 0 0 0 0 0 0 0 0 0 0 127 0" result="hardAlpha"/>
<feOffset dy="3"/>
<feGaussianBlur stdDeviation="3.5"/>
<feColorMatrix type="matrix" values="0 0 0 0 0 0 0 0 0 0 0 0 0 0 0 0 0 0 0.1 0"/>
<feBlend mode="normal" in2="BackgroundImageFix" result="effect1_dropShadow_2681_9545"/>
<feColorMatrix in="SourceAlpha" type="matrix" values="0 0 0 0 0 0 0 0 0 0 0 0 0 0 0 0 0 0 127 0" result="hardAlpha"/>
<feOffset dy="13"/>
<feGaussianBlur stdDeviation="6.5"/>
<feColorMatrix type="matrix" values="0 0 0 0 0 0 0 0 0 0 0 0 0 0 0 0 0 0 0.09 0"/>
<feBlend mode="normal" in2="effect1_dropShadow_2681_9545" result="effect2_dropShadow_2681_9545"/>
<feColorMatrix in="SourceAlpha" type="matrix" values="0 0 0 0 0 0 0 0 0 0 0 0 0 0 0 0 0 0 127 0" result="hardAlpha"/>
<feOffset dy="28"/>
<feGaussianBlur stdDeviation="8.5"/>
<feColorMatrix type="matrix" values="0 0 0 0 0 0 0 0 0 0 0 0 0 0 0 0 0 0 0.05 0"/>
<feBlend mode="normal" in2="effect2_dropShadow_2681_9545" result="effect3_dropShadow_2681_9545"/>
<feColorMatrix in="SourceAlpha" type="matrix" values="0 0 0 0 0 0 0 0 0 0 0 0 0 0 0 0 0 0 127 0" result="hardAlpha"/>
<feOffset dy="50"/>
<feGaussianBlur stdDeviation="10"/>
<feColorMatrix type="matrix" values="0 0 0 0 0 0 0 0 0 0 0 0 0 0 0 0 0 0 0.02 0"/>
<feBlend mode="normal" in2="effect3_dropShadow_2681_9545" result="effect4_dropShadow_2681_9545"/>
<feBlend mode="normal" in="SourceGraphic" in2="effect4_dropShadow_2681_9545" result="shape"/>
</filter>
<radialGradient id="paint0_radial_2681_9545" cx="0" cy="0" r="1" gradientUnits="userSpaceOnUse" gradientTransform="translate(168 2) rotate(90) scale(120 320)">
<stop stop-color="#5DE000"/>
<stop offset="1" stop-color="#00B658"/>
</radialGradient>
<radialGradient id="paint1_radial_2681_9545" cx="0" cy="0" r="1" gradientUnits="userSpaceOnUse" gradientTransform="translate(168 2) rotate(90) scale(120 160)">
<stop stop-color="white"/>
<stop offset="1" stop-color="white" stop-opacity="0"/>
</radialGradient>
<radialGradient id="paint2_radial_2681_9545" cx="0" cy="0" r="1" gradientUnits="userSpaceOnUse" gradientTransform="translate(168 2) rotate(90) scale(120 197.016)">
<stop stop-color="#D3FF73"/>
<stop offset="1" stop-color="#D3FF73" stop-opacity="0"/>
</radialGradient>
<linearGradient id="paint3_linear_2681_9545" x1="168" y1="85.5" x2="168" y2="38.4399" gradientUnits="userSpaceOnUse">
<stop stop-color="white"/>
<stop offset="1" stop-color="white" stop-opacity="0.6"/>
</linearGradient>
<linearGradient id="paint4_linear_2681_9545" x1="168" y1="40.9022" x2="168" y2="100.5" gradientUnits="userSpaceOnUse">
<stop stop-color="white"/>
<stop offset="0.75" stop-color="white" stop-opacity="0"/>
</linearGradient>
</defs>
</svg>
