<svg width="320" height="156" viewBox="0 0 320 156" fill="none" xmlns="http://www.w3.org/2000/svg">
<path d="M24 2H296C308.15 2 318 11.8497 318 24V96C318 108.15 308.15 118 296 118H24C11.8497 118 2 108.15 2 96V24C2 11.8497 11.8497 2 24 2Z" fill="url(#paint0_radial_2681_9547)"/>
<path d="M24 2H296C308.15 2 318 11.8497 318 24V96C318 108.15 308.15 118 296 118H24C11.8497 118 2 108.15 2 96V24C2 11.8497 11.8497 2 24 2Z" fill="url(#paint1_radial_2681_9547)" fill-opacity="0.4"/>
<path d="M24 2H296C308.15 2 318 11.8497 318 24V96C318 108.15 308.15 118 296 118H24C11.8497 118 2 108.15 2 96V24C2 11.8497 11.8497 2 24 2Z" stroke="url(#paint2_radial_2681_9547)" stroke-width="4"/>
<g filter="url(#filter0_dddd_2681_9547)">
<mask id="path-2-outside-1_2681_9547" maskUnits="userSpaceOnUse" x="27" y="34.5" width="263" height="51" fill="black">
<rect fill="white" x="27" y="34.5" width="263" height="51"/>
<path d="M41.1222 83.5L28.3949 36.9545H34.1222L43.8494 74.8636H44.304L54.2131 36.9545H60.5767L70.4858 74.8636H70.9403L80.6676 36.9545H86.3949L73.6676 83.5H67.8494L57.5767 46.4091H57.2131L46.9403 83.5H41.1222ZM104.077 84.2273C100.713 84.2273 97.8116 83.4848 95.3722 82C92.9479 80.5 91.0767 78.4091 89.7585 75.7273C88.4555 73.0303 87.804 69.8939 87.804 66.3182C87.804 62.7424 88.4555 59.5909 89.7585 56.8636C91.0767 54.1212 92.91 51.9848 95.2585 50.4545C97.6222 48.9091 100.38 48.1364 103.531 48.1364C105.349 48.1364 107.145 48.4394 108.918 49.0455C110.69 49.6515 112.304 50.6364 113.759 52C115.213 53.3485 116.372 55.1364 117.236 57.3636C118.099 59.5909 118.531 62.3333 118.531 65.5909V67.8636H91.6222V63.2273H113.077C113.077 61.2576 112.683 59.5 111.895 57.9545C111.122 56.4091 110.016 55.1894 108.577 54.2955C107.152 53.4015 105.471 52.9545 103.531 52.9545C101.395 52.9545 99.5464 53.4848 97.9858 54.5455C96.4403 55.5909 95.2509 56.9545 94.4176 58.6364C93.5843 60.3182 93.1676 62.1212 93.1676 64.0455V67.1364C93.1676 69.7727 93.6222 72.0076 94.5312 73.8409C95.4555 75.6591 96.7358 77.0455 98.3722 78C100.009 78.9394 101.91 79.4091 104.077 79.4091C105.486 79.4091 106.759 79.2121 107.895 78.8182C109.046 78.4091 110.039 77.803 110.872 77C111.705 76.1818 112.349 75.1667 112.804 73.9545L117.986 75.4091C117.44 77.1667 116.524 78.7121 115.236 80.0455C113.948 81.3636 112.357 82.3939 110.463 83.1364C108.569 83.8636 106.44 84.2273 104.077 84.2273ZM141.327 84.2273C137.963 84.2273 135.062 83.4848 132.622 82C130.198 80.5 128.327 78.4091 127.009 75.7273C125.705 73.0303 125.054 69.8939 125.054 66.3182C125.054 62.7424 125.705 59.5909 127.009 56.8636C128.327 54.1212 130.16 51.9848 132.509 50.4545C134.872 48.9091 137.63 48.1364 140.781 48.1364C142.599 48.1364 144.395 48.4394 146.168 49.0455C147.94 49.6515 149.554 50.6364 151.009 52C152.463 53.3485 153.622 55.1364 154.486 57.3636C155.349 59.5909 155.781 62.3333 155.781 65.5909V67.8636H128.872V63.2273H150.327C150.327 61.2576 149.933 59.5 149.145 57.9545C148.372 56.4091 147.266 55.1894 145.827 54.2955C144.402 53.4015 142.721 52.9545 140.781 52.9545C138.645 52.9545 136.796 53.4848 135.236 54.5455C133.69 55.5909 132.501 56.9545 131.668 58.6364C130.834 60.3182 130.418 62.1212 130.418 64.0455V67.1364C130.418 69.7727 130.872 72.0076 131.781 73.8409C132.705 75.6591 133.986 77.0455 135.622 78C137.259 78.9394 139.16 79.4091 141.327 79.4091C142.736 79.4091 144.009 79.2121 145.145 78.8182C146.296 78.4091 147.289 77.803 148.122 77C148.955 76.1818 149.599 75.1667 150.054 73.9545L155.236 75.4091C154.69 77.1667 153.774 78.7121 152.486 80.0455C151.198 81.3636 149.607 82.3939 147.713 83.1364C145.819 83.8636 143.69 84.2273 141.327 84.2273ZM168.94 70.7727L168.849 64.1364H169.94L185.213 48.5909H191.849L175.577 65.0455H175.122L168.94 70.7727ZM163.94 83.5V36.9545H169.304V83.5H163.94ZM186.122 83.5L172.486 66.2273L176.304 62.5L192.94 83.5H186.122ZM234.116 83.5L241.753 36.9545H246.298L238.662 83.5H234.116ZM212.935 70.5909L213.662 66.0455H248.389L247.662 70.5909H212.935ZM217.753 83.5L225.389 36.9545H229.935L222.298 83.5H217.753ZM215.662 54.4091L216.389 49.8636H251.116L250.389 54.4091H215.662ZM272.764 84.1364C269.764 84.1364 267.09 83.6212 264.741 82.5909C262.408 81.5606 260.552 80.1288 259.173 78.2955C257.81 76.447 257.067 74.303 256.946 71.8636H262.673C262.795 73.3636 263.31 74.6591 264.219 75.75C265.128 76.8258 266.317 77.6591 267.787 78.25C269.257 78.8409 270.885 79.1364 272.673 79.1364C274.673 79.1364 276.446 78.7879 277.991 78.0909C279.537 77.3939 280.749 76.4242 281.628 75.1818C282.507 73.9394 282.946 72.5 282.946 70.8636C282.946 69.1515 282.522 67.6439 281.673 66.3409C280.825 65.0227 279.582 63.9924 277.946 63.25C276.31 62.5076 274.31 62.1364 271.946 62.1364H268.219V57.1364H271.946C273.795 57.1364 275.416 56.803 276.81 56.1364C278.219 55.4697 279.317 54.5303 280.105 53.3182C280.908 52.1061 281.31 50.6818 281.31 49.0455C281.31 47.4697 280.961 46.0985 280.264 44.9318C279.567 43.7651 278.582 42.8561 277.31 42.2045C276.052 41.553 274.567 41.2273 272.855 41.2273C271.249 41.2273 269.734 41.5227 268.31 42.1136C266.901 42.6894 265.749 43.5303 264.855 44.6364C263.961 45.7273 263.476 47.0455 263.401 48.5909H257.946C258.037 46.1515 258.772 44.0151 260.151 42.1818C261.529 40.3333 263.332 38.8939 265.56 37.8636C267.802 36.8333 270.264 36.3182 272.946 36.3182C275.825 36.3182 278.295 36.9015 280.355 38.0682C282.416 39.2197 283.999 40.7424 285.105 42.6364C286.211 44.5303 286.764 46.5758 286.764 48.7727C286.764 51.3939 286.075 53.6288 284.696 55.4773C283.332 57.3258 281.476 58.6061 279.128 59.3182V59.6818C282.067 60.1667 284.363 61.4167 286.014 63.4318C287.666 65.4318 288.491 67.9091 288.491 70.8636C288.491 73.3939 287.802 75.6667 286.423 77.6818C285.06 79.6818 283.196 81.2576 280.832 82.4091C278.469 83.5606 275.779 84.1364 272.764 84.1364Z"/>
</mask>
<path d="M41.1222 83.5L28.3949 36.9545H34.1222L43.8494 74.8636H44.304L54.2131 36.9545H60.5767L70.4858 74.8636H70.9403L80.6676 36.9545H86.3949L73.6676 83.5H67.8494L57.5767 46.4091H57.2131L46.9403 83.5H41.1222ZM104.077 84.2273C100.713 84.2273 97.8116 83.4848 95.3722 82C92.9479 80.5 91.0767 78.4091 89.7585 75.7273C88.4555 73.0303 87.804 69.8939 87.804 66.3182C87.804 62.7424 88.4555 59.5909 89.7585 56.8636C91.0767 54.1212 92.91 51.9848 95.2585 50.4545C97.6222 48.9091 100.38 48.1364 103.531 48.1364C105.349 48.1364 107.145 48.4394 108.918 49.0455C110.69 49.6515 112.304 50.6364 113.759 52C115.213 53.3485 116.372 55.1364 117.236 57.3636C118.099 59.5909 118.531 62.3333 118.531 65.5909V67.8636H91.6222V63.2273H113.077C113.077 61.2576 112.683 59.5 111.895 57.9545C111.122 56.4091 110.016 55.1894 108.577 54.2955C107.152 53.4015 105.471 52.9545 103.531 52.9545C101.395 52.9545 99.5464 53.4848 97.9858 54.5455C96.4403 55.5909 95.2509 56.9545 94.4176 58.6364C93.5843 60.3182 93.1676 62.1212 93.1676 64.0455V67.1364C93.1676 69.7727 93.6222 72.0076 94.5312 73.8409C95.4555 75.6591 96.7358 77.0455 98.3722 78C100.009 78.9394 101.91 79.4091 104.077 79.4091C105.486 79.4091 106.759 79.2121 107.895 78.8182C109.046 78.4091 110.039 77.803 110.872 77C111.705 76.1818 112.349 75.1667 112.804 73.9545L117.986 75.4091C117.44 77.1667 116.524 78.7121 115.236 80.0455C113.948 81.3636 112.357 82.3939 110.463 83.1364C108.569 83.8636 106.44 84.2273 104.077 84.2273ZM141.327 84.2273C137.963 84.2273 135.062 83.4848 132.622 82C130.198 80.5 128.327 78.4091 127.009 75.7273C125.705 73.0303 125.054 69.8939 125.054 66.3182C125.054 62.7424 125.705 59.5909 127.009 56.8636C128.327 54.1212 130.16 51.9848 132.509 50.4545C134.872 48.9091 137.63 48.1364 140.781 48.1364C142.599 48.1364 144.395 48.4394 146.168 49.0455C147.94 49.6515 149.554 50.6364 151.009 52C152.463 53.3485 153.622 55.1364 154.486 57.3636C155.349 59.5909 155.781 62.3333 155.781 65.5909V67.8636H128.872V63.2273H150.327C150.327 61.2576 149.933 59.5 149.145 57.9545C148.372 56.4091 147.266 55.1894 145.827 54.2955C144.402 53.4015 142.721 52.9545 140.781 52.9545C138.645 52.9545 136.796 53.4848 135.236 54.5455C133.69 55.5909 132.501 56.9545 131.668 58.6364C130.834 60.3182 130.418 62.1212 130.418 64.0455V67.1364C130.418 69.7727 130.872 72.0076 131.781 73.8409C132.705 75.6591 133.986 77.0455 135.622 78C137.259 78.9394 139.16 79.4091 141.327 79.4091C142.736 79.4091 144.009 79.2121 145.145 78.8182C146.296 78.4091 147.289 77.803 148.122 77C148.955 76.1818 149.599 75.1667 150.054 73.9545L155.236 75.4091C154.69 77.1667 153.774 78.7121 152.486 80.0455C151.198 81.3636 149.607 82.3939 147.713 83.1364C145.819 83.8636 143.69 84.2273 141.327 84.2273ZM168.94 70.7727L168.849 64.1364H169.94L185.213 48.5909H191.849L175.577 65.0455H175.122L168.94 70.7727ZM163.94 83.5V36.9545H169.304V83.5H163.94ZM186.122 83.5L172.486 66.2273L176.304 62.5L192.94 83.5H186.122ZM234.116 83.5L241.753 36.9545H246.298L238.662 83.5H234.116ZM212.935 70.5909L213.662 66.0455H248.389L247.662 70.5909H212.935ZM217.753 83.5L225.389 36.9545H229.935L222.298 83.5H217.753ZM215.662 54.4091L216.389 49.8636H251.116L250.389 54.4091H215.662ZM272.764 84.1364C269.764 84.1364 267.09 83.6212 264.741 82.5909C262.408 81.5606 260.552 80.1288 259.173 78.2955C257.81 76.447 257.067 74.303 256.946 71.8636H262.673C262.795 73.3636 263.31 74.6591 264.219 75.75C265.128 76.8258 266.317 77.6591 267.787 78.25C269.257 78.8409 270.885 79.1364 272.673 79.1364C274.673 79.1364 276.446 78.7879 277.991 78.0909C279.537 77.3939 280.749 76.4242 281.628 75.1818C282.507 73.9394 282.946 72.5 282.946 70.8636C282.946 69.1515 282.522 67.6439 281.673 66.3409C280.825 65.0227 279.582 63.9924 277.946 63.25C276.31 62.5076 274.31 62.1364 271.946 62.1364H268.219V57.1364H271.946C273.795 57.1364 275.416 56.803 276.81 56.1364C278.219 55.4697 279.317 54.5303 280.105 53.3182C280.908 52.1061 281.31 50.6818 281.31 49.0455C281.31 47.4697 280.961 46.0985 280.264 44.9318C279.567 43.7651 278.582 42.8561 277.31 42.2045C276.052 41.553 274.567 41.2273 272.855 41.2273C271.249 41.2273 269.734 41.5227 268.31 42.1136C266.901 42.6894 265.749 43.5303 264.855 44.6364C263.961 45.7273 263.476 47.0455 263.401 48.5909H257.946C258.037 46.1515 258.772 44.0151 260.151 42.1818C261.529 40.3333 263.332 38.8939 265.56 37.8636C267.802 36.8333 270.264 36.3182 272.946 36.3182C275.825 36.3182 278.295 36.9015 280.355 38.0682C282.416 39.2197 283.999 40.7424 285.105 42.6364C286.211 44.5303 286.764 46.5758 286.764 48.7727C286.764 51.3939 286.075 53.6288 284.696 55.4773C283.332 57.3258 281.476 58.6061 279.128 59.3182V59.6818C282.067 60.1667 284.363 61.4167 286.014 63.4318C287.666 65.4318 288.491 67.9091 288.491 70.8636C288.491 73.3939 287.802 75.6667 286.423 77.6818C285.06 79.6818 283.196 81.2576 280.832 82.4091C278.469 83.5606 275.779 84.1364 272.764 84.1364Z" fill="url(#paint3_linear_2681_9547)"/>
<path d="M41.1222 83.5L40.1576 83.7638C40.2764 84.1985 40.6715 84.5 41.1222 84.5V83.5ZM28.3949 36.9545V35.9545C28.0831 35.9545 27.7892 36.1 27.6 36.3478C27.4108 36.5957 27.3481 36.9176 27.4303 37.2183L28.3949 36.9545ZM34.1222 36.9545L35.0908 36.706C34.9773 36.2638 34.5787 35.9545 34.1222 35.9545V36.9545ZM43.8494 74.8636L42.8808 75.1122C42.9943 75.5544 43.3929 75.8636 43.8494 75.8636V74.8636ZM44.304 74.8636V75.8636C44.7589 75.8636 45.1564 75.5566 45.2715 75.1165L44.304 74.8636ZM54.2131 36.9545V35.9545C53.7582 35.9545 53.3606 36.2616 53.2456 36.7016L54.2131 36.9545ZM60.5767 36.9545L61.5442 36.7016C61.4292 36.2616 61.0316 35.9545 60.5767 35.9545V36.9545ZM70.4858 74.8636L69.5183 75.1165C69.6333 75.5566 70.0309 75.8636 70.4858 75.8636V74.8636ZM70.9403 74.8636V75.8636C71.3969 75.8636 71.7955 75.5544 71.909 75.1122L70.9403 74.8636ZM80.6676 36.9545V35.9545C80.2111 35.9545 79.8125 36.2638 79.699 36.706L80.6676 36.9545ZM86.3949 36.9545L87.3595 37.2183C87.4417 36.9176 87.379 36.5957 87.1898 36.3478C87.0006 36.1 86.7067 35.9545 86.3949 35.9545V36.9545ZM73.6676 83.5V84.5C74.1183 84.5 74.5133 84.1985 74.6322 83.7638L73.6676 83.5ZM67.8494 83.5L66.8857 83.7669C67.0057 84.2001 67.3999 84.5 67.8494 84.5V83.5ZM57.5767 46.4091L58.5404 46.1422C58.4205 45.709 58.0262 45.4091 57.5767 45.4091V46.4091ZM57.2131 46.4091V45.4091C56.7636 45.4091 56.3693 45.709 56.2493 46.1422L57.2131 46.4091ZM46.9403 83.5V84.5C47.3898 84.5 47.7841 84.2001 47.9041 83.7669L46.9403 83.5ZM41.1222 83.5L42.0868 83.2362L29.3595 36.6908L28.3949 36.9545L27.4303 37.2183L40.1576 83.7638L41.1222 83.5ZM28.3949 36.9545V37.9545H34.1222V36.9545V35.9545H28.3949V36.9545ZM34.1222 36.9545L33.1535 37.2031L42.8808 75.1122L43.8494 74.8636L44.8181 74.6151L35.0908 36.706L34.1222 36.9545ZM43.8494 74.8636V75.8636H44.304V74.8636V73.8636H43.8494V74.8636ZM44.304 74.8636L45.2715 75.1165L55.1806 37.2074L54.2131 36.9545L53.2456 36.7016L43.3365 74.6107L44.304 74.8636ZM54.2131 36.9545V37.9545H60.5767V36.9545V35.9545H54.2131V36.9545ZM60.5767 36.9545L59.6092 37.2074L69.5183 75.1165L70.4858 74.8636L71.4533 74.6107L61.5442 36.7016L60.5767 36.9545ZM70.4858 74.8636V75.8636H70.9403V74.8636V73.8636H70.4858V74.8636ZM70.9403 74.8636L71.909 75.1122L81.6362 37.2031L80.6676 36.9545L79.699 36.706L69.9717 74.6151L70.9403 74.8636ZM80.6676 36.9545V37.9545H86.3949V36.9545V35.9545H80.6676V36.9545ZM86.3949 36.9545L85.4303 36.6908L72.703 83.2362L73.6676 83.5L74.6322 83.7638L87.3595 37.2183L86.3949 36.9545ZM73.6676 83.5V82.5H67.8494V83.5V84.5H73.6676V83.5ZM67.8494 83.5L68.8132 83.2331L58.5404 46.1422L57.5767 46.4091L56.613 46.676L66.8857 83.7669L67.8494 83.5ZM57.5767 46.4091V45.4091H57.2131V46.4091V47.4091H57.5767V46.4091ZM57.2131 46.4091L56.2493 46.1422L45.9766 83.2331L46.9403 83.5L47.9041 83.7669L58.1768 46.676L57.2131 46.4091ZM46.9403 83.5V82.5H41.1222V83.5V84.5H46.9403V83.5ZM95.3722 82L94.846 82.8504L94.8522 82.8542L95.3722 82ZM89.7585 75.7273L88.8581 76.1623L88.8611 76.1684L89.7585 75.7273ZM89.7585 56.8636L88.8572 56.4304L88.8562 56.4325L89.7585 56.8636ZM95.2585 50.4545L95.8045 51.2924L95.8058 51.2915L95.2585 50.4545ZM108.918 49.0455L109.241 48.0992V48.0992L108.918 49.0455ZM113.759 52L113.075 52.7295L113.079 52.7333L113.759 52ZM117.236 57.3636L118.168 57.0021V57.0021L117.236 57.3636ZM118.531 67.8636V68.8636C119.084 68.8636 119.531 68.4159 119.531 67.8636H118.531ZM91.6222 67.8636H90.6222C90.6222 68.4159 91.0699 68.8636 91.6222 68.8636V67.8636ZM91.6222 63.2273V62.2273C91.0699 62.2273 90.6222 62.675 90.6222 63.2273H91.6222ZM113.077 63.2273V64.2273C113.629 64.2273 114.077 63.7796 114.077 63.2273H113.077ZM111.895 57.9545L111 58.4018L111.004 58.4087L111.895 57.9545ZM108.577 54.2955L108.045 55.1424L108.049 55.145L108.577 54.2955ZM97.9858 54.5455L98.5461 55.3737L98.5479 55.3725L97.9858 54.5455ZM94.4176 58.6364L93.5216 58.1924V58.1924L94.4176 58.6364ZM94.5312 73.8409L93.6353 74.2852L93.6398 74.2941L94.5312 73.8409ZM98.3722 78L97.8683 78.8638L97.8743 78.8673L98.3722 78ZM107.895 78.8182L108.222 79.763L108.23 79.7605L107.895 78.8182ZM110.872 77L111.566 77.7201L111.573 77.7136L110.872 77ZM112.804 73.9545L113.074 72.9918C112.574 72.8514 112.05 73.1172 111.868 73.6034L112.804 73.9545ZM117.986 75.4091L118.941 75.7055C119.021 75.4477 118.993 75.1685 118.864 74.9313C118.735 74.6942 118.516 74.5193 118.256 74.4463L117.986 75.4091ZM115.236 80.0455L115.951 80.7443L115.955 80.7402L115.236 80.0455ZM110.463 83.1364L110.822 84.0699L110.828 84.0674L110.463 83.1364ZM104.077 84.2273V83.2273C100.863 83.2273 98.1489 82.5195 95.8921 81.1458L95.3722 82L94.8522 82.8542C97.4742 84.4502 100.563 85.2273 104.077 85.2273V84.2273ZM95.3722 82L95.8983 81.1496C93.6417 79.7533 91.8955 77.8079 90.656 75.2862L89.7585 75.7273L88.8611 76.1684C90.2579 79.0103 92.2541 81.2467 94.846 82.8504L95.3722 82ZM89.7585 75.7273L90.6589 75.2922C89.4329 72.7547 88.804 69.7722 88.804 66.3182H87.804H86.804C86.804 70.0157 87.478 73.3059 88.8581 76.1623L89.7585 75.7273ZM87.804 66.3182H88.804C88.804 62.8646 89.4328 59.8649 90.6608 57.2947L89.7585 56.8636L88.8562 56.4325C87.4781 59.3169 86.804 62.6203 86.804 66.3182H87.804ZM89.7585 56.8636L90.6598 57.2969C91.9058 54.7047 93.6222 52.7143 95.8045 51.2924L95.2585 50.4545L94.7126 49.6167C92.1979 51.2553 90.2476 53.5378 88.8572 56.4304L89.7585 56.8636ZM95.2585 50.4545L95.8058 51.2915C97.9882 49.8645 100.551 49.1364 103.531 49.1364V48.1364V47.1364C100.209 47.1364 97.2561 47.9537 94.7113 49.6176L95.2585 50.4545ZM103.531 48.1364V49.1364C105.236 49.1364 106.922 49.4201 108.594 49.9917L108.918 49.0455L109.241 48.0992C107.367 47.4587 105.463 47.1364 103.531 47.1364V48.1364ZM108.918 49.0455L108.594 49.9917C110.224 50.549 111.717 51.4565 113.075 52.7295L113.759 52L114.442 51.2705C112.891 49.8162 111.156 48.7541 109.241 48.0992L108.918 49.0455ZM113.759 52L113.079 52.7333C114.401 53.9597 115.484 55.6108 116.303 57.7252L117.236 57.3636L118.168 57.0021C117.261 54.6619 116.025 52.7373 114.438 51.2667L113.759 52ZM117.236 57.3636L116.303 57.7252C117.109 59.8036 117.531 62.415 117.531 65.5909H118.531H119.531C119.531 62.2517 119.09 59.3783 118.168 57.0021L117.236 57.3636ZM118.531 65.5909H117.531V67.8636H118.531H119.531V65.5909H118.531ZM118.531 67.8636V66.8636H91.6222V67.8636V68.8636H118.531V67.8636ZM91.6222 67.8636H92.6222V63.2273H91.6222H90.6222V67.8636H91.6222ZM91.6222 63.2273V64.2273H113.077V63.2273V62.2273H91.6222V63.2273ZM113.077 63.2273H114.077C114.077 61.1212 113.655 59.2045 112.786 57.5004L111.895 57.9545L111.004 58.4087C111.711 59.7955 112.077 61.3939 112.077 63.2273H113.077ZM111.895 57.9545L112.789 57.5073C111.936 55.7999 110.704 54.4395 109.104 53.446L108.577 54.2955L108.049 55.145C109.328 55.9393 110.309 57.0183 111 58.4018L111.895 57.9545ZM108.577 54.2955L109.108 53.4485C107.502 52.44 105.629 51.9545 103.531 51.9545V52.9545V53.9545C105.312 53.9545 106.803 54.3631 108.045 55.1424L108.577 54.2955ZM103.531 52.9545V51.9545C101.222 51.9545 99.1714 52.5306 97.4237 53.7184L97.9858 54.5455L98.5479 55.3725C99.9214 54.4391 101.568 53.9545 103.531 53.9545V52.9545ZM97.9858 54.5455L97.4255 53.7172C95.7359 54.8601 94.4312 56.3566 93.5216 58.1924L94.4176 58.6364L95.3137 59.0803C96.0707 57.5525 97.1448 56.3217 98.5461 55.3737L97.9858 54.5455ZM94.4176 58.6364L93.5216 58.1924C92.6181 60.0158 92.1676 61.9712 92.1676 64.0455H93.1676H94.1676C94.1676 62.2712 94.5505 60.6206 95.3137 59.0803L94.4176 58.6364ZM93.1676 64.0455H92.1676V67.1364H93.1676H94.1676V64.0455H93.1676ZM93.1676 67.1364H92.1676C92.1676 69.8839 92.641 72.2798 93.6353 74.2852L94.5312 73.8409L95.4272 73.3967C94.6034 71.7353 94.1676 69.6616 94.1676 67.1364H93.1676ZM94.5312 73.8409L93.6398 74.2941C94.6441 76.2698 96.0532 77.805 97.8683 78.8638L98.3722 78L98.876 77.1362C97.4184 76.2859 96.2668 75.0484 95.4227 73.3878L94.5312 73.8409ZM98.3722 78L97.8743 78.8673C99.6834 79.9058 101.762 80.4091 104.077 80.4091V79.4091V78.4091C102.058 78.4091 100.334 77.973 98.87 77.1327L98.3722 78ZM104.077 79.4091V80.4091C105.579 80.4091 106.964 80.1991 108.222 79.763L107.895 78.8182L107.567 77.8733C106.553 78.2251 105.393 78.4091 104.077 78.4091V79.4091ZM107.895 78.8182L108.23 79.7605C109.508 79.3064 110.624 78.6274 111.566 77.7201L110.872 77L110.178 76.2799C109.453 76.9787 108.585 77.5117 107.56 77.8759L107.895 78.8182ZM110.872 77L111.573 77.7136C112.521 76.7826 113.24 75.6394 113.74 74.3057L112.804 73.9545L111.868 73.6034C111.459 74.6939 110.89 75.5811 110.172 76.2864L110.872 77ZM112.804 73.9545L112.534 74.9173L117.716 76.3719L117.986 75.4091L118.256 74.4463L113.074 72.9918L112.804 73.9545ZM117.986 75.4091L117.031 75.1127C116.532 76.7197 115.697 78.129 114.517 79.3507L115.236 80.0455L115.955 80.7402C117.351 79.2952 118.349 77.6136 118.941 75.7055L117.986 75.4091ZM115.236 80.0455L114.521 79.3466C113.342 80.5534 111.874 81.5092 110.098 82.2053L110.463 83.1364L110.828 84.0674C112.84 83.2787 114.554 82.1739 115.951 80.7443L115.236 80.0455ZM110.463 83.1364L110.105 82.2028C108.342 82.8796 106.338 83.2273 104.077 83.2273V84.2273V85.2273C106.543 85.2273 108.796 84.8477 110.822 84.0699L110.463 83.1364ZM132.622 82L132.096 82.8504L132.102 82.8542L132.622 82ZM127.009 75.7273L126.108 76.1623L126.111 76.1684L127.009 75.7273ZM127.009 56.8636L126.107 56.4304L126.106 56.4325L127.009 56.8636ZM132.509 50.4545L133.054 51.2924L133.056 51.2915L132.509 50.4545ZM146.168 49.0455L146.491 48.0992V48.0992L146.168 49.0455ZM151.009 52L150.325 52.7295L150.329 52.7333L151.009 52ZM154.486 57.3636L155.418 57.0021V57.0021L154.486 57.3636ZM155.781 67.8636V68.8636C156.334 68.8636 156.781 68.4159 156.781 67.8636H155.781ZM128.872 67.8636H127.872C127.872 68.4159 128.32 68.8636 128.872 68.8636V67.8636ZM128.872 63.2273V62.2273C128.32 62.2273 127.872 62.675 127.872 63.2273H128.872ZM150.327 63.2273V64.2273C150.879 64.2273 151.327 63.7796 151.327 63.2273H150.327ZM149.145 57.9545L148.25 58.4018L148.254 58.4087L149.145 57.9545ZM145.827 54.2955L145.295 55.1424L145.299 55.145L145.827 54.2955ZM135.236 54.5455L135.796 55.3737L135.798 55.3725L135.236 54.5455ZM131.668 58.6364L130.772 58.1924V58.1924L131.668 58.6364ZM131.781 73.8409L130.885 74.2852L130.89 74.2941L131.781 73.8409ZM135.622 78L135.118 78.8638L135.124 78.8673L135.622 78ZM145.145 78.8182L145.472 79.763L145.48 79.7605L145.145 78.8182ZM148.122 77L148.816 77.7201L148.823 77.7136L148.122 77ZM150.054 73.9545L150.324 72.9918C149.824 72.8514 149.3 73.1172 149.118 73.6034L150.054 73.9545ZM155.236 75.4091L156.191 75.7055C156.271 75.4477 156.243 75.1685 156.114 74.9313C155.985 74.6942 155.766 74.5193 155.506 74.4463L155.236 75.4091ZM152.486 80.0455L153.201 80.7443L153.205 80.7402L152.486 80.0455ZM147.713 83.1364L148.072 84.0699L148.078 84.0674L147.713 83.1364ZM141.327 84.2273V83.2273C138.113 83.2273 135.399 82.5195 133.142 81.1458L132.622 82L132.102 82.8542C134.724 84.4502 137.813 85.2273 141.327 85.2273V84.2273ZM132.622 82L133.148 81.1496C130.892 79.7533 129.145 77.8079 127.906 75.2862L127.009 75.7273L126.111 76.1684C127.508 79.0103 129.504 81.2467 132.096 82.8504L132.622 82ZM127.009 75.7273L127.909 75.2922C126.683 72.7547 126.054 69.7722 126.054 66.3182H125.054H124.054C124.054 70.0157 124.728 73.3059 126.108 76.1623L127.009 75.7273ZM125.054 66.3182H126.054C126.054 62.8646 126.683 59.8649 127.911 57.2947L127.009 56.8636L126.106 56.4325C124.728 59.3169 124.054 62.6203 124.054 66.3182H125.054ZM127.009 56.8636L127.91 57.2969C129.156 54.7047 130.872 52.7143 133.054 51.2924L132.509 50.4545L131.963 49.6167C129.448 51.2553 127.498 53.5378 126.107 56.4304L127.009 56.8636ZM132.509 50.4545L133.056 51.2915C135.238 49.8645 137.801 49.1364 140.781 49.1364V48.1364V47.1364C137.459 47.1364 134.506 47.9537 131.961 49.6176L132.509 50.4545ZM140.781 48.1364V49.1364C142.486 49.1364 144.172 49.4201 145.844 49.9917L146.168 49.0455L146.491 48.0992C144.617 47.4587 142.713 47.1364 140.781 47.1364V48.1364ZM146.168 49.0455L145.844 49.9917C147.474 50.549 148.967 51.4565 150.325 52.7295L151.009 52L151.692 51.2705C150.141 49.8162 148.406 48.7541 146.491 48.0992L146.168 49.0455ZM151.009 52L150.329 52.7333C151.651 53.9597 152.734 55.6108 153.553 57.7252L154.486 57.3636L155.418 57.0021C154.511 54.6619 153.275 52.7373 151.688 51.2667L151.009 52ZM154.486 57.3636L153.553 57.7252C154.359 59.8036 154.781 62.415 154.781 65.5909H155.781H156.781C156.781 62.2517 156.34 59.3783 155.418 57.0021L154.486 57.3636ZM155.781 65.5909H154.781V67.8636H155.781H156.781V65.5909H155.781ZM155.781 67.8636V66.8636H128.872V67.8636V68.8636H155.781V67.8636ZM128.872 67.8636H129.872V63.2273H128.872H127.872V67.8636H128.872ZM128.872 63.2273V64.2273H150.327V63.2273V62.2273H128.872V63.2273ZM150.327 63.2273H151.327C151.327 61.1212 150.905 59.2045 150.036 57.5004L149.145 57.9545L148.254 58.4087C148.961 59.7955 149.327 61.3939 149.327 63.2273H150.327ZM149.145 57.9545L150.039 57.5073C149.186 55.7999 147.954 54.4395 146.354 53.446L145.827 54.2955L145.299 55.145C146.578 55.9393 147.559 57.0183 148.25 58.4018L149.145 57.9545ZM145.827 54.2955L146.358 53.4485C144.752 52.44 142.879 51.9545 140.781 51.9545V52.9545V53.9545C142.562 53.9545 144.053 54.3631 145.295 55.1424L145.827 54.2955ZM140.781 52.9545V51.9545C138.472 51.9545 136.421 52.5306 134.674 53.7184L135.236 54.5455L135.798 55.3725C137.171 54.4391 138.818 53.9545 140.781 53.9545V52.9545ZM135.236 54.5455L134.675 53.7172C132.986 54.8601 131.681 56.3566 130.772 58.1924L131.668 58.6364L132.564 59.0803C133.321 57.5525 134.395 56.3217 135.796 55.3737L135.236 54.5455ZM131.668 58.6364L130.772 58.1924C129.868 60.0158 129.418 61.9712 129.418 64.0455H130.418H131.418C131.418 62.2712 131.8 60.6206 132.564 59.0803L131.668 58.6364ZM130.418 64.0455H129.418V67.1364H130.418H131.418V64.0455H130.418ZM130.418 67.1364H129.418C129.418 69.8839 129.891 72.2798 130.885 74.2852L131.781 73.8409L132.677 73.3967C131.853 71.7353 131.418 69.6616 131.418 67.1364H130.418ZM131.781 73.8409L130.89 74.2941C131.894 76.2698 133.303 77.805 135.118 78.8638L135.622 78L136.126 77.1362C134.668 76.2859 133.517 75.0484 132.673 73.3878L131.781 73.8409ZM135.622 78L135.124 78.8673C136.933 79.9058 139.012 80.4091 141.327 80.4091V79.4091V78.4091C139.308 78.4091 137.584 77.973 136.12 77.1327L135.622 78ZM141.327 79.4091V80.4091C142.829 80.4091 144.214 80.1991 145.472 79.763L145.145 78.8182L144.817 77.8733C143.803 78.2251 142.643 78.4091 141.327 78.4091V79.4091ZM145.145 78.8182L145.48 79.7605C146.758 79.3064 147.874 78.6274 148.816 77.7201L148.122 77L147.428 76.2799C146.703 76.9787 145.835 77.5117 144.81 77.8759L145.145 78.8182ZM148.122 77L148.823 77.7136C149.771 76.7826 150.49 75.6394 150.99 74.3057L150.054 73.9545L149.118 73.6034C148.709 74.6939 148.14 75.5811 147.422 76.2864L148.122 77ZM150.054 73.9545L149.784 74.9173L154.966 76.3719L155.236 75.4091L155.506 74.4463L150.324 72.9918L150.054 73.9545ZM155.236 75.4091L154.281 75.1127C153.782 76.7197 152.947 78.129 151.767 79.3507L152.486 80.0455L153.205 80.7402C154.601 79.2952 155.599 77.6136 156.191 75.7055L155.236 75.4091ZM152.486 80.0455L151.771 79.3466C150.592 80.5534 149.124 81.5092 147.348 82.2053L147.713 83.1364L148.078 84.0674C150.09 83.2787 151.804 82.1739 153.201 80.7443L152.486 80.0455ZM147.713 83.1364L147.355 82.2028C145.592 82.8796 143.588 83.2273 141.327 83.2273V84.2273V85.2273C143.793 85.2273 146.046 84.8477 148.072 84.0699L147.713 83.1364ZM168.94 70.7727L167.94 70.7864C167.946 71.1814 168.183 71.5362 168.546 71.6919C168.909 71.8475 169.33 71.7748 169.62 71.5063L168.94 70.7727ZM168.849 64.1364V63.1364C168.582 63.1364 168.325 63.2436 168.137 63.4341C167.95 63.6246 167.846 63.8825 167.85 64.1501L168.849 64.1364ZM169.94 64.1364V65.1364C170.209 65.1364 170.466 65.0286 170.654 64.8372L169.94 64.1364ZM185.213 48.5909V47.5909C184.945 47.5909 184.688 47.6987 184.5 47.8901L185.213 48.5909ZM191.849 48.5909L192.56 49.2941C192.844 49.0072 192.928 48.578 192.772 48.2057C192.617 47.8334 192.253 47.5909 191.849 47.5909V48.5909ZM175.577 65.0455V66.0455C175.844 66.0455 176.1 65.9386 176.288 65.7486L175.577 65.0455ZM175.122 65.0455V64.0455C174.87 64.0455 174.627 64.1406 174.443 64.3119L175.122 65.0455ZM163.94 83.5H162.94C162.94 84.0523 163.388 84.5 163.94 84.5V83.5ZM163.94 36.9545V35.9545C163.388 35.9545 162.94 36.4023 162.94 36.9545H163.94ZM169.304 36.9545H170.304C170.304 36.4023 169.856 35.9545 169.304 35.9545V36.9545ZM169.304 83.5V84.5C169.856 84.5 170.304 84.0523 170.304 83.5H169.304ZM186.122 83.5L185.337 84.1196C185.527 84.3599 185.816 84.5 186.122 84.5V83.5ZM172.486 66.2273L171.787 65.5117C171.421 65.8691 171.384 66.4453 171.701 66.8469L172.486 66.2273ZM176.304 62.5L177.088 61.879C176.912 61.6571 176.65 61.5201 176.368 61.502C176.085 61.484 175.808 61.5866 175.605 61.7844L176.304 62.5ZM192.94 83.5V84.5C193.324 84.5 193.674 84.2806 193.841 83.9353C194.008 83.59 193.962 83.1797 193.724 82.879L192.94 83.5ZM168.94 70.7727L169.94 70.759L169.849 64.1227L168.849 64.1364L167.85 64.1501L167.94 70.7864L168.94 70.7727ZM168.849 64.1364V65.1364H169.94V64.1364V63.1364H168.849V64.1364ZM169.94 64.1364L170.654 64.8372L185.926 49.2917L185.213 48.5909L184.5 47.8901L169.227 63.4355L169.94 64.1364ZM185.213 48.5909V49.5909H191.849V48.5909V47.5909H185.213V48.5909ZM191.849 48.5909L191.138 47.8877L174.866 64.3423L175.577 65.0455L176.288 65.7486L192.56 49.2941L191.849 48.5909ZM175.577 65.0455V64.0455H175.122V65.0455V66.0455H175.577V65.0455ZM175.122 65.0455L174.443 64.3119L168.261 70.0392L168.94 70.7727L169.62 71.5063L175.802 65.779L175.122 65.0455ZM163.94 83.5H164.94V36.9545H163.94H162.94V83.5H163.94ZM163.94 36.9545V37.9545H169.304V36.9545V35.9545H163.94V36.9545ZM169.304 36.9545H168.304V83.5H169.304H170.304V36.9545H169.304ZM169.304 83.5V82.5H163.94V83.5V84.5H169.304V83.5ZM186.122 83.5L186.907 82.8804L173.271 65.6076L172.486 66.2273L171.701 66.8469L185.337 84.1196L186.122 83.5ZM172.486 66.2273L173.184 66.9428L177.003 63.2156L176.304 62.5L175.605 61.7844L171.787 65.5117L172.486 66.2273ZM176.304 62.5L175.52 63.121L192.156 84.121L192.94 83.5L193.724 82.879L177.088 61.879L176.304 62.5ZM192.94 83.5V82.5H186.122V83.5V84.5H192.94V83.5ZM234.116 83.5L233.13 83.3381C233.082 83.6277 233.164 83.9236 233.354 84.1473C233.544 84.3711 233.823 84.5 234.116 84.5V83.5ZM241.753 36.9545V35.9545C241.263 35.9545 240.845 36.3093 240.766 36.7926L241.753 36.9545ZM246.298 36.9545L247.285 37.1164C247.333 36.8268 247.251 36.5309 247.061 36.3072C246.87 36.0835 246.592 35.9545 246.298 35.9545V36.9545ZM238.662 83.5V84.5C239.152 84.5 239.569 84.1452 239.649 83.6619L238.662 83.5ZM212.935 70.5909L211.947 70.4329C211.901 70.7221 211.984 71.0169 212.174 71.2398C212.364 71.4626 212.642 71.5909 212.935 71.5909V70.5909ZM213.662 66.0455V65.0455C213.171 65.0455 212.752 65.4023 212.674 65.8875L213.662 66.0455ZM248.389 66.0455L249.377 66.2034C249.423 65.9143 249.34 65.6194 249.15 65.3966C248.96 65.1738 248.682 65.0455 248.389 65.0455V66.0455ZM247.662 70.5909V71.5909C248.153 71.5909 248.572 71.234 248.649 70.7489L247.662 70.5909ZM217.753 83.5L216.766 83.3381C216.719 83.6277 216.801 83.9236 216.991 84.1473C217.181 84.3711 217.459 84.5 217.753 84.5V83.5ZM225.389 36.9545V35.9545C224.899 35.9545 224.482 36.3093 224.402 36.7926L225.389 36.9545ZM229.935 36.9545L230.921 37.1164C230.969 36.8268 230.887 36.5309 230.697 36.3072C230.507 36.0835 230.228 35.9545 229.935 35.9545V36.9545ZM222.298 83.5V84.5C222.788 84.5 223.206 84.1452 223.285 83.6619L222.298 83.5ZM215.662 54.4091L214.674 54.2511C214.628 54.5402 214.711 54.8351 214.901 55.0579C215.091 55.2807 215.369 55.4091 215.662 55.4091V54.4091ZM216.389 49.8636V48.8636C215.898 48.8636 215.479 49.2205 215.402 49.7056L216.389 49.8636ZM251.116 49.8636L252.104 50.0216C252.15 49.7325 252.067 49.4376 251.877 49.2148C251.687 48.992 251.409 48.8636 251.116 48.8636V49.8636ZM250.389 54.4091V55.4091C250.88 55.4091 251.299 55.0522 251.377 54.5671L250.389 54.4091ZM234.116 83.5L235.103 83.6619L242.74 37.1164L241.753 36.9545L240.766 36.7926L233.13 83.3381L234.116 83.5ZM241.753 36.9545V37.9545H246.298V36.9545V35.9545H241.753V36.9545ZM246.298 36.9545L245.311 36.7926L237.675 83.3381L238.662 83.5L239.649 83.6619L247.285 37.1164L246.298 36.9545ZM238.662 83.5V82.5H234.116V83.5V84.5H238.662V83.5ZM212.935 70.5909L213.922 70.7489L214.649 66.2034L213.662 66.0455L212.674 65.8875L211.947 70.4329L212.935 70.5909ZM213.662 66.0455V67.0455H248.389V66.0455V65.0455H213.662V66.0455ZM248.389 66.0455L247.402 65.8875L246.674 70.4329L247.662 70.5909L248.649 70.7489L249.377 66.2034L248.389 66.0455ZM247.662 70.5909V69.5909H212.935V70.5909V71.5909H247.662V70.5909ZM217.753 83.5L218.74 83.6619L226.376 37.1164L225.389 36.9545L224.402 36.7926L216.766 83.3381L217.753 83.5ZM225.389 36.9545V37.9545H229.935V36.9545V35.9545H225.389V36.9545ZM229.935 36.9545L228.948 36.7926L221.311 83.3381L222.298 83.5L223.285 83.6619L230.921 37.1164L229.935 36.9545ZM222.298 83.5V82.5H217.753V83.5V84.5H222.298V83.5ZM215.662 54.4091L216.649 54.5671L217.377 50.0216L216.389 49.8636L215.402 49.7056L214.674 54.2511L215.662 54.4091ZM216.389 49.8636V50.8636H251.116V49.8636V48.8636H216.389V49.8636ZM251.116 49.8636L250.129 49.7056L249.402 54.2511L250.389 54.4091L251.377 54.5671L252.104 50.0216L251.116 49.8636ZM250.389 54.4091V53.4091H215.662V54.4091V55.4091H250.389V54.4091ZM264.741 82.5909L264.338 83.5057L264.34 83.5067L264.741 82.5909ZM259.173 78.2955L258.369 78.8891L258.374 78.8965L259.173 78.2955ZM256.946 71.8636V70.8636C256.672 70.8636 256.41 70.9759 256.222 71.1743C256.033 71.3727 255.934 71.6398 255.947 71.9133L256.946 71.8636ZM262.673 71.8636L263.67 71.7831C263.628 71.2637 263.194 70.8636 262.673 70.8636V71.8636ZM264.219 75.75L263.451 76.3902L263.455 76.3955L264.219 75.75ZM267.787 78.25L267.414 79.1778V79.1778L267.787 78.25ZM281.628 75.1818L280.811 74.6044V74.6044L281.628 75.1818ZM281.673 66.3409L280.832 66.8822L280.835 66.8866L281.673 66.3409ZM277.946 63.25L277.533 64.1607V64.1607L277.946 63.25ZM268.219 62.1364H267.219C267.219 62.6886 267.666 63.1364 268.219 63.1364V62.1364ZM268.219 57.1364V56.1364C267.666 56.1364 267.219 56.5841 267.219 57.1364H268.219ZM276.81 56.1364L276.382 55.2324L276.378 55.2342L276.81 56.1364ZM280.105 53.3182L279.271 52.7659L279.267 52.7732L280.105 53.3182ZM280.264 44.9318L281.123 44.419V44.419L280.264 44.9318ZM277.31 42.2045L276.85 43.0925L276.854 43.0947L277.31 42.2045ZM268.31 42.1136L268.688 43.0394L268.693 43.0373L268.31 42.1136ZM264.855 44.6364L265.629 45.2702L265.633 45.2649L264.855 44.6364ZM263.401 48.5909V49.5909C263.934 49.5909 264.373 49.1725 264.399 48.6399L263.401 48.5909ZM257.946 48.5909L256.947 48.5537C256.937 48.8252 257.037 49.0891 257.226 49.2847C257.414 49.4804 257.674 49.5909 257.946 49.5909V48.5909ZM260.151 42.1818L260.95 42.7829L260.952 42.7797L260.151 42.1818ZM265.56 37.8636L265.142 36.955L265.14 36.956L265.56 37.8636ZM280.355 38.0682L279.862 38.9384L279.867 38.9411L280.355 38.0682ZM285.105 42.6364L284.242 43.1407V43.1407L285.105 42.6364ZM284.696 55.4773L283.894 54.8794L283.891 54.8836L284.696 55.4773ZM279.128 59.3182L278.838 58.3612C278.416 58.489 278.128 58.8777 278.128 59.3182H279.128ZM279.128 59.6818H278.128C278.128 60.1713 278.482 60.5888 278.965 60.6685L279.128 59.6818ZM286.014 63.4318L285.241 64.0657L285.243 64.0686L286.014 63.4318ZM286.423 77.6818L285.598 77.1171L285.597 77.1185L286.423 77.6818ZM280.832 82.4091L281.27 83.3081V83.3081L280.832 82.4091ZM272.764 84.1364V83.1364C269.879 83.1364 267.345 82.6413 265.143 81.6752L264.741 82.5909L264.34 83.5067C266.835 84.6012 269.649 85.1364 272.764 85.1364V84.1364ZM264.741 82.5909L265.145 81.6761C262.951 80.707 261.237 79.3763 259.973 77.6944L259.173 78.2955L258.374 78.8965C259.867 80.8813 261.866 82.4142 264.338 83.5057L264.741 82.5909ZM259.173 78.2955L259.978 77.7018C258.739 76.0218 258.057 74.07 257.945 71.814L256.946 71.8636L255.947 71.9133C256.078 74.5361 256.881 76.8721 258.369 78.8891L259.173 78.2955ZM256.946 71.8636V72.8636H262.673V71.8636V70.8636H256.946V71.8636ZM262.673 71.8636L261.677 71.9442C261.813 73.6368 262.401 75.131 263.451 76.3902L264.219 75.75L264.987 75.1098C264.218 74.1871 263.776 73.0904 263.67 71.7831L262.673 71.8636ZM264.219 75.75L263.455 76.3955C264.482 77.6106 265.812 78.5338 267.414 79.1778L267.787 78.25L268.16 77.3222C266.822 76.7844 265.774 76.0409 264.983 75.1045L264.219 75.75ZM267.787 78.25L267.414 79.1778C269.016 79.8222 270.774 80.1364 272.673 80.1364V79.1364V78.1364C270.997 78.1364 269.497 77.8597 268.16 77.3222L267.787 78.25ZM272.673 79.1364V80.1364C274.79 80.1364 276.707 79.7673 278.403 79.0025L277.991 78.0909L277.58 77.1793C276.185 77.8085 274.557 78.1364 272.673 78.1364V79.1364ZM277.991 78.0909L278.403 79.0025C280.092 78.2408 281.451 77.1633 282.444 75.7593L281.628 75.1818L280.811 74.6044C280.047 75.6852 278.982 76.5471 277.58 77.1793L277.991 78.0909ZM281.628 75.1818L282.444 75.7593C283.452 74.3351 283.946 72.6904 283.946 70.8636H282.946H281.946C281.946 72.3096 281.562 73.5437 280.811 74.6044L281.628 75.1818ZM282.946 70.8636H283.946C283.946 68.9781 283.476 67.2769 282.511 65.7952L281.673 66.3409L280.835 66.8866C281.567 68.011 281.946 69.3249 281.946 70.8636H282.946ZM281.673 66.3409L282.514 65.7997C281.547 64.2971 280.144 63.1493 278.359 62.3393L277.946 63.25L277.533 64.1607C279.02 64.8355 280.103 65.7483 280.832 66.8822L281.673 66.3409ZM277.946 63.25L278.359 62.3393C276.559 61.5226 274.409 61.1364 271.946 61.1364V62.1364V63.1364C274.21 63.1364 276.06 63.4926 277.533 64.1607L277.946 63.25ZM271.946 62.1364V61.1364H268.219V62.1364V63.1364H271.946V62.1364ZM268.219 62.1364H269.219V57.1364H268.219H267.219V62.1364H268.219ZM268.219 57.1364V58.1364H271.946V57.1364V56.1364H268.219V57.1364ZM271.946 57.1364V58.1364C273.915 58.1364 275.689 57.781 277.241 57.0385L276.81 56.1364L276.378 55.2342C275.143 55.825 273.674 56.1364 271.946 56.1364V57.1364ZM276.81 56.1364L277.237 57.0403C278.8 56.3008 280.047 55.2429 280.944 53.8632L280.105 53.3182L279.267 52.7732C278.588 53.8177 277.637 54.6386 276.382 55.2324L276.81 56.1364ZM280.105 53.3182L280.939 53.8705C281.864 52.4746 282.31 50.8528 282.31 49.0455H281.31H280.31C280.31 50.5109 279.953 51.7376 279.271 52.7659L280.105 53.3182ZM281.31 49.0455H282.31C282.31 47.3183 281.926 45.764 281.123 44.419L280.264 44.9318L279.406 45.4447C279.996 46.433 280.31 47.6211 280.31 49.0455H281.31ZM280.264 44.9318L281.123 44.419C280.324 43.0827 279.196 42.0467 277.765 41.3144L277.31 42.2045L276.854 43.0947C277.969 43.6654 278.81 44.4476 279.406 45.4447L280.264 44.9318ZM277.31 42.2045L277.77 41.3166C276.343 40.5776 274.694 40.2273 272.855 40.2273V41.2273V42.2273C274.44 42.2273 275.761 42.5284 276.85 43.0925L277.31 42.2045ZM272.855 41.2273V40.2273C271.123 40.2273 269.477 40.5466 267.926 41.19L268.31 42.1136L268.693 43.0373C269.991 42.4989 271.375 42.2273 272.855 42.2273V41.2273ZM268.31 42.1136L267.931 41.1879C266.378 41.8228 265.085 42.7614 264.077 44.0078L264.855 44.6364L265.633 45.2649C266.413 44.2992 267.424 43.5559 268.688 43.0393L268.31 42.1136ZM264.855 44.6364L264.082 44.0025C263.039 45.2754 262.487 46.8043 262.402 48.5419L263.401 48.5909L264.399 48.6399C264.466 47.2866 264.884 46.1791 265.629 45.2702L264.855 44.6364ZM263.401 48.5909V47.5909H257.946V48.5909V49.5909H263.401V48.5909ZM257.946 48.5909L258.945 48.6282C259.029 46.3789 259.702 44.4424 260.95 42.7829L260.151 42.1818L259.351 41.5808C257.842 43.5879 257.045 45.9241 256.947 48.5537L257.946 48.5909ZM260.151 42.1818L260.952 42.7797C262.225 41.0732 263.893 39.7363 265.98 38.7712L265.56 37.8636L265.14 36.956C262.772 38.0516 260.834 39.5935 259.349 41.5839L260.151 42.1818ZM265.56 37.8636L265.977 38.7723C268.078 37.8073 270.396 37.3182 272.946 37.3182V36.3182V35.3182C270.133 35.3182 267.527 35.8594 265.142 36.955L265.56 37.8636ZM272.946 36.3182V37.3182C275.689 37.3182 277.981 37.8734 279.862 38.9384L280.355 38.0682L280.848 37.198C278.608 35.9297 275.96 35.3182 272.946 35.3182V36.3182ZM280.355 38.0682L279.867 38.9411C281.784 40.0124 283.232 41.4127 284.242 43.1407L285.105 42.6364L285.969 42.1321C284.766 40.0722 283.047 38.427 280.843 37.1952L280.355 38.0682ZM285.105 42.6364L284.242 43.1407C285.258 44.8813 285.764 46.7527 285.764 48.7727H286.764H287.764C287.764 46.3988 287.164 44.1793 285.969 42.1321L285.105 42.6364ZM286.764 48.7727H285.764C285.764 51.2092 285.127 53.2267 283.894 54.8794L284.696 55.4773L285.498 56.0752C287.022 54.0308 287.764 51.5786 287.764 48.7727H286.764ZM284.696 55.4773L283.891 54.8836C282.665 56.5465 280.995 57.7071 278.838 58.3612L279.128 59.3182L279.418 60.2752C281.958 59.5051 284 58.105 285.501 56.0709L284.696 55.4773ZM279.128 59.3182H278.128V59.6818H279.128H280.128V59.3182H279.128ZM279.128 59.6818L278.965 60.6685C281.701 61.1198 283.765 62.2653 285.241 64.0657L286.014 63.4318L286.788 62.7979C284.96 60.5681 282.433 59.2135 279.291 58.6952L279.128 59.6818ZM286.014 63.4318L285.243 64.0686C286.726 65.8646 287.491 68.1073 287.491 70.8636H288.491H289.491C289.491 67.7109 288.605 64.999 286.785 62.7951L286.014 63.4318ZM288.491 70.8636H287.491C287.491 73.2002 286.859 75.2746 285.598 77.1171L286.423 77.6818L287.249 78.2465C288.745 76.0587 289.491 73.5877 289.491 70.8636H288.491ZM286.423 77.6818L285.597 77.1185C284.34 78.9625 282.616 80.428 280.394 81.5101L280.832 82.4091L281.27 83.3081C283.777 82.0871 285.78 80.4011 287.25 78.2452L286.423 77.6818ZM280.832 82.4091L280.394 81.5101C278.186 82.586 275.65 83.1364 272.764 83.1364V84.1364V85.1364C275.909 85.1364 278.752 84.5352 281.27 83.3081L280.832 82.4091Z" fill="url(#paint4_linear_2681_9547)" mask="url(#path-2-outside-1_2681_9547)"/>
</g>
<defs>
<filter id="filter0_dddd_2681_9547" x="7.3949" y="31.3182" width="302.097" height="123.909" filterUnits="userSpaceOnUse" color-interpolation-filters="sRGB">
<feFlood flood-opacity="0" result="BackgroundImageFix"/>
<feColorMatrix in="SourceAlpha" type="matrix" values="0 0 0 0 0 0 0 0 0 0 0 0 0 0 0 0 0 0 127 0" result="hardAlpha"/>
<feOffset dy="3"/>
<feGaussianBlur stdDeviation="3.5"/>
<feColorMatrix type="matrix" values="0 0 0 0 0 0 0 0 0 0 0 0 0 0 0 0 0 0 0.1 0"/>
<feBlend mode="normal" in2="BackgroundImageFix" result="effect1_dropShadow_2681_9547"/>
<feColorMatrix in="SourceAlpha" type="matrix" values="0 0 0 0 0 0 0 0 0 0 0 0 0 0 0 0 0 0 127 0" result="hardAlpha"/>
<feOffset dy="13"/>
<feGaussianBlur stdDeviation="6.5"/>
<feColorMatrix type="matrix" values="0 0 0 0 0 0 0 0 0 0 0 0 0 0 0 0 0 0 0.09 0"/>
<feBlend mode="normal" in2="effect1_dropShadow_2681_9547" result="effect2_dropShadow_2681_9547"/>
<feColorMatrix in="SourceAlpha" type="matrix" values="0 0 0 0 0 0 0 0 0 0 0 0 0 0 0 0 0 0 127 0" result="hardAlpha"/>
<feOffset dy="28"/>
<feGaussianBlur stdDeviation="8.5"/>
<feColorMatrix type="matrix" values="0 0 0 0 0 0 0 0 0 0 0 0 0 0 0 0 0 0 0.05 0"/>
<feBlend mode="normal" in2="effect2_dropShadow_2681_9547" result="effect3_dropShadow_2681_9547"/>
<feColorMatrix in="SourceAlpha" type="matrix" values="0 0 0 0 0 0 0 0 0 0 0 0 0 0 0 0 0 0 127 0" result="hardAlpha"/>
<feOffset dy="50"/>
<feGaussianBlur stdDeviation="10"/>
<feColorMatrix type="matrix" values="0 0 0 0 0 0 0 0 0 0 0 0 0 0 0 0 0 0 0.02 0"/>
<feBlend mode="normal" in2="effect3_dropShadow_2681_9547" result="effect4_dropShadow_2681_9547"/>
<feBlend mode="normal" in="SourceGraphic" in2="effect4_dropShadow_2681_9547" result="shape"/>
</filter>
<radialGradient id="paint0_radial_2681_9547" cx="0" cy="0" r="1" gradientUnits="userSpaceOnUse" gradientTransform="translate(160 -1.56405e-06) rotate(90) scale(120 320)">
<stop stop-color="#5DE000"/>
<stop offset="1" stop-color="#00B658"/>
</radialGradient>
<radialGradient id="paint1_radial_2681_9547" cx="0" cy="0" r="1" gradientUnits="userSpaceOnUse" gradientTransform="translate(160) rotate(90) scale(120 160)">
<stop stop-color="white"/>
<stop offset="1" stop-color="white" stop-opacity="0"/>
</radialGradient>
<radialGradient id="paint2_radial_2681_9547" cx="0" cy="0" r="1" gradientUnits="userSpaceOnUse" gradientTransform="translate(160) rotate(90) scale(120 197.016)">
<stop stop-color="#D3FF73"/>
<stop offset="1" stop-color="#D3FF73" stop-opacity="0"/>
</radialGradient>
<linearGradient id="paint3_linear_2681_9547" x1="160" y1="83.5" x2="160" y2="36.4399" gradientUnits="userSpaceOnUse">
<stop stop-color="white"/>
<stop offset="1" stop-color="white" stop-opacity="0.6"/>
</linearGradient>
<linearGradient id="paint4_linear_2681_9547" x1="160" y1="38.9022" x2="160" y2="98.5" gradientUnits="userSpaceOnUse">
<stop stop-color="white"/>
<stop offset="0.75" stop-color="white" stop-opacity="0"/>
</linearGradient>
</defs>
</svg>
