<svg width="320" height="120" viewBox="0 0 320 120" fill="none" xmlns="http://www.w3.org/2000/svg">
<rect width="320" height="120" fill="white"/>
<path d="M32.5355 82L25.6875 38.096H31.7035L37.0795 70.928H37.3355L42.3915 38.096H48.0875L53.2075 70.928H53.4635L58.7115 38.096H64.0875L57.2395 82H50.0715L45.0155 50.192H44.7595L39.7675 82H32.5355ZM83.2625 82.64C79.8492 82.64 77.0118 81.9573 74.7505 80.592C72.5318 79.2267 70.8678 77.3067 69.7585 74.832C68.6918 72.3573 68.1585 69.52 68.1585 66.32V64.976C68.1585 61.648 68.7772 58.768 70.0145 56.336C71.2518 53.904 73.0225 52.0267 75.3265 50.704C77.6305 49.3387 80.3612 48.656 83.5185 48.656C86.4625 48.656 88.9798 49.2533 91.0705 50.448C93.2038 51.6427 94.8465 53.264 95.9985 55.312C97.1932 57.36 97.7905 59.7067 97.7905 62.352V66.704H74.8145V67.792C74.8145 71.1627 75.6252 73.7227 77.2465 75.472C78.8678 77.2213 80.9158 78.096 83.3905 78.096C86.1212 78.096 88.1905 77.4347 89.5985 76.112C91.0492 74.7893 91.7745 72.7413 91.7745 69.968H97.7905C97.7905 72.5707 97.1718 74.832 95.9345 76.752C94.7398 78.6293 93.0545 80.08 90.8785 81.104C88.7452 82.128 86.2065 82.64 83.2625 82.64ZM74.8785 62.544H91.5185V61.584C91.5185 59.9627 91.1772 58.5333 90.4945 57.296C89.8545 56.016 88.9158 55.0133 87.6785 54.288C86.4412 53.5627 85.0118 53.2 83.3905 53.2C81.5558 53.2 79.9985 53.648 78.7185 54.544C77.4812 55.44 76.5212 56.592 75.8385 58C75.1985 59.3653 74.8785 60.7733 74.8785 62.224V62.544ZM121.638 82.64C118.224 82.64 115.387 81.9573 113.126 80.592C110.907 79.2267 109.243 77.3067 108.134 74.832C107.067 72.3573 106.534 69.52 106.534 66.32V64.976C106.534 61.648 107.152 58.768 108.39 56.336C109.627 53.904 111.398 52.0267 113.702 50.704C116.006 49.3387 118.736 48.656 121.894 48.656C124.838 48.656 127.355 49.2533 129.446 50.448C131.579 51.6427 133.222 53.264 134.374 55.312C135.568 57.36 136.166 59.7067 136.166 62.352V66.704H113.19V67.792C113.19 71.1627 114 73.7227 115.622 75.472C117.243 77.2213 119.291 78.096 121.766 78.096C124.496 78.096 126.566 77.4347 127.974 76.112C129.424 74.7893 130.15 72.7413 130.15 69.968H136.166C136.166 72.5707 135.547 74.832 134.31 76.752C133.115 78.6293 131.43 80.08 129.254 81.104C127.12 82.128 124.582 82.64 121.638 82.64ZM113.254 62.544H129.894V61.584C129.894 59.9627 129.552 58.5333 128.87 57.296C128.23 56.016 127.291 55.0133 126.054 54.288C124.816 53.5627 123.387 53.2 121.766 53.2C119.931 53.2 118.374 53.648 117.094 54.544C115.856 55.44 114.896 56.592 114.214 58C113.574 59.3653 113.254 60.7733 113.254 62.224V62.544ZM145.869 82V35.92H152.269V67.216L167.373 49.296H174.925L161.933 64.528L175.693 82H167.885L157.453 69.008L152.269 74.128V82H145.869ZM222.555 82L225.115 70.416H218.075V65.68H226.203L228.443 55.696H220.635V50.896H229.467L232.475 37.456H237.531L234.458 50.896H243.867L246.875 37.456H251.931L248.795 50.896H255.515V55.696H247.835L245.595 65.68H253.211V70.416H244.507L241.947 82H237.019L239.515 70.416H230.043L227.547 82H222.555ZM231.131 65.68H240.603L242.907 55.696H233.371L231.131 65.68ZM259.778 82V80.08C259.778 77.4347 260.268 75.1733 261.25 73.296C262.231 71.376 263.767 69.712 265.858 68.304L278.722 59.856C280.087 58.9173 281.26 57.7227 282.242 56.272C283.266 54.7787 283.778 53.0293 283.778 51.024C283.778 48.5493 283.052 46.5653 281.602 45.072C280.151 43.5787 278.018 42.832 275.202 42.832C273.495 42.832 271.959 43.216 270.594 43.984C269.271 44.7093 268.204 45.7333 267.394 47.056C266.626 48.336 266.242 49.808 266.242 51.472C266.242 51.8133 266.242 52.1333 266.242 52.432C266.242 52.688 266.263 52.944 266.306 53.2H260.226C260.183 52.9013 260.161 52.688 260.161 52.56C260.161 52.3893 260.161 52.2187 260.161 52.048C260.161 49.1893 260.802 46.672 262.082 44.496C263.362 42.2773 265.132 40.5493 267.394 39.312C269.698 38.0747 272.322 37.456 275.266 37.456H275.97C278.914 37.456 281.452 38.032 283.586 39.184C285.762 40.2933 287.426 41.8507 288.578 43.856C289.772 45.8613 290.37 48.1867 290.37 50.832C290.37 53.0507 289.986 54.992 289.218 56.656C288.492 58.2773 287.49 59.7067 286.21 60.944C284.972 62.1813 283.564 63.3333 281.986 64.4L271.17 71.44C270.231 72.08 269.506 72.6987 268.994 73.296C268.482 73.8507 268.119 74.384 267.906 74.896C267.692 75.408 267.543 75.8987 267.458 76.368H290.562V82H259.778Z" fill="black"/>
</svg>
