<svg width="320" height="156" viewBox="0 0 320 156" fill="none" xmlns="http://www.w3.org/2000/svg">
<rect x="2" y="2" width="316" height="116" rx="22" fill="url(#paint0_radial_2681_9543)"/>
<rect x="2" y="2" width="316" height="116" rx="22" fill="url(#paint1_radial_2681_9543)" fill-opacity="0.4"/>
<rect x="2" y="2" width="316" height="116" rx="22" stroke="url(#paint2_radial_2681_9543)" stroke-width="4"/>
<g filter="url(#filter0_dddd_2681_9543)">
<mask id="path-2-outside-1_2681_9543" maskUnits="userSpaceOnUse" x="32.5" y="35.5" width="248" height="50" fill="black">
<rect fill="white" x="32.5" y="35.5" width="248" height="50"/>
<path d="M46.6222 83.5L33.8949 36.9545H39.6222L49.3494 74.8636H49.804L59.7131 36.9545H66.0767L75.9858 74.8636H76.4403L86.1676 36.9545H91.8949L79.1676 83.5H73.3494L63.0767 46.4091H62.7131L52.4403 83.5H46.6222ZM109.577 84.2273C106.213 84.2273 103.312 83.4848 100.872 82C98.4479 80.5 96.5767 78.4091 95.2585 75.7273C93.9555 73.0303 93.304 69.8939 93.304 66.3182C93.304 62.7424 93.9555 59.5909 95.2585 56.8636C96.5767 54.1212 98.41 51.9848 100.759 50.4545C103.122 48.9091 105.88 48.1364 109.031 48.1364C110.849 48.1364 112.645 48.4394 114.418 49.0455C116.19 49.6515 117.804 50.6364 119.259 52C120.713 53.3485 121.872 55.1364 122.736 57.3636C123.599 59.5909 124.031 62.3333 124.031 65.5909V67.8636H97.1222V63.2273H118.577C118.577 61.2576 118.183 59.5 117.395 57.9545C116.622 56.4091 115.516 55.1894 114.077 54.2955C112.652 53.4015 110.971 52.9545 109.031 52.9545C106.895 52.9545 105.046 53.4848 103.486 54.5455C101.94 55.5909 100.751 56.9545 99.9176 58.6364C99.0843 60.3182 98.6676 62.1212 98.6676 64.0455V67.1364C98.6676 69.7727 99.1222 72.0076 100.031 73.8409C100.955 75.6591 102.236 77.0455 103.872 78C105.509 78.9394 107.41 79.4091 109.577 79.4091C110.986 79.4091 112.259 79.2121 113.395 78.8182C114.546 78.4091 115.539 77.803 116.372 77C117.205 76.1818 117.849 75.1667 118.304 73.9545L123.486 75.4091C122.94 77.1667 122.024 78.7121 120.736 80.0455C119.448 81.3636 117.857 82.3939 115.963 83.1364C114.069 83.8636 111.94 84.2273 109.577 84.2273ZM146.827 84.2273C143.463 84.2273 140.562 83.4848 138.122 82C135.698 80.5 133.827 78.4091 132.509 75.7273C131.205 73.0303 130.554 69.8939 130.554 66.3182C130.554 62.7424 131.205 59.5909 132.509 56.8636C133.827 54.1212 135.66 51.9848 138.009 50.4545C140.372 48.9091 143.13 48.1364 146.281 48.1364C148.099 48.1364 149.895 48.4394 151.668 49.0455C153.44 49.6515 155.054 50.6364 156.509 52C157.963 53.3485 159.122 55.1364 159.986 57.3636C160.849 59.5909 161.281 62.3333 161.281 65.5909V67.8636H134.372V63.2273H155.827C155.827 61.2576 155.433 59.5 154.645 57.9545C153.872 56.4091 152.766 55.1894 151.327 54.2955C149.902 53.4015 148.221 52.9545 146.281 52.9545C144.145 52.9545 142.296 53.4848 140.736 54.5455C139.19 55.5909 138.001 56.9545 137.168 58.6364C136.334 60.3182 135.918 62.1212 135.918 64.0455V67.1364C135.918 69.7727 136.372 72.0076 137.281 73.8409C138.205 75.6591 139.486 77.0455 141.122 78C142.759 78.9394 144.66 79.4091 146.827 79.4091C148.236 79.4091 149.509 79.2121 150.645 78.8182C151.796 78.4091 152.789 77.803 153.622 77C154.455 76.1818 155.099 75.1667 155.554 73.9545L160.736 75.4091C160.19 77.1667 159.274 78.7121 157.986 80.0455C156.698 81.3636 155.107 82.3939 153.213 83.1364C151.319 83.8636 149.19 84.2273 146.827 84.2273ZM174.44 70.7727L174.349 64.1364H175.44L190.713 48.5909H197.349L181.077 65.0455H180.622L174.44 70.7727ZM169.44 83.5V36.9545H174.804V83.5H169.44ZM191.622 83.5L177.986 66.2273L181.804 62.5L198.44 83.5H191.622ZM239.616 83.5L247.253 36.9545H251.798L244.162 83.5H239.616ZM218.435 70.5909L219.162 66.0455H253.889L253.162 70.5909H218.435ZM223.253 83.5L230.889 36.9545H235.435L227.798 83.5H223.253ZM221.162 54.4091L221.889 49.8636H256.616L255.889 54.4091H221.162ZM278.901 36.9545V83.5H273.264V42.8636H272.991L261.628 50.4091V44.6818L273.264 36.9545H278.901Z"/>
</mask>
<path d="M46.6222 83.5L33.8949 36.9545H39.6222L49.3494 74.8636H49.804L59.7131 36.9545H66.0767L75.9858 74.8636H76.4403L86.1676 36.9545H91.8949L79.1676 83.5H73.3494L63.0767 46.4091H62.7131L52.4403 83.5H46.6222ZM109.577 84.2273C106.213 84.2273 103.312 83.4848 100.872 82C98.4479 80.5 96.5767 78.4091 95.2585 75.7273C93.9555 73.0303 93.304 69.8939 93.304 66.3182C93.304 62.7424 93.9555 59.5909 95.2585 56.8636C96.5767 54.1212 98.41 51.9848 100.759 50.4545C103.122 48.9091 105.88 48.1364 109.031 48.1364C110.849 48.1364 112.645 48.4394 114.418 49.0455C116.19 49.6515 117.804 50.6364 119.259 52C120.713 53.3485 121.872 55.1364 122.736 57.3636C123.599 59.5909 124.031 62.3333 124.031 65.5909V67.8636H97.1222V63.2273H118.577C118.577 61.2576 118.183 59.5 117.395 57.9545C116.622 56.4091 115.516 55.1894 114.077 54.2955C112.652 53.4015 110.971 52.9545 109.031 52.9545C106.895 52.9545 105.046 53.4848 103.486 54.5455C101.94 55.5909 100.751 56.9545 99.9176 58.6364C99.0843 60.3182 98.6676 62.1212 98.6676 64.0455V67.1364C98.6676 69.7727 99.1222 72.0076 100.031 73.8409C100.955 75.6591 102.236 77.0455 103.872 78C105.509 78.9394 107.41 79.4091 109.577 79.4091C110.986 79.4091 112.259 79.2121 113.395 78.8182C114.546 78.4091 115.539 77.803 116.372 77C117.205 76.1818 117.849 75.1667 118.304 73.9545L123.486 75.4091C122.94 77.1667 122.024 78.7121 120.736 80.0455C119.448 81.3636 117.857 82.3939 115.963 83.1364C114.069 83.8636 111.94 84.2273 109.577 84.2273ZM146.827 84.2273C143.463 84.2273 140.562 83.4848 138.122 82C135.698 80.5 133.827 78.4091 132.509 75.7273C131.205 73.0303 130.554 69.8939 130.554 66.3182C130.554 62.7424 131.205 59.5909 132.509 56.8636C133.827 54.1212 135.66 51.9848 138.009 50.4545C140.372 48.9091 143.13 48.1364 146.281 48.1364C148.099 48.1364 149.895 48.4394 151.668 49.0455C153.44 49.6515 155.054 50.6364 156.509 52C157.963 53.3485 159.122 55.1364 159.986 57.3636C160.849 59.5909 161.281 62.3333 161.281 65.5909V67.8636H134.372V63.2273H155.827C155.827 61.2576 155.433 59.5 154.645 57.9545C153.872 56.4091 152.766 55.1894 151.327 54.2955C149.902 53.4015 148.221 52.9545 146.281 52.9545C144.145 52.9545 142.296 53.4848 140.736 54.5455C139.19 55.5909 138.001 56.9545 137.168 58.6364C136.334 60.3182 135.918 62.1212 135.918 64.0455V67.1364C135.918 69.7727 136.372 72.0076 137.281 73.8409C138.205 75.6591 139.486 77.0455 141.122 78C142.759 78.9394 144.66 79.4091 146.827 79.4091C148.236 79.4091 149.509 79.2121 150.645 78.8182C151.796 78.4091 152.789 77.803 153.622 77C154.455 76.1818 155.099 75.1667 155.554 73.9545L160.736 75.4091C160.19 77.1667 159.274 78.7121 157.986 80.0455C156.698 81.3636 155.107 82.3939 153.213 83.1364C151.319 83.8636 149.19 84.2273 146.827 84.2273ZM174.44 70.7727L174.349 64.1364H175.44L190.713 48.5909H197.349L181.077 65.0455H180.622L174.44 70.7727ZM169.44 83.5V36.9545H174.804V83.5H169.44ZM191.622 83.5L177.986 66.2273L181.804 62.5L198.44 83.5H191.622ZM239.616 83.5L247.253 36.9545H251.798L244.162 83.5H239.616ZM218.435 70.5909L219.162 66.0455H253.889L253.162 70.5909H218.435ZM223.253 83.5L230.889 36.9545H235.435L227.798 83.5H223.253ZM221.162 54.4091L221.889 49.8636H256.616L255.889 54.4091H221.162ZM278.901 36.9545V83.5H273.264V42.8636H272.991L261.628 50.4091V44.6818L273.264 36.9545H278.901Z" fill="url(#paint3_linear_2681_9543)"/>
<path d="M46.6222 83.5L45.6576 83.7638C45.7764 84.1985 46.1715 84.5 46.6222 84.5V83.5ZM33.8949 36.9545V35.9545C33.5831 35.9545 33.2892 36.1 33.1 36.3478C32.9108 36.5957 32.8481 36.9176 32.9303 37.2183L33.8949 36.9545ZM39.6222 36.9545L40.5908 36.706C40.4773 36.2638 40.0787 35.9545 39.6222 35.9545V36.9545ZM49.3494 74.8636L48.3808 75.1122C48.4943 75.5544 48.8929 75.8636 49.3494 75.8636V74.8636ZM49.804 74.8636V75.8636C50.2589 75.8636 50.6564 75.5566 50.7715 75.1165L49.804 74.8636ZM59.7131 36.9545V35.9545C59.2582 35.9545 58.8606 36.2616 58.7456 36.7016L59.7131 36.9545ZM66.0767 36.9545L67.0442 36.7016C66.9292 36.2616 66.5316 35.9545 66.0767 35.9545V36.9545ZM75.9858 74.8636L75.0183 75.1165C75.1333 75.5566 75.5309 75.8636 75.9858 75.8636V74.8636ZM76.4403 74.8636V75.8636C76.8969 75.8636 77.2955 75.5544 77.409 75.1122L76.4403 74.8636ZM86.1676 36.9545V35.9545C85.7111 35.9545 85.3125 36.2638 85.199 36.706L86.1676 36.9545ZM91.8949 36.9545L92.8595 37.2183C92.9417 36.9176 92.879 36.5957 92.6898 36.3478C92.5006 36.1 92.2067 35.9545 91.8949 35.9545V36.9545ZM79.1676 83.5V84.5C79.6183 84.5 80.0133 84.1985 80.1322 83.7638L79.1676 83.5ZM73.3494 83.5L72.3857 83.7669C72.5057 84.2001 72.8999 84.5 73.3494 84.5V83.5ZM63.0767 46.4091L64.0404 46.1422C63.9205 45.709 63.5262 45.4091 63.0767 45.4091V46.4091ZM62.7131 46.4091V45.4091C62.2636 45.4091 61.8693 45.709 61.7493 46.1422L62.7131 46.4091ZM52.4403 83.5V84.5C52.8898 84.5 53.2841 84.2001 53.4041 83.7669L52.4403 83.5ZM46.6222 83.5L47.5868 83.2362L34.8595 36.6908L33.8949 36.9545L32.9303 37.2183L45.6576 83.7638L46.6222 83.5ZM33.8949 36.9545V37.9545H39.6222V36.9545V35.9545H33.8949V36.9545ZM39.6222 36.9545L38.6535 37.2031L48.3808 75.1122L49.3494 74.8636L50.3181 74.6151L40.5908 36.706L39.6222 36.9545ZM49.3494 74.8636V75.8636H49.804V74.8636V73.8636H49.3494V74.8636ZM49.804 74.8636L50.7715 75.1165L60.6806 37.2074L59.7131 36.9545L58.7456 36.7016L48.8365 74.6107L49.804 74.8636ZM59.7131 36.9545V37.9545H66.0767V36.9545V35.9545H59.7131V36.9545ZM66.0767 36.9545L65.1092 37.2074L75.0183 75.1165L75.9858 74.8636L76.9533 74.6107L67.0442 36.7016L66.0767 36.9545ZM75.9858 74.8636V75.8636H76.4403V74.8636V73.8636H75.9858V74.8636ZM76.4403 74.8636L77.409 75.1122L87.1362 37.2031L86.1676 36.9545L85.199 36.706L75.4717 74.6151L76.4403 74.8636ZM86.1676 36.9545V37.9545H91.8949V36.9545V35.9545H86.1676V36.9545ZM91.8949 36.9545L90.9303 36.6908L78.203 83.2362L79.1676 83.5L80.1322 83.7638L92.8595 37.2183L91.8949 36.9545ZM79.1676 83.5V82.5H73.3494V83.5V84.5H79.1676V83.5ZM73.3494 83.5L74.3132 83.2331L64.0404 46.1422L63.0767 46.4091L62.113 46.676L72.3857 83.7669L73.3494 83.5ZM63.0767 46.4091V45.4091H62.7131V46.4091V47.4091H63.0767V46.4091ZM62.7131 46.4091L61.7493 46.1422L51.4766 83.2331L52.4403 83.5L53.4041 83.7669L63.6768 46.676L62.7131 46.4091ZM52.4403 83.5V82.5H46.6222V83.5V84.5H52.4403V83.5ZM100.872 82L100.346 82.8504L100.352 82.8542L100.872 82ZM95.2585 75.7273L94.3581 76.1623L94.3611 76.1684L95.2585 75.7273ZM95.2585 56.8636L94.3572 56.4304L94.3562 56.4325L95.2585 56.8636ZM100.759 50.4545L101.304 51.2924L101.306 51.2915L100.759 50.4545ZM114.418 49.0455L114.741 48.0992V48.0992L114.418 49.0455ZM119.259 52L118.575 52.7295L118.579 52.7333L119.259 52ZM122.736 57.3636L123.668 57.0021V57.0021L122.736 57.3636ZM124.031 67.8636V68.8636C124.584 68.8636 125.031 68.4159 125.031 67.8636H124.031ZM97.1222 67.8636H96.1222C96.1222 68.4159 96.5699 68.8636 97.1222 68.8636V67.8636ZM97.1222 63.2273V62.2273C96.5699 62.2273 96.1222 62.675 96.1222 63.2273H97.1222ZM118.577 63.2273V64.2273C119.129 64.2273 119.577 63.7796 119.577 63.2273H118.577ZM117.395 57.9545L116.5 58.4018L116.504 58.4087L117.395 57.9545ZM114.077 54.2955L113.545 55.1424L113.549 55.145L114.077 54.2955ZM103.486 54.5455L104.046 55.3737L104.048 55.3725L103.486 54.5455ZM99.9176 58.6364L99.0216 58.1924V58.1924L99.9176 58.6364ZM100.031 73.8409L99.1353 74.2852L99.1398 74.2941L100.031 73.8409ZM103.872 78L103.368 78.8638L103.374 78.8673L103.872 78ZM113.395 78.8182L113.722 79.763L113.73 79.7605L113.395 78.8182ZM116.372 77L117.066 77.7201L117.073 77.7136L116.372 77ZM118.304 73.9545L118.574 72.9918C118.074 72.8514 117.55 73.1172 117.368 73.6034L118.304 73.9545ZM123.486 75.4091L124.441 75.7055C124.521 75.4477 124.493 75.1685 124.364 74.9313C124.235 74.6942 124.016 74.5193 123.756 74.4463L123.486 75.4091ZM120.736 80.0455L121.451 80.7443L121.455 80.7402L120.736 80.0455ZM115.963 83.1364L116.322 84.0699L116.328 84.0674L115.963 83.1364ZM109.577 84.2273V83.2273C106.363 83.2273 103.649 82.5195 101.392 81.1458L100.872 82L100.352 82.8542C102.974 84.4502 106.063 85.2273 109.577 85.2273V84.2273ZM100.872 82L101.398 81.1496C99.1417 79.7533 97.3955 77.8079 96.156 75.2862L95.2585 75.7273L94.3611 76.1684C95.7579 79.0103 97.7541 81.2467 100.346 82.8504L100.872 82ZM95.2585 75.7273L96.1589 75.2922C94.9329 72.7547 94.304 69.7722 94.304 66.3182H93.304H92.304C92.304 70.0157 92.978 73.3059 94.3581 76.1623L95.2585 75.7273ZM93.304 66.3182H94.304C94.304 62.8646 94.9328 59.8649 96.1608 57.2947L95.2585 56.8636L94.3562 56.4325C92.9781 59.3169 92.304 62.6203 92.304 66.3182H93.304ZM95.2585 56.8636L96.1598 57.2969C97.4058 54.7047 99.1222 52.7143 101.304 51.2924L100.759 50.4545L100.213 49.6167C97.6979 51.2553 95.7476 53.5378 94.3572 56.4304L95.2585 56.8636ZM100.759 50.4545L101.306 51.2915C103.488 49.8645 106.051 49.1364 109.031 49.1364V48.1364V47.1364C105.709 47.1364 102.756 47.9537 100.211 49.6176L100.759 50.4545ZM109.031 48.1364V49.1364C110.736 49.1364 112.422 49.4201 114.094 49.9917L114.418 49.0455L114.741 48.0992C112.867 47.4587 110.963 47.1364 109.031 47.1364V48.1364ZM114.418 49.0455L114.094 49.9917C115.724 50.549 117.217 51.4565 118.575 52.7295L119.259 52L119.942 51.2705C118.391 49.8162 116.656 48.7541 114.741 48.0992L114.418 49.0455ZM119.259 52L118.579 52.7333C119.901 53.9597 120.984 55.6108 121.803 57.7252L122.736 57.3636L123.668 57.0021C122.761 54.6619 121.525 52.7373 119.938 51.2667L119.259 52ZM122.736 57.3636L121.803 57.7252C122.609 59.8036 123.031 62.415 123.031 65.5909H124.031H125.031C125.031 62.2517 124.59 59.3783 123.668 57.0021L122.736 57.3636ZM124.031 65.5909H123.031V67.8636H124.031H125.031V65.5909H124.031ZM124.031 67.8636V66.8636H97.1222V67.8636V68.8636H124.031V67.8636ZM97.1222 67.8636H98.1222V63.2273H97.1222H96.1222V67.8636H97.1222ZM97.1222 63.2273V64.2273H118.577V63.2273V62.2273H97.1222V63.2273ZM118.577 63.2273H119.577C119.577 61.1212 119.155 59.2045 118.286 57.5004L117.395 57.9545L116.504 58.4087C117.211 59.7955 117.577 61.3939 117.577 63.2273H118.577ZM117.395 57.9545L118.289 57.5073C117.436 55.7999 116.204 54.4395 114.604 53.446L114.077 54.2955L113.549 55.145C114.828 55.9393 115.809 57.0183 116.5 58.4018L117.395 57.9545ZM114.077 54.2955L114.608 53.4485C113.002 52.44 111.129 51.9545 109.031 51.9545V52.9545V53.9545C110.812 53.9545 112.303 54.3631 113.545 55.1424L114.077 54.2955ZM109.031 52.9545V51.9545C106.722 51.9545 104.671 52.5306 102.924 53.7184L103.486 54.5455L104.048 55.3725C105.421 54.4391 107.068 53.9545 109.031 53.9545V52.9545ZM103.486 54.5455L102.925 53.7172C101.236 54.8601 99.9312 56.3566 99.0216 58.1924L99.9176 58.6364L100.814 59.0803C101.571 57.5525 102.645 56.3217 104.046 55.3737L103.486 54.5455ZM99.9176 58.6364L99.0216 58.1924C98.1181 60.0158 97.6676 61.9712 97.6676 64.0455H98.6676H99.6676C99.6676 62.2712 100.05 60.6206 100.814 59.0803L99.9176 58.6364ZM98.6676 64.0455H97.6676V67.1364H98.6676H99.6676V64.0455H98.6676ZM98.6676 67.1364H97.6676C97.6676 69.8839 98.141 72.2798 99.1353 74.2852L100.031 73.8409L100.927 73.3967C100.103 71.7353 99.6676 69.6616 99.6676 67.1364H98.6676ZM100.031 73.8409L99.1398 74.2941C100.144 76.2698 101.553 77.805 103.368 78.8638L103.872 78L104.376 77.1362C102.918 76.2859 101.767 75.0484 100.923 73.3878L100.031 73.8409ZM103.872 78L103.374 78.8673C105.183 79.9058 107.262 80.4091 109.577 80.4091V79.4091V78.4091C107.558 78.4091 105.834 77.973 104.37 77.1327L103.872 78ZM109.577 79.4091V80.4091C111.079 80.4091 112.464 80.1991 113.722 79.763L113.395 78.8182L113.067 77.8733C112.053 78.2251 110.893 78.4091 109.577 78.4091V79.4091ZM113.395 78.8182L113.73 79.7605C115.008 79.3064 116.124 78.6274 117.066 77.7201L116.372 77L115.678 76.2799C114.953 76.9787 114.085 77.5117 113.06 77.8759L113.395 78.8182ZM116.372 77L117.073 77.7136C118.021 76.7826 118.74 75.6394 119.24 74.3057L118.304 73.9545L117.368 73.6034C116.959 74.6939 116.39 75.5811 115.672 76.2864L116.372 77ZM118.304 73.9545L118.034 74.9173L123.216 76.3719L123.486 75.4091L123.756 74.4463L118.574 72.9918L118.304 73.9545ZM123.486 75.4091L122.531 75.1127C122.032 76.7197 121.197 78.129 120.017 79.3507L120.736 80.0455L121.455 80.7402C122.851 79.2952 123.849 77.6136 124.441 75.7055L123.486 75.4091ZM120.736 80.0455L120.021 79.3466C118.842 80.5534 117.374 81.5092 115.598 82.2053L115.963 83.1364L116.328 84.0674C118.34 83.2787 120.054 82.1739 121.451 80.7443L120.736 80.0455ZM115.963 83.1364L115.605 82.2028C113.842 82.8796 111.838 83.2273 109.577 83.2273V84.2273V85.2273C112.043 85.2273 114.296 84.8477 116.322 84.0699L115.963 83.1364ZM138.122 82L137.596 82.8504L137.602 82.8542L138.122 82ZM132.509 75.7273L131.608 76.1623L131.611 76.1684L132.509 75.7273ZM132.509 56.8636L131.607 56.4304L131.606 56.4325L132.509 56.8636ZM138.009 50.4545L138.554 51.2924L138.556 51.2915L138.009 50.4545ZM151.668 49.0455L151.991 48.0992V48.0992L151.668 49.0455ZM156.509 52L155.825 52.7295L155.829 52.7333L156.509 52ZM159.986 57.3636L160.918 57.0021V57.0021L159.986 57.3636ZM161.281 67.8636V68.8636C161.834 68.8636 162.281 68.4159 162.281 67.8636H161.281ZM134.372 67.8636H133.372C133.372 68.4159 133.82 68.8636 134.372 68.8636V67.8636ZM134.372 63.2273V62.2273C133.82 62.2273 133.372 62.675 133.372 63.2273H134.372ZM155.827 63.2273V64.2273C156.379 64.2273 156.827 63.7796 156.827 63.2273H155.827ZM154.645 57.9545L153.75 58.4018L153.754 58.4087L154.645 57.9545ZM151.327 54.2955L150.795 55.1424L150.799 55.145L151.327 54.2955ZM140.736 54.5455L141.296 55.3737L141.298 55.3725L140.736 54.5455ZM137.168 58.6364L136.272 58.1924V58.1924L137.168 58.6364ZM137.281 73.8409L136.385 74.2852L136.39 74.2941L137.281 73.8409ZM141.122 78L140.618 78.8638L140.624 78.8673L141.122 78ZM150.645 78.8182L150.972 79.763L150.98 79.7605L150.645 78.8182ZM153.622 77L154.316 77.7201L154.323 77.7136L153.622 77ZM155.554 73.9545L155.824 72.9918C155.324 72.8514 154.8 73.1172 154.618 73.6034L155.554 73.9545ZM160.736 75.4091L161.691 75.7055C161.771 75.4477 161.743 75.1685 161.614 74.9313C161.485 74.6942 161.266 74.5193 161.006 74.4463L160.736 75.4091ZM157.986 80.0455L158.701 80.7443L158.705 80.7402L157.986 80.0455ZM153.213 83.1364L153.572 84.0699L153.578 84.0674L153.213 83.1364ZM146.827 84.2273V83.2273C143.613 83.2273 140.899 82.5195 138.642 81.1458L138.122 82L137.602 82.8542C140.224 84.4502 143.313 85.2273 146.827 85.2273V84.2273ZM138.122 82L138.648 81.1496C136.392 79.7533 134.645 77.8079 133.406 75.2862L132.509 75.7273L131.611 76.1684C133.008 79.0103 135.004 81.2467 137.596 82.8504L138.122 82ZM132.509 75.7273L133.409 75.2922C132.183 72.7547 131.554 69.7722 131.554 66.3182H130.554H129.554C129.554 70.0157 130.228 73.3059 131.608 76.1623L132.509 75.7273ZM130.554 66.3182H131.554C131.554 62.8646 132.183 59.8649 133.411 57.2947L132.509 56.8636L131.606 56.4325C130.228 59.3169 129.554 62.6203 129.554 66.3182H130.554ZM132.509 56.8636L133.41 57.2969C134.656 54.7047 136.372 52.7143 138.554 51.2924L138.009 50.4545L137.463 49.6167C134.948 51.2553 132.998 53.5378 131.607 56.4304L132.509 56.8636ZM138.009 50.4545L138.556 51.2915C140.738 49.8645 143.301 49.1364 146.281 49.1364V48.1364V47.1364C142.959 47.1364 140.006 47.9537 137.461 49.6176L138.009 50.4545ZM146.281 48.1364V49.1364C147.986 49.1364 149.672 49.4201 151.344 49.9917L151.668 49.0455L151.991 48.0992C150.117 47.4587 148.213 47.1364 146.281 47.1364V48.1364ZM151.668 49.0455L151.344 49.9917C152.974 50.549 154.467 51.4565 155.825 52.7295L156.509 52L157.192 51.2705C155.641 49.8162 153.906 48.7541 151.991 48.0992L151.668 49.0455ZM156.509 52L155.829 52.7333C157.151 53.9597 158.234 55.6108 159.053 57.7252L159.986 57.3636L160.918 57.0021C160.011 54.6619 158.775 52.7373 157.188 51.2667L156.509 52ZM159.986 57.3636L159.053 57.7252C159.859 59.8036 160.281 62.415 160.281 65.5909H161.281H162.281C162.281 62.2517 161.84 59.3783 160.918 57.0021L159.986 57.3636ZM161.281 65.5909H160.281V67.8636H161.281H162.281V65.5909H161.281ZM161.281 67.8636V66.8636H134.372V67.8636V68.8636H161.281V67.8636ZM134.372 67.8636H135.372V63.2273H134.372H133.372V67.8636H134.372ZM134.372 63.2273V64.2273H155.827V63.2273V62.2273H134.372V63.2273ZM155.827 63.2273H156.827C156.827 61.1212 156.405 59.2045 155.536 57.5004L154.645 57.9545L153.754 58.4087C154.461 59.7955 154.827 61.3939 154.827 63.2273H155.827ZM154.645 57.9545L155.539 57.5073C154.686 55.7999 153.454 54.4395 151.854 53.446L151.327 54.2955L150.799 55.145C152.078 55.9393 153.059 57.0183 153.75 58.4018L154.645 57.9545ZM151.327 54.2955L151.858 53.4485C150.252 52.44 148.379 51.9545 146.281 51.9545V52.9545V53.9545C148.062 53.9545 149.553 54.3631 150.795 55.1424L151.327 54.2955ZM146.281 52.9545V51.9545C143.972 51.9545 141.921 52.5306 140.174 53.7184L140.736 54.5455L141.298 55.3725C142.671 54.4391 144.318 53.9545 146.281 53.9545V52.9545ZM140.736 54.5455L140.175 53.7172C138.486 54.8601 137.181 56.3566 136.272 58.1924L137.168 58.6364L138.064 59.0803C138.821 57.5525 139.895 56.3217 141.296 55.3737L140.736 54.5455ZM137.168 58.6364L136.272 58.1924C135.368 60.0158 134.918 61.9712 134.918 64.0455H135.918H136.918C136.918 62.2712 137.3 60.6206 138.064 59.0803L137.168 58.6364ZM135.918 64.0455H134.918V67.1364H135.918H136.918V64.0455H135.918ZM135.918 67.1364H134.918C134.918 69.8839 135.391 72.2798 136.385 74.2852L137.281 73.8409L138.177 73.3967C137.353 71.7353 136.918 69.6616 136.918 67.1364H135.918ZM137.281 73.8409L136.39 74.2941C137.394 76.2698 138.803 77.805 140.618 78.8638L141.122 78L141.626 77.1362C140.168 76.2859 139.017 75.0484 138.173 73.3878L137.281 73.8409ZM141.122 78L140.624 78.8673C142.433 79.9058 144.512 80.4091 146.827 80.4091V79.4091V78.4091C144.808 78.4091 143.084 77.973 141.62 77.1327L141.122 78ZM146.827 79.4091V80.4091C148.329 80.4091 149.714 80.1991 150.972 79.763L150.645 78.8182L150.317 77.8733C149.303 78.2251 148.143 78.4091 146.827 78.4091V79.4091ZM150.645 78.8182L150.98 79.7605C152.258 79.3064 153.374 78.6274 154.316 77.7201L153.622 77L152.928 76.2799C152.203 76.9787 151.335 77.5117 150.31 77.8759L150.645 78.8182ZM153.622 77L154.323 77.7136C155.271 76.7826 155.99 75.6394 156.49 74.3057L155.554 73.9545L154.618 73.6034C154.209 74.6939 153.64 75.5811 152.922 76.2864L153.622 77ZM155.554 73.9545L155.284 74.9173L160.466 76.3719L160.736 75.4091L161.006 74.4463L155.824 72.9918L155.554 73.9545ZM160.736 75.4091L159.781 75.1127C159.282 76.7197 158.447 78.129 157.267 79.3507L157.986 80.0455L158.705 80.7402C160.101 79.2952 161.099 77.6136 161.691 75.7055L160.736 75.4091ZM157.986 80.0455L157.271 79.3466C156.092 80.5534 154.624 81.5092 152.848 82.2053L153.213 83.1364L153.578 84.0674C155.59 83.2787 157.304 82.1739 158.701 80.7443L157.986 80.0455ZM153.213 83.1364L152.855 82.2028C151.092 82.8796 149.088 83.2273 146.827 83.2273V84.2273V85.2273C149.293 85.2273 151.546 84.8477 153.572 84.0699L153.213 83.1364ZM174.44 70.7727L173.44 70.7864C173.446 71.1814 173.683 71.5362 174.046 71.6919C174.409 71.8475 174.83 71.7748 175.12 71.5063L174.44 70.7727ZM174.349 64.1364V63.1364C174.082 63.1364 173.825 63.2436 173.637 63.4341C173.45 63.6246 173.346 63.8825 173.35 64.1501L174.349 64.1364ZM175.44 64.1364V65.1364C175.709 65.1364 175.966 65.0286 176.154 64.8372L175.44 64.1364ZM190.713 48.5909V47.5909C190.445 47.5909 190.188 47.6987 190 47.8901L190.713 48.5909ZM197.349 48.5909L198.06 49.2941C198.344 49.0072 198.428 48.578 198.272 48.2057C198.117 47.8334 197.753 47.5909 197.349 47.5909V48.5909ZM181.077 65.0455V66.0455C181.344 66.0455 181.6 65.9386 181.788 65.7486L181.077 65.0455ZM180.622 65.0455V64.0455C180.37 64.0455 180.127 64.1406 179.943 64.3119L180.622 65.0455ZM169.44 83.5H168.44C168.44 84.0523 168.888 84.5 169.44 84.5V83.5ZM169.44 36.9545V35.9545C168.888 35.9545 168.44 36.4023 168.44 36.9545H169.44ZM174.804 36.9545H175.804C175.804 36.4023 175.356 35.9545 174.804 35.9545V36.9545ZM174.804 83.5V84.5C175.356 84.5 175.804 84.0523 175.804 83.5H174.804ZM191.622 83.5L190.837 84.1196C191.027 84.3599 191.316 84.5 191.622 84.5V83.5ZM177.986 66.2273L177.287 65.5117C176.921 65.8691 176.884 66.4453 177.201 66.8469L177.986 66.2273ZM181.804 62.5L182.588 61.879C182.412 61.6571 182.15 61.5201 181.868 61.502C181.585 61.484 181.308 61.5866 181.105 61.7844L181.804 62.5ZM198.44 83.5V84.5C198.824 84.5 199.174 84.2806 199.341 83.9353C199.508 83.59 199.462 83.1797 199.224 82.879L198.44 83.5ZM174.44 70.7727L175.44 70.759L175.349 64.1227L174.349 64.1364L173.35 64.1501L173.44 70.7864L174.44 70.7727ZM174.349 64.1364V65.1364H175.44V64.1364V63.1364H174.349V64.1364ZM175.44 64.1364L176.154 64.8372L191.426 49.2917L190.713 48.5909L190 47.8901L174.727 63.4355L175.44 64.1364ZM190.713 48.5909V49.5909H197.349V48.5909V47.5909H190.713V48.5909ZM197.349 48.5909L196.638 47.8877L180.366 64.3423L181.077 65.0455L181.788 65.7486L198.06 49.2941L197.349 48.5909ZM181.077 65.0455V64.0455H180.622V65.0455V66.0455H181.077V65.0455ZM180.622 65.0455L179.943 64.3119L173.761 70.0392L174.44 70.7727L175.12 71.5063L181.302 65.779L180.622 65.0455ZM169.44 83.5H170.44V36.9545H169.44H168.44V83.5H169.44ZM169.44 36.9545V37.9545H174.804V36.9545V35.9545H169.44V36.9545ZM174.804 36.9545H173.804V83.5H174.804H175.804V36.9545H174.804ZM174.804 83.5V82.5H169.44V83.5V84.5H174.804V83.5ZM191.622 83.5L192.407 82.8804L178.771 65.6076L177.986 66.2273L177.201 66.8469L190.837 84.1196L191.622 83.5ZM177.986 66.2273L178.684 66.9428L182.503 63.2156L181.804 62.5L181.105 61.7844L177.287 65.5117L177.986 66.2273ZM181.804 62.5L181.02 63.121L197.656 84.121L198.44 83.5L199.224 82.879L182.588 61.879L181.804 62.5ZM198.44 83.5V82.5H191.622V83.5V84.5H198.44V83.5ZM239.616 83.5L238.63 83.3381C238.582 83.6277 238.664 83.9236 238.854 84.1473C239.044 84.3711 239.323 84.5 239.616 84.5V83.5ZM247.253 36.9545V35.9545C246.763 35.9545 246.345 36.3093 246.266 36.7926L247.253 36.9545ZM251.798 36.9545L252.785 37.1164C252.833 36.8268 252.751 36.5309 252.561 36.3072C252.37 36.0835 252.092 35.9545 251.798 35.9545V36.9545ZM244.162 83.5V84.5C244.652 84.5 245.069 84.1452 245.149 83.6619L244.162 83.5ZM218.435 70.5909L217.447 70.4329C217.401 70.7221 217.484 71.0169 217.674 71.2398C217.864 71.4626 218.142 71.5909 218.435 71.5909V70.5909ZM219.162 66.0455V65.0455C218.671 65.0455 218.252 65.4023 218.174 65.8875L219.162 66.0455ZM253.889 66.0455L254.877 66.2034C254.923 65.9143 254.84 65.6194 254.65 65.3966C254.46 65.1738 254.182 65.0455 253.889 65.0455V66.0455ZM253.162 70.5909V71.5909C253.653 71.5909 254.072 71.234 254.149 70.7489L253.162 70.5909ZM223.253 83.5L222.266 83.3381C222.219 83.6277 222.301 83.9236 222.491 84.1473C222.681 84.3711 222.959 84.5 223.253 84.5V83.5ZM230.889 36.9545V35.9545C230.399 35.9545 229.982 36.3093 229.902 36.7926L230.889 36.9545ZM235.435 36.9545L236.421 37.1164C236.469 36.8268 236.387 36.5309 236.197 36.3072C236.007 36.0835 235.728 35.9545 235.435 35.9545V36.9545ZM227.798 83.5V84.5C228.288 84.5 228.706 84.1452 228.785 83.6619L227.798 83.5ZM221.162 54.4091L220.174 54.2511C220.128 54.5402 220.211 54.8351 220.401 55.0579C220.591 55.2807 220.869 55.4091 221.162 55.4091V54.4091ZM221.889 49.8636V48.8636C221.398 48.8636 220.979 49.2205 220.902 49.7056L221.889 49.8636ZM256.616 49.8636L257.604 50.0216C257.65 49.7325 257.567 49.4376 257.377 49.2148C257.187 48.992 256.909 48.8636 256.616 48.8636V49.8636ZM255.889 54.4091V55.4091C256.38 55.4091 256.799 55.0522 256.877 54.5671L255.889 54.4091ZM239.616 83.5L240.603 83.6619L248.24 37.1164L247.253 36.9545L246.266 36.7926L238.63 83.3381L239.616 83.5ZM247.253 36.9545V37.9545H251.798V36.9545V35.9545H247.253V36.9545ZM251.798 36.9545L250.811 36.7926L243.175 83.3381L244.162 83.5L245.149 83.6619L252.785 37.1164L251.798 36.9545ZM244.162 83.5V82.5H239.616V83.5V84.5H244.162V83.5ZM218.435 70.5909L219.422 70.7489L220.149 66.2034L219.162 66.0455L218.174 65.8875L217.447 70.4329L218.435 70.5909ZM219.162 66.0455V67.0455H253.889V66.0455V65.0455H219.162V66.0455ZM253.889 66.0455L252.902 65.8875L252.174 70.4329L253.162 70.5909L254.149 70.7489L254.877 66.2034L253.889 66.0455ZM253.162 70.5909V69.5909H218.435V70.5909V71.5909H253.162V70.5909ZM223.253 83.5L224.24 83.6619L231.876 37.1164L230.889 36.9545L229.902 36.7926L222.266 83.3381L223.253 83.5ZM230.889 36.9545V37.9545H235.435V36.9545V35.9545H230.889V36.9545ZM235.435 36.9545L234.448 36.7926L226.811 83.3381L227.798 83.5L228.785 83.6619L236.421 37.1164L235.435 36.9545ZM227.798 83.5V82.5H223.253V83.5V84.5H227.798V83.5ZM221.162 54.4091L222.149 54.5671L222.877 50.0216L221.889 49.8636L220.902 49.7056L220.174 54.2511L221.162 54.4091ZM221.889 49.8636V50.8636H256.616V49.8636V48.8636H221.889V49.8636ZM256.616 49.8636L255.629 49.7056L254.902 54.2511L255.889 54.4091L256.877 54.5671L257.604 50.0216L256.616 49.8636ZM255.889 54.4091V53.4091H221.162V54.4091V55.4091H255.889V54.4091ZM278.901 36.9545H279.901C279.901 36.4023 279.453 35.9545 278.901 35.9545V36.9545ZM278.901 83.5V84.5C279.453 84.5 279.901 84.0523 279.901 83.5H278.901ZM273.264 83.5H272.264C272.264 84.0523 272.712 84.5 273.264 84.5V83.5ZM273.264 42.8636H274.264C274.264 42.3114 273.816 41.8636 273.264 41.8636V42.8636ZM272.991 42.8636V41.8636C272.795 41.8636 272.602 41.9217 272.438 42.0306L272.991 42.8636ZM261.628 50.4091H260.628C260.628 50.7776 260.83 51.1162 261.155 51.2903C261.48 51.4645 261.874 51.446 262.181 51.2422L261.628 50.4091ZM261.628 44.6818L261.075 43.8488C260.796 44.0341 260.628 44.3468 260.628 44.6818H261.628ZM273.264 36.9545V35.9545C273.067 35.9545 272.875 36.0126 272.711 36.1215L273.264 36.9545ZM278.901 36.9545H277.901V83.5H278.901H279.901V36.9545H278.901ZM278.901 83.5V82.5H273.264V83.5V84.5H278.901V83.5ZM273.264 83.5H274.264V42.8636H273.264H272.264V83.5H273.264ZM273.264 42.8636V41.8636H272.991V42.8636V43.8636H273.264V42.8636ZM272.991 42.8636L272.438 42.0306L261.075 49.576L261.628 50.4091L262.181 51.2422L273.545 43.6967L272.991 42.8636ZM261.628 50.4091H262.628V44.6818H261.628H260.628V50.4091H261.628ZM261.628 44.6818L262.181 45.5149L273.817 37.7876L273.264 36.9545L272.711 36.1215L261.075 43.8488L261.628 44.6818ZM273.264 36.9545V37.9545H278.901V36.9545V35.9545H273.264V36.9545Z" fill="url(#paint4_linear_2681_9543)" mask="url(#path-2-outside-1_2681_9543)"/>
</g>
<defs>
<filter id="filter0_dddd_2681_9543" x="12.8949" y="31.9545" width="287.006" height="123.273" filterUnits="userSpaceOnUse" color-interpolation-filters="sRGB">
<feFlood flood-opacity="0" result="BackgroundImageFix"/>
<feColorMatrix in="SourceAlpha" type="matrix" values="0 0 0 0 0 0 0 0 0 0 0 0 0 0 0 0 0 0 127 0" result="hardAlpha"/>
<feOffset dy="3"/>
<feGaussianBlur stdDeviation="3.5"/>
<feColorMatrix type="matrix" values="0 0 0 0 0 0 0 0 0 0 0 0 0 0 0 0 0 0 0.1 0"/>
<feBlend mode="normal" in2="BackgroundImageFix" result="effect1_dropShadow_2681_9543"/>
<feColorMatrix in="SourceAlpha" type="matrix" values="0 0 0 0 0 0 0 0 0 0 0 0 0 0 0 0 0 0 127 0" result="hardAlpha"/>
<feOffset dy="13"/>
<feGaussianBlur stdDeviation="6.5"/>
<feColorMatrix type="matrix" values="0 0 0 0 0 0 0 0 0 0 0 0 0 0 0 0 0 0 0.09 0"/>
<feBlend mode="normal" in2="effect1_dropShadow_2681_9543" result="effect2_dropShadow_2681_9543"/>
<feColorMatrix in="SourceAlpha" type="matrix" values="0 0 0 0 0 0 0 0 0 0 0 0 0 0 0 0 0 0 127 0" result="hardAlpha"/>
<feOffset dy="28"/>
<feGaussianBlur stdDeviation="8.5"/>
<feColorMatrix type="matrix" values="0 0 0 0 0 0 0 0 0 0 0 0 0 0 0 0 0 0 0.05 0"/>
<feBlend mode="normal" in2="effect2_dropShadow_2681_9543" result="effect3_dropShadow_2681_9543"/>
<feColorMatrix in="SourceAlpha" type="matrix" values="0 0 0 0 0 0 0 0 0 0 0 0 0 0 0 0 0 0 127 0" result="hardAlpha"/>
<feOffset dy="50"/>
<feGaussianBlur stdDeviation="10"/>
<feColorMatrix type="matrix" values="0 0 0 0 0 0 0 0 0 0 0 0 0 0 0 0 0 0 0.02 0"/>
<feBlend mode="normal" in2="effect3_dropShadow_2681_9543" result="effect4_dropShadow_2681_9543"/>
<feBlend mode="normal" in="SourceGraphic" in2="effect4_dropShadow_2681_9543" result="shape"/>
</filter>
<radialGradient id="paint0_radial_2681_9543" cx="0" cy="0" r="1" gradientUnits="userSpaceOnUse" gradientTransform="translate(160 -1.56405e-06) rotate(90) scale(120 320)">
<stop stop-color="#5DE000"/>
<stop offset="1" stop-color="#00B658"/>
</radialGradient>
<radialGradient id="paint1_radial_2681_9543" cx="0" cy="0" r="1" gradientUnits="userSpaceOnUse" gradientTransform="translate(160) rotate(90) scale(120 160)">
<stop stop-color="white"/>
<stop offset="1" stop-color="white" stop-opacity="0"/>
</radialGradient>
<radialGradient id="paint2_radial_2681_9543" cx="0" cy="0" r="1" gradientUnits="userSpaceOnUse" gradientTransform="translate(160) rotate(90) scale(120 197.016)">
<stop stop-color="#D3FF73"/>
<stop offset="1" stop-color="#D3FF73" stop-opacity="0"/>
</radialGradient>
<linearGradient id="paint3_linear_2681_9543" x1="160" y1="83.5" x2="160" y2="36.4399" gradientUnits="userSpaceOnUse">
<stop stop-color="white"/>
<stop offset="1" stop-color="white" stop-opacity="0.6"/>
</linearGradient>
<linearGradient id="paint4_linear_2681_9543" x1="160" y1="38.9022" x2="160" y2="98.5" gradientUnits="userSpaceOnUse">
<stop stop-color="white"/>
<stop offset="0.75" stop-color="white" stop-opacity="0"/>
</linearGradient>
</defs>
</svg>
