<svg width="320" height="120" viewBox="0 0 320 120" fill="none" xmlns="http://www.w3.org/2000/svg">
<rect x="3" y="3" width="314" height="114" fill="white"/>
<rect x="3" y="3" width="314" height="114" stroke="black" stroke-width="6"/>
<path d="M32.5355 82L25.6875 38.096H31.7035L37.0795 70.928H37.3355L42.3915 38.096H48.0875L53.2075 70.928H53.4635L58.7115 38.096H64.0875L57.2395 82H50.0715L45.0155 50.192H44.7595L39.7675 82H32.5355ZM83.2625 82.64C79.8492 82.64 77.0118 81.9573 74.7505 80.592C72.5318 79.2267 70.8678 77.3067 69.7585 74.832C68.6918 72.3573 68.1585 69.52 68.1585 66.32V64.976C68.1585 61.648 68.7772 58.768 70.0145 56.336C71.2518 53.904 73.0225 52.0267 75.3265 50.704C77.6305 49.3387 80.3612 48.656 83.5185 48.656C86.4625 48.656 88.9798 49.2533 91.0705 50.448C93.2038 51.6427 94.8465 53.264 95.9985 55.312C97.1932 57.36 97.7905 59.7067 97.7905 62.352V66.704H74.8145V67.792C74.8145 71.1627 75.6252 73.7227 77.2465 75.472C78.8678 77.2213 80.9158 78.096 83.3905 78.096C86.1212 78.096 88.1905 77.4347 89.5985 76.112C91.0492 74.7893 91.7745 72.7413 91.7745 69.968H97.7905C97.7905 72.5707 97.1718 74.832 95.9345 76.752C94.7398 78.6293 93.0545 80.08 90.8785 81.104C88.7452 82.128 86.2065 82.64 83.2625 82.64ZM74.8785 62.544H91.5185V61.584C91.5185 59.9627 91.1772 58.5333 90.4945 57.296C89.8545 56.016 88.9158 55.0133 87.6785 54.288C86.4412 53.5627 85.0118 53.2 83.3905 53.2C81.5558 53.2 79.9985 53.648 78.7185 54.544C77.4812 55.44 76.5212 56.592 75.8385 58C75.1985 59.3653 74.8785 60.7733 74.8785 62.224V62.544ZM121.638 82.64C118.224 82.64 115.387 81.9573 113.126 80.592C110.907 79.2267 109.243 77.3067 108.134 74.832C107.067 72.3573 106.534 69.52 106.534 66.32V64.976C106.534 61.648 107.152 58.768 108.39 56.336C109.627 53.904 111.398 52.0267 113.702 50.704C116.006 49.3387 118.736 48.656 121.894 48.656C124.838 48.656 127.355 49.2533 129.446 50.448C131.579 51.6427 133.222 53.264 134.374 55.312C135.568 57.36 136.166 59.7067 136.166 62.352V66.704H113.19V67.792C113.19 71.1627 114 73.7227 115.622 75.472C117.243 77.2213 119.291 78.096 121.766 78.096C124.496 78.096 126.566 77.4347 127.974 76.112C129.424 74.7893 130.15 72.7413 130.15 69.968H136.166C136.166 72.5707 135.547 74.832 134.31 76.752C133.115 78.6293 131.43 80.08 129.254 81.104C127.12 82.128 124.582 82.64 121.638 82.64ZM113.254 62.544H129.894V61.584C129.894 59.9627 129.552 58.5333 128.87 57.296C128.23 56.016 127.291 55.0133 126.054 54.288C124.816 53.5627 123.387 53.2 121.766 53.2C119.931 53.2 118.374 53.648 117.094 54.544C115.856 55.44 114.896 56.592 114.214 58C113.574 59.3653 113.254 60.7733 113.254 62.224V62.544ZM145.869 82V35.92H152.269V67.216L167.373 49.296H174.925L161.933 64.528L175.693 82H167.885L157.453 69.008L152.269 74.128V82H145.869ZM222.555 82L225.115 70.416H218.075V65.68H226.203L228.443 55.696H220.635V50.896H229.467L232.475 37.456H237.531L234.458 50.896H243.867L246.875 37.456H251.931L248.795 50.896H255.515V55.696H247.835L245.595 65.68H253.211V70.416H244.507L241.947 82H237.019L239.515 70.416H230.043L227.547 82H222.555ZM231.131 65.68H240.603L242.907 55.696H233.371L231.131 65.68ZM274.114 82.64C271.084 82.64 268.418 82.1067 266.114 81.04C263.852 79.9733 262.082 78.5013 260.802 76.624C259.522 74.7467 258.882 72.6133 258.882 70.224V69.072H264.898C264.898 72.016 265.751 74.1493 267.458 75.472C269.164 76.7947 271.468 77.456 274.37 77.456C277.186 77.456 279.49 76.816 281.282 75.536C283.074 74.2133 283.97 72.2507 283.97 69.648C283.97 67.856 283.543 66.384 282.69 65.232C281.879 64.08 280.791 63.248 279.426 62.736C278.06 62.1813 276.567 61.904 274.946 61.904H269.442V57.232H274.37C275.948 57.232 277.378 56.9547 278.658 56.4C279.98 55.8453 281.026 55.0347 281.794 53.968C282.604 52.8587 283.01 51.4933 283.01 49.872C283.01 48.2507 282.626 46.9067 281.858 45.84C281.09 44.7733 280.044 43.984 278.722 43.472C277.442 42.96 275.991 42.704 274.37 42.704C271.682 42.704 269.57 43.3653 268.034 44.688C266.54 46.0107 265.794 47.9307 265.794 50.448H259.97V49.36C259.97 46.928 260.588 44.8373 261.826 43.088C263.106 41.296 264.834 39.9093 267.01 38.928C269.186 37.9467 271.639 37.456 274.37 37.456H275.202C277.89 37.456 280.3 37.9467 282.434 38.928C284.567 39.8667 286.252 41.232 287.49 43.024C288.77 44.7733 289.41 46.864 289.41 49.296C289.41 51.0027 289.111 52.4747 288.514 53.712C287.916 54.9493 287.106 55.9947 286.082 56.848C285.058 57.7013 283.884 58.448 282.562 59.088V59.408C284.866 60.1333 286.743 61.392 288.194 63.184C289.687 64.976 290.434 67.3227 290.434 70.224C290.434 72.6987 289.772 74.8747 288.45 76.752C287.17 78.5867 285.378 80.0373 283.074 81.104C280.77 82.128 278.146 82.64 275.202 82.64H274.114Z" fill="black"/>
</svg>
