<svg width="320" height="120" viewBox="0 0 320 120" fill="none" xmlns="http://www.w3.org/2000/svg">
<rect width="320" height="120" fill="black"/>
<path d="M51.7767 82L39.2967 38.096H46.4007L55.5527 70.928H55.8088L65.0887 38.096H71.7448L80.9608 70.928H81.2168L90.3688 38.096H96.7688L84.2248 82H77.1847L68.2248 50.192H67.9048L58.9447 82H51.7767ZM112.421 82.64C109.52 82.64 106.96 82.0213 104.741 80.784C102.565 79.504 100.859 77.648 99.6212 75.216C98.3839 72.7413 97.7652 69.776 97.7652 66.32V64.976C97.7652 61.4773 98.4052 58.512 99.6852 56.08C101.008 53.648 102.8 51.8133 105.061 50.576C107.323 49.296 109.904 48.656 112.805 48.656H113.509C116.155 48.656 118.501 49.2107 120.549 50.32C122.597 51.4293 124.176 53.008 125.285 55.056C126.437 57.104 127.013 59.536 127.013 62.352V66.448H104.421C104.421 68.88 104.741 70.9707 105.381 72.72C106.064 74.4693 107.024 75.8133 108.261 76.752C109.541 77.648 111.099 78.096 112.933 78.096C114.469 78.096 115.835 77.7973 117.029 77.2C118.224 76.6027 119.184 75.6853 119.909 74.448C120.635 73.2107 120.997 71.6747 120.997 69.84H127.013C127.013 72.4427 126.395 74.704 125.157 76.624C123.92 78.544 122.235 80.0373 120.101 81.104C118.011 82.128 115.643 82.64 112.997 82.64H112.421ZM104.485 62.608H120.741C120.741 59.408 120.037 57.04 118.629 55.504C117.264 53.968 115.344 53.2 112.869 53.2C110.608 53.2 108.667 53.9893 107.045 55.568C105.467 57.1467 104.613 59.4933 104.485 62.608ZM145.784 82.64C142.882 82.64 140.322 82.0213 138.104 80.784C135.928 79.504 134.221 77.648 132.984 75.216C131.746 72.7413 131.128 69.776 131.128 66.32V64.976C131.128 61.4773 131.768 58.512 133.048 56.08C134.37 53.648 136.162 51.8133 138.424 50.576C140.685 49.296 143.266 48.656 146.168 48.656H146.872C149.517 48.656 151.864 49.2107 153.912 50.32C155.96 51.4293 157.538 53.008 158.648 55.056C159.8 57.104 160.376 59.536 160.376 62.352V66.448H137.784C137.784 68.88 138.104 70.9707 138.744 72.72C139.426 74.4693 140.386 75.8133 141.624 76.752C142.904 77.648 144.461 78.096 146.296 78.096C147.832 78.096 149.197 77.7973 150.392 77.2C151.586 76.6027 152.546 75.6853 153.272 74.448C153.997 73.2107 154.36 71.6747 154.36 69.84H160.376C160.376 72.4427 159.757 74.704 158.52 76.624C157.282 78.544 155.597 80.0373 153.464 81.104C151.373 82.128 149.005 82.64 146.36 82.64H145.784ZM137.848 62.608H154.104C154.104 59.408 153.4 57.04 151.992 55.504C150.626 53.968 148.706 53.2 146.232 53.2C143.97 53.2 142.029 53.9893 140.408 55.568C138.829 57.1467 137.976 59.4933 137.848 62.608ZM165.962 82V35.92H172.362V67.216L187.466 49.296H195.018L181.962 64.4L195.786 82H188.042L177.61 68.816L172.362 74.128V82H165.962ZM211.03 82L213.526 70.416H206.486V65.68H214.614L216.918 55.696H209.11V50.896H217.878L220.886 37.456H225.942L222.934 50.896H232.342L235.35 37.456H240.342L237.27 50.896H243.99V55.696H236.31L234.07 65.68H241.686V70.416H232.918L230.422 82H225.43L227.99 70.416H218.518L215.958 82H211.03ZM219.606 65.68H229.078L231.382 55.696H221.846L219.606 65.68ZM247.216 82V80.016C247.216 77.328 247.792 75.024 248.944 73.104C250.096 71.184 251.76 69.456 253.936 67.92L266.16 59.472C267.568 58.4907 268.763 57.296 269.744 55.888C270.726 54.48 271.216 52.7947 271.216 50.832C271.216 48.3147 270.47 46.352 268.976 44.944C267.526 43.536 265.392 42.832 262.576 42.832C260.87 42.832 259.334 43.216 257.968 43.984C256.646 44.752 255.6 45.7973 254.832 47.12C254.064 48.4427 253.68 49.936 253.68 51.6C253.68 51.8987 253.68 52.176 253.68 52.432C253.68 52.688 253.702 52.944 253.744 53.2H247.664C247.664 52.9013 247.664 52.688 247.664 52.56C247.664 52.3893 247.664 52.2187 247.664 52.048C247.664 49.1893 248.304 46.672 249.584 44.496C250.907 42.2773 252.699 40.5493 254.96 39.312C257.264 38.0747 259.888 37.456 262.832 37.456H263.6C266.587 37.456 269.126 38.0107 271.216 39.12C273.35 40.2293 274.971 41.7653 276.08 43.728C277.232 45.648 277.808 47.9307 277.808 50.576C277.808 52.7947 277.424 54.736 276.656 56.4C275.931 58.064 274.928 59.5147 273.648 60.752C272.411 61.9893 271.003 63.1413 269.424 64.208L258.032 72.08C257.392 72.5067 256.838 72.9973 256.368 73.552C255.899 74.064 255.536 74.576 255.28 75.088C255.067 75.5573 254.918 75.984 254.832 76.368H278V82H247.216Z" fill="white"/>
</svg>
