<svg width="360" height="120" viewBox="0 0 360 120" fill="none" xmlns="http://www.w3.org/2000/svg">
<rect width="360" height="120" fill="black"/>
<path d="M36.0195 82V76.624H41.0755V43.472H36.0195V38.096H53.0435V43.472H47.9235V76.624H53.0435V82H36.0195ZM58.531 82V49.296H63.139L64.035 54.096C65.2297 52.304 66.7657 50.96 68.643 50.064C70.563 49.1253 72.6323 48.656 74.851 48.656C77.1123 48.656 79.0963 49.0827 80.803 49.936C82.5523 50.7893 83.9177 52.0693 84.899 53.776C85.8803 55.44 86.371 57.5307 86.371 60.048V82H79.971V61.136C79.971 58.448 79.3523 56.528 78.115 55.376C76.8777 54.1813 75.1283 53.584 72.867 53.584C71.4163 53.584 70.0723 53.9467 68.835 54.672C67.6403 55.3973 66.6803 56.3787 65.955 57.616C65.2723 58.8107 64.931 60.1973 64.931 61.776V82H58.531ZM104.722 82.64C102.46 82.64 100.498 82.3627 98.8335 81.808C97.1695 81.2533 95.7828 80.528 94.6735 79.632C93.5642 78.6933 92.7322 77.6693 92.1775 76.56C91.6228 75.408 91.3455 74.2773 91.3455 73.168C91.3455 72.912 91.3455 72.6987 91.3455 72.528C91.3455 72.3147 91.3668 72.0587 91.4095 71.76H97.0415C96.9988 71.888 96.9775 72.016 96.9775 72.144C96.9775 72.2293 96.9775 72.336 96.9775 72.464C96.9775 73.7013 97.3615 74.7467 98.1295 75.6C98.9402 76.4107 100.007 77.0293 101.33 77.456C102.695 77.8827 104.231 78.096 105.938 78.096C107.388 78.096 108.711 77.904 109.906 77.52C111.143 77.136 112.103 76.5813 112.786 75.856C113.511 75.088 113.874 74.192 113.874 73.168C113.874 71.9733 113.49 71.056 112.722 70.416C111.954 69.7333 110.93 69.2213 109.65 68.88C108.37 68.496 106.962 68.176 105.426 67.92C103.932 67.6213 102.396 67.3013 100.818 66.96C99.2815 66.576 97.8735 66.064 96.5935 65.424C95.3135 64.784 94.2895 63.9093 93.5215 62.8C92.7535 61.648 92.3695 60.1333 92.3695 58.256C92.3695 56.8053 92.6895 55.4827 93.3295 54.288C93.9695 53.0933 94.8868 52.0907 96.0815 51.28C97.2762 50.4267 98.6842 49.7867 100.306 49.36C101.97 48.8907 103.783 48.656 105.746 48.656H106.578C108.455 48.656 110.162 48.912 111.698 49.424C113.234 49.8933 114.556 50.5547 115.666 51.408C116.775 52.2187 117.607 53.1573 118.162 54.224C118.759 55.248 119.058 56.336 119.058 57.488C119.058 57.7013 119.036 57.936 118.994 58.192C118.994 58.4053 118.994 58.5547 118.994 58.64H113.362V57.936C113.362 57.5093 113.255 57.04 113.042 56.528C112.871 55.9733 112.487 55.4613 111.89 54.992C111.335 54.48 110.546 54.0533 109.522 53.712C108.54 53.3707 107.26 53.2 105.682 53.2C104.188 53.2 102.951 53.3493 101.97 53.648C100.988 53.9467 100.22 54.3307 99.6655 54.8C99.1535 55.2693 98.7908 55.76 98.5775 56.272C98.3642 56.784 98.2575 57.2533 98.2575 57.68C98.2575 58.704 98.6415 59.536 99.4095 60.176C100.178 60.7733 101.202 61.2427 102.482 61.584C103.762 61.9253 105.17 62.224 106.706 62.48C108.284 62.736 109.842 63.056 111.378 63.44C112.914 63.7813 114.322 64.2933 115.602 64.976C116.882 65.616 117.906 66.512 118.674 67.664C119.442 68.816 119.826 70.3093 119.826 72.144C119.826 74.064 119.463 75.7067 118.738 77.072C118.012 78.3947 117.01 79.4613 115.73 80.272C114.45 81.0827 112.978 81.68 111.314 82.064C109.65 82.448 107.879 82.64 106.002 82.64H104.722ZM134.417 82.64C132.838 82.64 131.409 82.384 130.129 81.872C128.892 81.36 127.91 80.5493 127.185 79.44C126.502 78.288 126.161 76.7733 126.161 74.896V54.288H122.577V49.296H126.353L128.593 38.864H132.561V49.296H140.177V54.288H132.561V73.744C132.561 75.6213 132.945 76.816 133.713 77.328C134.481 77.84 135.313 78.096 136.209 78.096C136.678 78.096 137.318 77.9893 138.129 77.776C138.982 77.5627 139.665 77.3493 140.177 77.136V81.424C139.708 81.68 139.132 81.8933 138.449 82.064C137.809 82.2773 137.126 82.4267 136.401 82.512C135.718 82.5973 135.057 82.64 134.417 82.64ZM153.753 82.64C152.003 82.64 150.318 82.3627 148.697 81.808C147.118 81.2533 145.817 80.3147 144.793 78.992C143.811 77.6267 143.321 75.792 143.321 73.488C143.321 71.1413 143.833 69.264 144.857 67.856C145.923 66.4053 147.417 65.296 149.337 64.528C151.299 63.76 153.625 63.248 156.312 62.992C159.043 62.736 162.03 62.608 165.273 62.608V59.28C165.273 56.976 164.697 55.376 163.545 54.48C162.435 53.5413 160.665 53.072 158.233 53.072C156.185 53.072 154.414 53.52 152.921 54.416C151.427 55.2693 150.681 56.6347 150.681 58.512V59.28H144.473C144.43 59.0667 144.409 58.8533 144.409 58.64C144.409 58.384 144.409 58.128 144.409 57.872C144.409 55.9947 144.985 54.3733 146.137 53.008C147.331 51.6 148.931 50.5333 150.937 49.808C152.985 49.04 155.31 48.656 157.913 48.656H158.809C163.118 48.656 166.318 49.5093 168.409 51.216C170.542 52.9227 171.609 55.376 171.609 58.576V75.92C171.609 76.688 171.779 77.2427 172.121 77.584C172.462 77.9253 172.867 78.096 173.337 78.096C173.806 78.096 174.297 78.0107 174.809 77.84C175.363 77.6693 175.854 77.456 176.281 77.2V81.296C175.726 81.7227 175.043 82.0427 174.233 82.256C173.422 82.512 172.462 82.64 171.353 82.64C169.987 82.64 168.878 82.384 168.025 81.872C167.214 81.3173 166.617 80.592 166.233 79.696C165.849 78.8 165.614 77.7973 165.529 76.688C164.291 78.608 162.67 80.08 160.665 81.104C158.702 82.128 156.398 82.64 153.753 82.64ZM156.312 78.096C157.806 78.096 159.235 77.776 160.601 77.136C161.966 76.4533 163.075 75.4293 163.929 74.064C164.825 72.6987 165.273 70.992 165.273 68.944V66.512C162.073 66.512 159.321 66.6827 157.017 67.024C154.713 67.3227 152.942 67.92 151.705 68.816C150.51 69.712 149.913 71.0987 149.913 72.976C149.913 74.768 150.446 76.0693 151.513 76.88C152.579 77.6907 154.179 78.096 156.312 78.096ZM185.923 94.032C184.429 94.032 183.064 93.6693 181.827 92.944C180.632 92.2187 179.672 91.2373 178.947 90C178.221 88.8053 177.859 87.504 177.859 86.096C177.859 84.56 178.285 83.1093 179.139 81.744C179.992 80.3787 181.165 79.376 182.659 78.736C181.72 78.1387 180.973 77.3707 180.419 76.432C179.907 75.4933 179.651 74.4907 179.651 73.424C179.651 71.8453 180.141 70.5227 181.123 69.456C182.104 68.3467 183.384 67.5147 184.963 66.96C183.64 66.064 182.573 65.0187 181.763 63.824C180.952 62.5867 180.547 61.136 180.547 59.472C180.547 57.6373 181.016 55.9093 181.955 54.288C182.936 52.624 184.408 51.28 186.371 50.256C188.333 49.1893 190.787 48.656 193.731 48.656C195.096 48.656 196.333 48.7413 197.443 48.912C198.595 49.0827 199.619 49.36 200.515 49.744C202.136 49.0613 203.395 48.1653 204.291 47.056C205.187 45.9467 205.699 44.7307 205.827 43.408H211.075C211.075 44.7733 210.797 46.032 210.243 47.184C209.731 48.336 208.984 49.296 208.003 50.064C207.021 50.832 205.848 51.3653 204.483 51.664L204.419 51.856C205.4 52.7093 206.168 53.712 206.723 54.864C207.32 56.016 207.619 57.296 207.619 58.704C207.619 60.5813 207.128 62.3307 206.147 63.952C205.165 65.5307 203.736 66.8107 201.859 67.792C200.024 68.7307 197.741 69.2 195.011 69.2H190.019C188.696 69.2 187.629 69.52 186.819 70.16C186.008 70.8 185.603 71.6533 185.603 72.72C185.603 73.744 185.987 74.576 186.755 75.216C187.565 75.856 188.653 76.176 190.019 76.176H202.371C205.059 76.176 207.171 77.008 208.707 78.672C210.285 80.2933 211.075 82.2987 211.075 84.688C211.075 86.3947 210.648 87.952 209.795 89.36C208.984 90.8107 207.832 91.9413 206.339 92.752C204.888 93.6053 203.181 94.032 201.219 94.032H185.923ZM187.971 89.68H200.259C201.539 89.68 202.648 89.232 203.587 88.336C204.568 87.44 205.059 86.352 205.059 85.072C205.059 84.0053 204.653 83.0667 203.843 82.256C203.075 81.4453 202.136 81.04 201.027 81.04H187.971C186.733 81.04 185.688 81.4667 184.835 82.32C183.981 83.1733 183.555 84.1973 183.555 85.392C183.555 86.544 183.981 87.5467 184.835 88.4C185.688 89.2533 186.733 89.68 187.971 89.68ZM194.051 65.232C196.397 65.232 198.232 64.6133 199.555 63.376C200.877 62.1387 201.539 60.6667 201.539 58.96C201.539 57.2533 200.877 55.7813 199.555 54.544C198.232 53.264 196.397 52.624 194.051 52.624C191.704 52.624 189.869 53.264 188.547 54.544C187.267 55.7813 186.627 57.2533 186.627 58.96C186.627 60.6667 187.267 62.1387 188.547 63.376C189.869 64.6133 191.704 65.232 194.051 65.232ZM214.094 82V49.296H218.83L219.726 54.096C219.768 54.0107 219.96 53.6907 220.302 53.136C220.643 52.5813 221.155 51.9627 221.838 51.28C222.563 50.5547 223.48 49.936 224.59 49.424C225.742 48.912 227.15 48.656 228.814 48.656C231.075 48.656 232.931 49.1253 234.382 50.064C235.875 50.96 236.963 52.1973 237.646 53.776C238.371 55.3547 238.734 57.1467 238.734 59.152C238.734 59.5787 238.712 60.0267 238.67 60.496C238.627 60.9227 238.606 61.264 238.606 61.52H233.102V60.304C233.102 59.3653 232.91 58.384 232.526 57.36C232.184 56.2933 231.566 55.4187 230.67 54.736C229.774 54.0107 228.515 53.648 226.894 53.648C225.699 53.648 224.675 53.904 223.822 54.416C223.011 54.928 222.35 55.568 221.838 56.336C221.368 57.104 221.027 57.9147 220.814 58.768C220.6 59.6213 220.494 60.4107 220.494 61.136V82H214.094ZM250.715 82.64C248.966 82.64 247.28 82.3627 245.659 81.808C244.08 81.2533 242.779 80.3147 241.755 78.992C240.774 77.6267 240.283 75.792 240.283 73.488C240.283 71.1413 240.795 69.264 241.819 67.856C242.886 66.4053 244.379 65.296 246.299 64.528C248.262 63.76 250.587 63.248 253.275 62.992C256.006 62.736 258.992 62.608 262.235 62.608V59.28C262.235 56.976 261.659 55.376 260.507 54.48C259.398 53.5413 257.627 53.072 255.195 53.072C253.147 53.072 251.376 53.52 249.883 54.416C248.39 55.2693 247.643 56.6347 247.643 58.512V59.28H241.435C241.392 59.0667 241.371 58.8533 241.371 58.64C241.371 58.384 241.371 58.128 241.371 57.872C241.371 55.9947 241.947 54.3733 243.099 53.008C244.294 51.6 245.894 50.5333 247.899 49.808C249.947 49.04 252.272 48.656 254.875 48.656H255.771C260.08 48.656 263.28 49.5093 265.371 51.216C267.504 52.9227 268.571 55.376 268.571 58.576V75.92C268.571 76.688 268.742 77.2427 269.083 77.584C269.424 77.9253 269.83 78.096 270.299 78.096C270.768 78.096 271.259 78.0107 271.771 77.84C272.326 77.6693 272.816 77.456 273.243 77.2V81.296C272.688 81.7227 272.006 82.0427 271.195 82.256C270.384 82.512 269.424 82.64 268.315 82.64C266.95 82.64 265.84 82.384 264.987 81.872C264.176 81.3173 263.579 80.592 263.195 79.696C262.811 78.8 262.576 77.7973 262.491 76.688C261.254 78.608 259.632 80.08 257.627 81.104C255.664 82.128 253.36 82.64 250.715 82.64ZM253.275 78.096C254.768 78.096 256.198 77.776 257.563 77.136C258.928 76.4533 260.038 75.4293 260.891 74.064C261.787 72.6987 262.235 70.992 262.235 68.944V66.512C259.035 66.512 256.283 66.6827 253.979 67.024C251.675 67.3227 249.904 67.92 248.667 68.816C247.472 69.712 246.875 71.0987 246.875 72.976C246.875 74.768 247.408 76.0693 248.475 76.88C249.542 77.6907 251.142 78.096 253.275 78.096ZM277.381 82V49.296H282.117L283.077 54.096C284.144 52.3893 285.466 51.0667 287.045 50.128C288.624 49.1467 290.437 48.656 292.485 48.656C294.618 48.656 296.517 49.0827 298.181 49.936C299.845 50.7893 301.146 52.1547 302.085 54.032C303.024 52.4533 304.325 51.1733 305.989 50.192C307.696 49.168 309.701 48.656 312.005 48.656C314.096 48.656 315.952 49.0827 317.573 49.936C319.194 50.7893 320.453 52.0693 321.349 53.776C322.288 55.44 322.757 57.5307 322.757 60.048V82H316.421V61.456C316.421 58.7253 315.866 56.7413 314.757 55.504C313.69 54.2667 312.154 53.648 310.149 53.648C308.826 53.648 307.632 53.9893 306.565 54.672C305.541 55.3547 304.73 56.3147 304.133 57.552C303.578 58.7893 303.301 60.176 303.301 61.712V82H296.901V61.456C296.901 58.7253 296.346 56.7413 295.237 55.504C294.17 54.2667 292.613 53.648 290.565 53.648C289.242 53.648 288.069 53.9893 287.045 54.672C286.021 55.3547 285.21 56.3147 284.613 57.552C284.058 58.7893 283.781 60.176 283.781 61.712V82H277.381Z" fill="white"/>
</svg>
