<svg width="400" height="120" viewBox="0 0 400 120" fill="none" xmlns="http://www.w3.org/2000/svg">
<rect width="400" height="120" fill="black"/>
<path d="M45.6368 82V43.472H32.1328V38.096H65.9888V43.472H52.4848V82H45.6368ZM79.3838 82.64C76.4824 82.64 73.9224 82.0213 71.7037 80.784C69.5277 79.504 67.8211 77.648 66.5837 75.216C65.3464 72.7413 64.7277 69.776 64.7277 66.32V64.976C64.7277 61.4773 65.3677 58.512 66.6477 56.08C67.9704 53.648 69.7624 51.8133 72.0237 50.576C74.2851 49.296 76.8664 48.656 79.7677 48.656H80.4718C83.1171 48.656 85.4638 49.2107 87.5118 50.32C89.5598 51.4293 91.1384 53.008 92.2478 55.056C93.3998 57.104 93.9757 59.536 93.9757 62.352V66.448H71.3837C71.3837 68.88 71.7037 70.9707 72.3438 72.72C73.0264 74.4693 73.9864 75.8133 75.2238 76.752C76.5037 77.648 78.0611 78.096 79.8958 78.096C81.4318 78.096 82.7971 77.7973 83.9918 77.2C85.1864 76.6027 86.1464 75.6853 86.8717 74.448C87.5971 73.2107 87.9598 71.6747 87.9598 69.84H93.9757C93.9757 72.4427 93.3571 74.704 92.1198 76.624C90.8824 78.544 89.1971 80.0373 87.0638 81.104C84.9731 82.128 82.6051 82.64 79.9597 82.64H79.3838ZM71.4478 62.608H87.7038C87.7038 59.408 86.9998 57.04 85.5918 55.504C84.2264 53.968 82.3064 53.2 79.8318 53.2C77.5704 53.2 75.6291 53.9893 74.0077 55.568C72.4291 57.1467 71.5757 59.4933 71.4478 62.608ZM112.298 82.64C109.568 82.64 107.136 81.9787 105.002 80.656C102.869 79.2907 101.184 77.392 99.9462 74.96C98.7516 72.528 98.1542 69.6693 98.1542 66.384V64.848C98.1542 62.3733 98.5169 60.1547 99.2422 58.192C100.01 56.1867 101.034 54.48 102.314 53.072C103.637 51.6213 105.173 50.5333 106.922 49.808C108.714 49.04 110.634 48.656 112.682 48.656H113.386C116.074 48.656 118.421 49.2107 120.426 50.32C122.432 51.3867 123.989 52.9227 125.098 54.928C126.25 56.8907 126.826 59.28 126.826 62.096H121.13C121.13 60.0907 120.789 58.4267 120.106 57.104C119.424 55.7813 118.485 54.8 117.29 54.16C116.096 53.52 114.752 53.2 113.258 53.2C110.826 53.2 108.8 54.032 107.178 55.696C105.6 57.36 104.81 59.8773 104.81 63.248V67.92C104.81 71.2907 105.6 73.8293 107.178 75.536C108.757 77.2427 110.805 78.096 113.322 78.096C114.901 78.096 116.288 77.7973 117.482 77.2C118.677 76.56 119.616 75.6 120.298 74.32C120.981 72.9973 121.322 71.2907 121.322 69.2H126.826C126.826 72.0587 126.208 74.4907 124.97 76.496C123.776 78.5013 122.133 80.0373 120.042 81.104C117.994 82.128 115.669 82.64 113.066 82.64H112.298ZM131.862 82V35.92H138.262V53.648C139.414 51.984 140.886 50.7467 142.678 49.936C144.513 49.0827 146.39 48.656 148.31 48.656C150.529 48.656 152.492 49.0827 154.198 49.936C155.905 50.7893 157.249 52.0693 158.23 53.776C159.254 55.44 159.766 57.5307 159.766 60.048V82H153.366V61.136C153.366 58.448 152.726 56.528 151.446 55.376C150.209 54.1813 148.46 53.584 146.198 53.584C144.748 53.584 143.404 53.9467 142.166 54.672C140.972 55.3973 140.012 56.3787 139.286 57.616C138.604 58.8107 138.262 60.1973 138.262 61.776V82H131.862ZM167.305 82V38.096H187.209C189.513 38.096 191.497 38.544 193.161 39.44C194.868 40.2933 196.169 41.5093 197.065 43.088C198.004 44.624 198.473 46.3947 198.473 48.4C198.473 50.576 198.089 52.3893 197.321 53.84C196.553 55.2907 195.572 56.4213 194.377 57.232C193.225 58.0427 192.073 58.64 190.921 59.024V59.408C191.647 59.536 192.5 59.792 193.481 60.176C194.463 60.56 195.401 61.136 196.297 61.904C197.236 62.6293 198.004 63.6107 198.601 64.848C199.199 66.0853 199.497 67.6213 199.497 69.456C199.497 71.8453 198.943 74 197.833 75.92C196.767 77.7973 195.295 79.2907 193.417 80.4C191.54 81.4667 189.385 82 186.953 82H167.305ZM173.897 76.688H185.673C187.039 76.688 188.255 76.368 189.321 75.728C190.388 75.0453 191.22 74.1493 191.817 73.04C192.457 71.9307 192.777 70.7147 192.777 69.392C192.777 67.984 192.457 66.7467 191.817 65.68C191.177 64.6133 190.324 63.7813 189.257 63.184C188.191 62.5867 186.996 62.288 185.673 62.288H173.897V76.688ZM173.897 56.976H184.969C186.335 56.976 187.529 56.656 188.553 56.016C189.62 55.3333 190.431 54.4587 190.985 53.392C191.583 52.2827 191.881 51.088 191.881 49.808C191.881 47.76 191.348 46.1813 190.281 45.072C189.257 43.92 187.743 43.344 185.737 43.344H173.897V56.976ZM213.534 82.64C211.784 82.64 210.099 82.3627 208.478 81.808C206.899 81.2533 205.598 80.3147 204.574 78.992C203.592 77.6267 203.102 75.792 203.102 73.488C203.102 71.1413 203.614 69.264 204.638 67.856C205.704 66.4053 207.198 65.296 209.118 64.528C211.08 63.76 213.406 63.248 216.094 62.992C218.824 62.736 221.811 62.608 225.054 62.608V59.28C225.054 56.976 224.478 55.376 223.326 54.48C222.216 53.5413 220.446 53.072 218.014 53.072C215.966 53.072 214.195 53.52 212.702 54.416C211.208 55.2693 210.462 56.6347 210.462 58.512V59.28H204.254C204.211 59.0667 204.19 58.8533 204.19 58.64C204.19 58.384 204.19 58.128 204.19 57.872C204.19 55.9947 204.766 54.3733 205.918 53.008C207.112 51.6 208.712 50.5333 210.718 49.808C212.766 49.04 215.091 48.656 217.694 48.656H218.59C222.899 48.656 226.099 49.5093 228.19 51.216C230.323 52.9227 231.39 55.376 231.39 58.576V75.92C231.39 76.688 231.56 77.2427 231.902 77.584C232.243 77.9253 232.648 78.096 233.118 78.096C233.587 78.096 234.078 78.0107 234.59 77.84C235.144 77.6693 235.635 77.456 236.062 77.2V81.296C235.507 81.7227 234.824 82.0427 234.014 82.256C233.203 82.512 232.243 82.64 231.134 82.64C229.768 82.64 228.659 82.384 227.806 81.872C226.995 81.3173 226.398 80.592 226.014 79.696C225.63 78.8 225.395 77.7973 225.31 76.688C224.072 78.608 222.451 80.08 220.446 81.104C218.483 82.128 216.179 82.64 213.534 82.64ZM216.094 78.096C217.587 78.096 219.016 77.776 220.382 77.136C221.747 76.4533 222.856 75.4293 223.71 74.064C224.606 72.6987 225.054 70.992 225.054 68.944V66.512C221.854 66.512 219.102 66.6827 216.798 67.024C214.494 67.3227 212.723 67.92 211.486 68.816C210.291 69.712 209.694 71.0987 209.694 72.976C209.694 74.768 210.227 76.0693 211.294 76.88C212.36 77.6907 213.96 78.096 216.094 78.096ZM251.528 82.64C249.266 82.64 247.304 82.3627 245.64 81.808C243.976 81.2533 242.589 80.528 241.48 79.632C240.37 78.6933 239.538 77.6693 238.984 76.56C238.429 75.408 238.152 74.2773 238.152 73.168C238.152 72.912 238.152 72.6987 238.152 72.528C238.152 72.3147 238.173 72.0587 238.216 71.76H243.848C243.805 71.888 243.784 72.016 243.784 72.144C243.784 72.2293 243.784 72.336 243.784 72.464C243.784 73.7013 244.168 74.7467 244.936 75.6C245.746 76.4107 246.813 77.0293 248.136 77.456C249.501 77.8827 251.037 78.096 252.744 78.096C254.194 78.096 255.517 77.904 256.712 77.52C257.949 77.136 258.909 76.5813 259.592 75.856C260.317 75.088 260.68 74.192 260.68 73.168C260.68 71.9733 260.296 71.056 259.528 70.416C258.76 69.7333 257.736 69.2213 256.456 68.88C255.176 68.496 253.768 68.176 252.232 67.92C250.738 67.6213 249.202 67.3013 247.624 66.96C246.088 66.576 244.68 66.064 243.4 65.424C242.12 64.784 241.096 63.9093 240.328 62.8C239.56 61.648 239.176 60.1333 239.176 58.256C239.176 56.8053 239.496 55.4827 240.136 54.288C240.776 53.0933 241.693 52.0907 242.888 51.28C244.082 50.4267 245.49 49.7867 247.112 49.36C248.776 48.8907 250.589 48.656 252.552 48.656H253.384C255.261 48.656 256.968 48.912 258.504 49.424C260.04 49.8933 261.362 50.5547 262.472 51.408C263.581 52.2187 264.413 53.1573 264.968 54.224C265.565 55.248 265.864 56.336 265.864 57.488C265.864 57.7013 265.842 57.936 265.8 58.192C265.8 58.4053 265.8 58.5547 265.8 58.64H260.168V57.936C260.168 57.5093 260.061 57.04 259.848 56.528C259.677 55.9733 259.293 55.4613 258.696 54.992C258.141 54.48 257.352 54.0533 256.328 53.712C255.346 53.3707 254.066 53.2 252.488 53.2C250.994 53.2 249.757 53.3493 248.776 53.648C247.794 53.9467 247.026 54.3307 246.472 54.8C245.96 55.2693 245.597 55.76 245.384 56.272C245.17 56.784 245.064 57.2533 245.064 57.68C245.064 58.704 245.448 59.536 246.216 60.176C246.984 60.7733 248.008 61.2427 249.288 61.584C250.568 61.9253 251.976 62.224 253.512 62.48C255.09 62.736 256.648 63.056 258.184 63.44C259.72 63.7813 261.128 64.2933 262.408 64.976C263.688 65.616 264.712 66.512 265.48 67.664C266.248 68.816 266.632 70.3093 266.632 72.144C266.632 74.064 266.269 75.7067 265.544 77.072C264.818 78.3947 263.816 79.4613 262.536 80.272C261.256 81.0827 259.784 81.68 258.12 82.064C256.456 82.448 254.685 82.64 252.808 82.64H251.528ZM272.199 82V49.296H278.599V82H272.199ZM272.007 41.296V35.92H278.791V41.296H272.007ZM298.786 82.64C296.055 82.64 293.623 81.9787 291.49 80.656C289.356 79.2907 287.671 77.392 286.434 74.96C285.239 72.528 284.642 69.6693 284.642 66.384V64.848C284.642 62.3733 285.004 60.1547 285.73 58.192C286.498 56.1867 287.522 54.48 288.802 53.072C290.124 51.6213 291.66 50.5333 293.41 49.808C295.202 49.04 297.122 48.656 299.17 48.656H299.874C302.562 48.656 304.908 49.2107 306.914 50.32C308.919 51.3867 310.476 52.9227 311.586 54.928C312.738 56.8907 313.314 59.28 313.314 62.096H307.618C307.618 60.0907 307.276 58.4267 306.594 57.104C305.911 55.7813 304.972 54.8 303.778 54.16C302.583 53.52 301.239 53.2 299.746 53.2C297.314 53.2 295.287 54.032 293.666 55.696C292.087 57.36 291.298 59.8773 291.298 63.248V67.92C291.298 71.2907 292.087 73.8293 293.666 75.536C295.244 77.2427 297.292 78.096 299.81 78.096C301.388 78.096 302.775 77.7973 303.97 77.2C305.164 76.56 306.103 75.6 306.786 74.32C307.468 72.9973 307.81 71.2907 307.81 69.2H313.314C313.314 72.0587 312.695 74.4907 311.458 76.496C310.263 78.5013 308.62 80.0373 306.53 81.104C304.482 82.128 302.156 82.64 299.554 82.64H298.786ZM329.678 82.64C327.416 82.64 325.454 82.3627 323.79 81.808C322.126 81.2533 320.739 80.528 319.63 79.632C318.52 78.6933 317.688 77.6693 317.134 76.56C316.579 75.408 316.302 74.2773 316.302 73.168C316.302 72.912 316.302 72.6987 316.302 72.528C316.302 72.3147 316.323 72.0587 316.366 71.76H321.998C321.955 71.888 321.934 72.016 321.934 72.144C321.934 72.2293 321.934 72.336 321.934 72.464C321.934 73.7013 322.318 74.7467 323.086 75.6C323.896 76.4107 324.963 77.0293 326.286 77.456C327.651 77.8827 329.187 78.096 330.894 78.096C332.344 78.096 333.667 77.904 334.862 77.52C336.099 77.136 337.059 76.5813 337.742 75.856C338.467 75.088 338.83 74.192 338.83 73.168C338.83 71.9733 338.446 71.056 337.678 70.416C336.91 69.7333 335.886 69.2213 334.606 68.88C333.326 68.496 331.918 68.176 330.382 67.92C328.888 67.6213 327.352 67.3013 325.774 66.96C324.238 66.576 322.83 66.064 321.55 65.424C320.27 64.784 319.246 63.9093 318.478 62.8C317.71 61.648 317.326 60.1333 317.326 58.256C317.326 56.8053 317.646 55.4827 318.286 54.288C318.926 53.0933 319.843 52.0907 321.038 51.28C322.232 50.4267 323.64 49.7867 325.262 49.36C326.926 48.8907 328.739 48.656 330.702 48.656H331.534C333.411 48.656 335.118 48.912 336.654 49.424C338.19 49.8933 339.512 50.5547 340.622 51.408C341.731 52.2187 342.563 53.1573 343.118 54.224C343.715 55.248 344.014 56.336 344.014 57.488C344.014 57.7013 343.992 57.936 343.95 58.192C343.95 58.4053 343.95 58.5547 343.95 58.64H338.318V57.936C338.318 57.5093 338.211 57.04 337.998 56.528C337.827 55.9733 337.443 55.4613 336.846 54.992C336.291 54.48 335.502 54.0533 334.478 53.712C333.496 53.3707 332.216 53.2 330.638 53.2C329.144 53.2 327.907 53.3493 326.926 53.648C325.944 53.9467 325.176 54.3307 324.622 54.8C324.11 55.2693 323.747 55.76 323.534 56.272C323.32 56.784 323.214 57.2533 323.214 57.68C323.214 58.704 323.598 59.536 324.366 60.176C325.134 60.7733 326.158 61.2427 327.438 61.584C328.718 61.9253 330.126 62.224 331.662 62.48C333.24 62.736 334.798 63.056 336.334 63.44C337.87 63.7813 339.278 64.2933 340.558 64.976C341.838 65.616 342.862 66.512 343.63 67.664C344.398 68.816 344.782 70.3093 344.782 72.144C344.782 74.064 344.419 75.7067 343.694 77.072C342.968 78.3947 341.966 79.4613 340.686 80.272C339.406 81.0827 337.934 81.68 336.27 82.064C334.606 82.448 332.835 82.64 330.958 82.64H329.678ZM348.563 82V76.624H353.619V43.472H348.563V38.096H365.587V43.472H360.467V76.624H365.587V82H348.563Z" fill="white"/>
</svg>
