<svg width="360" height="120" viewBox="0 0 360 120" fill="none" xmlns="http://www.w3.org/2000/svg">
<rect width="360" height="120" fill="white"/>
<path d="M36.1678 82V38.096H41.8638L60.1038 65.616L62.5998 69.776L62.8558 69.712V38.096H68.9998V82H63.1118L44.3598 53.584L42.5038 50.448L42.3118 50.512V82H36.1678ZM89.4508 82.64C86.6348 82.64 84.0961 81.9787 81.8348 80.656C79.6161 79.3333 77.8667 77.4347 76.5867 74.96C75.3067 72.4853 74.6667 69.5627 74.6667 66.192V65.104C74.6667 61.648 75.3067 58.704 76.5867 56.272C77.8667 53.7973 79.6161 51.92 81.8348 50.64C84.0961 49.3173 86.6348 48.656 89.4508 48.656H90.2828C93.1414 48.656 95.6801 49.3173 97.8988 50.64C100.117 51.9627 101.867 53.8613 103.147 56.336C104.427 58.768 105.067 61.6907 105.067 65.104V66.192C105.067 69.5627 104.427 72.4853 103.147 74.96C101.867 77.4347 100.096 79.3333 97.8348 80.656C95.6161 81.9787 93.0988 82.64 90.2828 82.64H89.4508ZM89.8347 78.096C91.4561 78.096 92.9068 77.712 94.1868 76.944C95.4668 76.176 96.4908 75.024 97.2588 73.488C98.0268 71.952 98.4108 70.0533 98.4108 67.792V63.504C98.4108 61.2 98.0268 59.3013 97.2588 57.808C96.4908 56.272 95.4668 55.12 94.1868 54.352C92.9068 53.584 91.4561 53.2 89.8347 53.2C88.2561 53.2 86.8267 53.584 85.5468 54.352C84.2668 55.12 83.2427 56.272 82.4747 57.808C81.7067 59.3013 81.3228 61.2 81.3228 63.504V67.792C81.3228 70.0533 81.7067 71.952 82.4747 73.488C83.2427 75.024 84.2668 76.176 85.5468 76.944C86.8267 77.712 88.2561 78.096 89.8347 78.096ZM119.911 82.64C118.332 82.64 116.903 82.384 115.623 81.872C114.385 81.36 113.404 80.5493 112.679 79.44C111.996 78.288 111.655 76.7733 111.655 74.896V54.288H108.071V49.296H111.847L114.087 38.864H118.055V49.296H125.671V54.288H118.055V73.744C118.055 75.6213 118.439 76.816 119.207 77.328C119.975 77.84 120.807 78.096 121.703 78.096C122.172 78.096 122.812 77.9893 123.623 77.776C124.476 77.5627 125.159 77.3493 125.671 77.136V81.424C125.201 81.68 124.625 81.8933 123.943 82.064C123.303 82.2773 122.62 82.4267 121.895 82.512C121.212 82.5973 120.551 82.64 119.911 82.64ZM131.374 82V49.296H137.774V82H131.374ZM131.182 41.296V35.92H137.966V41.296H131.182ZM158.601 82.64C155.785 82.64 153.246 81.9787 150.985 80.656C148.766 79.3333 147.017 77.4347 145.737 74.96C144.457 72.4853 143.817 69.5627 143.817 66.192V65.104C143.817 61.648 144.457 58.704 145.737 56.272C147.017 53.7973 148.766 51.92 150.985 50.64C153.246 49.3173 155.785 48.656 158.601 48.656H159.433C162.291 48.656 164.83 49.3173 167.049 50.64C169.267 51.9627 171.017 53.8613 172.297 56.336C173.577 58.768 174.217 61.6907 174.217 65.104V66.192C174.217 69.5627 173.577 72.4853 172.297 74.96C171.017 77.4347 169.246 79.3333 166.985 80.656C164.766 81.9787 162.249 82.64 159.433 82.64H158.601ZM158.985 78.096C160.606 78.096 162.057 77.712 163.337 76.944C164.617 76.176 165.641 75.024 166.409 73.488C167.177 71.952 167.561 70.0533 167.561 67.792V63.504C167.561 61.2 167.177 59.3013 166.409 57.808C165.641 56.272 164.617 55.12 163.337 54.352C162.057 53.584 160.606 53.2 158.985 53.2C157.406 53.2 155.977 53.584 154.697 54.352C153.417 55.12 152.393 56.272 151.625 57.808C150.857 59.3013 150.473 61.2 150.473 63.504V67.792C150.473 70.0533 150.857 71.952 151.625 73.488C152.393 75.024 153.417 76.176 154.697 76.944C155.977 77.712 157.406 78.096 158.985 78.096ZM179.712 82V49.296H184.32L185.216 54.096C186.411 52.304 187.947 50.96 189.824 50.064C191.744 49.1253 193.814 48.656 196.032 48.656C198.294 48.656 200.278 49.0827 201.984 49.936C203.734 50.7893 205.099 52.0693 206.08 53.776C207.062 55.44 207.552 57.5307 207.552 60.048V82H201.152V61.136C201.152 58.448 200.534 56.528 199.296 55.376C198.059 54.1813 196.31 53.584 194.048 53.584C192.598 53.584 191.254 53.9467 190.016 54.672C188.822 55.3973 187.862 56.3787 187.136 57.616C186.454 58.8107 186.112 60.1973 186.112 61.776V82H179.712ZM240.723 82.64C237.693 82.64 234.92 82.2133 232.403 81.36C229.928 80.5067 227.944 79.12 226.451 77.2C224.957 75.28 224.211 72.72 224.211 69.52C224.211 69.3493 224.211 69.1573 224.211 68.944C224.211 68.688 224.232 68.4533 224.275 68.24H230.611C230.568 68.496 230.547 68.7307 230.547 68.944C230.547 69.1573 230.547 69.392 230.547 69.648C230.547 71.3973 230.973 72.8267 231.827 73.936C232.68 75.0453 233.875 75.8773 235.411 76.432C236.947 76.9867 238.717 77.264 240.723 77.264C242.856 77.264 244.691 77.0293 246.227 76.56C247.763 76.0907 248.936 75.3227 249.747 74.256C250.6 73.1467 251.027 71.7173 251.027 69.968C251.027 68.3893 250.557 67.1307 249.619 66.192C248.68 65.2107 247.443 64.4427 245.907 63.888C244.371 63.3333 242.685 62.8427 240.851 62.416C239.016 61.9467 237.181 61.4347 235.347 60.88C233.555 60.3253 231.891 59.6 230.355 58.704C228.819 57.808 227.581 56.6133 226.643 55.12C225.704 53.6267 225.235 51.728 225.235 49.424C225.235 46.6933 225.96 44.4533 227.411 42.704C228.904 40.9547 230.845 39.6533 233.235 38.8C235.667 37.904 238.312 37.456 241.171 37.456C244.029 37.456 246.632 37.8827 248.979 38.736C251.368 39.5467 253.267 40.848 254.675 42.64C256.083 44.3893 256.787 46.7147 256.787 49.616V50.448H250.579V49.424C250.579 47.9733 250.173 46.7573 249.363 45.776C248.552 44.7947 247.464 44.0693 246.099 43.6C244.733 43.088 243.133 42.832 241.299 42.832C239.507 42.832 237.907 43.0453 236.499 43.472C235.133 43.856 234.045 44.496 233.235 45.392C232.424 46.2453 232.019 47.3973 232.019 48.848C232.019 50.3413 232.488 51.536 233.427 52.432C234.365 53.328 235.603 54.0533 237.139 54.608C238.675 55.12 240.36 55.5893 242.195 56.016C244.072 56.4427 245.928 56.9333 247.763 57.488C249.597 58.0427 251.283 58.7893 252.819 59.728C254.355 60.624 255.592 61.8187 256.531 63.312C257.469 64.8053 257.939 66.7253 257.939 69.072C257.939 72.3573 257.171 75.0027 255.635 77.008C254.099 78.9707 252.029 80.4 249.427 81.296C246.824 82.192 243.923 82.64 240.723 82.64ZM263.812 82V49.296H270.212V82H263.812ZM263.62 41.296V35.92H270.404V41.296H263.62ZM287.198 82.64C285.62 82.64 284.19 82.384 282.91 81.872C281.673 81.36 280.692 80.5493 279.966 79.44C279.284 78.288 278.942 76.7733 278.942 74.896V54.288H275.358V49.296H279.134L281.374 38.864H285.342V49.296H292.958V54.288H285.342V73.744C285.342 75.6213 285.726 76.816 286.494 77.328C287.262 77.84 288.094 78.096 288.99 78.096C289.46 78.096 290.1 77.9893 290.91 77.776C291.764 77.5627 292.446 77.3493 292.958 77.136V81.424C292.489 81.68 291.913 81.8933 291.23 82.064C290.59 82.2773 289.908 82.4267 289.182 82.512C288.5 82.5973 287.838 82.64 287.198 82.64ZM311.334 82.64C308.432 82.64 305.872 82.0213 303.654 80.784C301.478 79.504 299.771 77.648 298.534 75.216C297.296 72.7413 296.678 69.776 296.678 66.32V64.976C296.678 61.4773 297.318 58.512 298.598 56.08C299.92 53.648 301.712 51.8133 303.974 50.576C306.235 49.296 308.816 48.656 311.718 48.656H312.422C315.067 48.656 317.414 49.2107 319.462 50.32C321.51 51.4293 323.088 53.008 324.198 55.056C325.35 57.104 325.926 59.536 325.926 62.352V66.448H303.334C303.334 68.88 303.654 70.9707 304.294 72.72C304.976 74.4693 305.936 75.8133 307.174 76.752C308.454 77.648 310.011 78.096 311.846 78.096C313.382 78.096 314.747 77.7973 315.942 77.2C317.136 76.6027 318.096 75.6853 318.822 74.448C319.547 73.2107 319.91 71.6747 319.91 69.84H325.926C325.926 72.4427 325.307 74.704 324.07 76.624C322.832 78.544 321.147 80.0373 319.014 81.104C316.923 82.128 314.555 82.64 311.91 82.64H311.334ZM303.398 62.608H319.654C319.654 59.408 318.95 57.04 317.542 55.504C316.176 53.968 314.256 53.2 311.782 53.2C309.52 53.2 307.579 53.9893 305.958 55.568C304.379 57.1467 303.526 59.4933 303.398 62.608Z" fill="black"/>
</svg>
