<svg width="320" height="120" viewBox="0 0 320 120" fill="none" xmlns="http://www.w3.org/2000/svg">
<rect width="320" height="120" fill="white"/>
<path d="M51.7767 82L39.2967 38.096H46.4007L55.5527 70.928H55.8088L65.0887 38.096H71.7448L80.9608 70.928H81.2168L90.3688 38.096H96.7688L84.2248 82H77.1847L68.2248 50.192H67.9048L58.9447 82H51.7767ZM112.421 82.64C109.52 82.64 106.96 82.0213 104.741 80.784C102.565 79.504 100.859 77.648 99.6212 75.216C98.3839 72.7413 97.7652 69.776 97.7652 66.32V64.976C97.7652 61.4773 98.4052 58.512 99.6852 56.08C101.008 53.648 102.8 51.8133 105.061 50.576C107.323 49.296 109.904 48.656 112.805 48.656H113.509C116.155 48.656 118.501 49.2107 120.549 50.32C122.597 51.4293 124.176 53.008 125.285 55.056C126.437 57.104 127.013 59.536 127.013 62.352V66.448H104.421C104.421 68.88 104.741 70.9707 105.381 72.72C106.064 74.4693 107.024 75.8133 108.261 76.752C109.541 77.648 111.099 78.096 112.933 78.096C114.469 78.096 115.835 77.7973 117.029 77.2C118.224 76.6027 119.184 75.6853 119.909 74.448C120.635 73.2107 120.997 71.6747 120.997 69.84H127.013C127.013 72.4427 126.395 74.704 125.157 76.624C123.92 78.544 122.235 80.0373 120.101 81.104C118.011 82.128 115.643 82.64 112.997 82.64H112.421ZM104.485 62.608H120.741C120.741 59.408 120.037 57.04 118.629 55.504C117.264 53.968 115.344 53.2 112.869 53.2C110.608 53.2 108.667 53.9893 107.045 55.568C105.467 57.1467 104.613 59.4933 104.485 62.608ZM145.784 82.64C142.882 82.64 140.322 82.0213 138.104 80.784C135.928 79.504 134.221 77.648 132.984 75.216C131.746 72.7413 131.128 69.776 131.128 66.32V64.976C131.128 61.4773 131.768 58.512 133.048 56.08C134.37 53.648 136.162 51.8133 138.424 50.576C140.685 49.296 143.266 48.656 146.168 48.656H146.872C149.517 48.656 151.864 49.2107 153.912 50.32C155.96 51.4293 157.538 53.008 158.648 55.056C159.8 57.104 160.376 59.536 160.376 62.352V66.448H137.784C137.784 68.88 138.104 70.9707 138.744 72.72C139.426 74.4693 140.386 75.8133 141.624 76.752C142.904 77.648 144.461 78.096 146.296 78.096C147.832 78.096 149.197 77.7973 150.392 77.2C151.586 76.6027 152.546 75.6853 153.272 74.448C153.997 73.2107 154.36 71.6747 154.36 69.84H160.376C160.376 72.4427 159.757 74.704 158.52 76.624C157.282 78.544 155.597 80.0373 153.464 81.104C151.373 82.128 149.005 82.64 146.36 82.64H145.784ZM137.848 62.608H154.104C154.104 59.408 153.4 57.04 151.992 55.504C150.626 53.968 148.706 53.2 146.232 53.2C143.97 53.2 142.029 53.9893 140.408 55.568C138.829 57.1467 137.976 59.4933 137.848 62.608ZM165.962 82V35.92H172.362V67.216L187.466 49.296H195.018L181.962 64.4L195.786 82H188.042L177.61 68.816L172.362 74.128V82H165.962ZM211.03 82L213.526 70.416H206.486V65.68H214.614L216.918 55.696H209.11V50.896H217.878L220.886 37.456H225.942L222.934 50.896H232.342L235.35 37.456H240.342L237.27 50.896H243.99V55.696H236.31L234.07 65.68H241.686V70.416H232.918L230.422 82H225.43L227.99 70.416H218.518L215.958 82H211.03ZM219.606 65.68H229.078L231.382 55.696H221.846L219.606 65.68ZM261.744 82.64C258.672 82.64 256.006 82.1067 253.744 81.04C251.526 79.9733 249.819 78.5013 248.624 76.624C247.43 74.7467 246.832 72.6133 246.832 70.224V69.072H252.912C252.912 72.016 253.766 74.1493 255.472 75.472C257.179 76.7947 259.483 77.456 262.384 77.456C265.158 77.456 267.44 76.7947 269.232 75.472C271.024 74.1493 271.92 72.1867 271.92 69.584C271.92 67.792 271.515 66.3413 270.704 65.232C269.894 64.08 268.784 63.248 267.376 62.736C266.011 62.1813 264.518 61.904 262.896 61.904H257.392V57.232H262.32C263.856 57.232 265.286 56.9547 266.608 56.4C267.931 55.8453 268.976 55.0133 269.744 53.904C270.555 52.7947 270.96 51.4293 270.96 49.808C270.96 48.1867 270.576 46.864 269.808 45.84C269.04 44.7733 267.995 43.984 266.672 43.472C265.392 42.96 263.942 42.704 262.32 42.704C259.675 42.704 257.584 43.3653 256.048 44.688C254.512 46.0107 253.744 47.9307 253.744 50.448H247.92V49.36C247.92 46.928 248.56 44.8373 249.84 43.088C251.163 41.296 252.912 39.9093 255.088 38.928C257.264 37.9467 259.718 37.456 262.448 37.456H263.344C265.99 37.456 268.379 37.9253 270.512 38.864C272.646 39.8027 274.331 41.168 275.568 42.96C276.806 44.7093 277.424 46.8 277.424 49.232C277.424 50.9387 277.104 52.432 276.464 53.712C275.867 54.9493 275.056 56.016 274.032 56.912C273.008 57.7653 271.856 58.4907 270.576 59.088V59.408C272.838 60.1333 274.715 61.3707 276.208 63.12C277.702 64.8267 278.448 67.1307 278.448 70.032C278.448 72.5067 277.766 74.6827 276.4 76.56C275.035 78.4373 273.158 79.9307 270.768 81.04C268.422 82.1067 265.755 82.64 262.768 82.64H261.744Z" fill="black"/>
</svg>
