<svg width="400" height="120" viewBox="0 0 400 120" fill="none" xmlns="http://www.w3.org/2000/svg">
<rect width="400" height="120" fill="white"/>
<path d="M56.8147 82.64C54.3401 82.64 52.0361 82.2987 49.9027 81.616C47.7694 80.8907 45.8921 79.7173 44.2707 78.096C42.6921 76.4747 41.4334 74.3413 40.4947 71.696C39.5987 69.008 39.1507 65.68 39.1507 61.712V58.32C39.1507 54.4373 39.6201 51.1733 40.5587 48.528C41.4974 45.84 42.7774 43.6853 44.3987 42.064C46.0201 40.4427 47.8761 39.2693 49.9667 38.544C52.1001 37.8187 54.3827 37.456 56.8147 37.456H57.6467C59.8654 37.456 61.9774 37.7547 63.9827 38.352C66.0307 38.9493 67.8227 39.9307 69.3587 41.296C70.8947 42.6613 72.1107 44.4533 73.0067 46.672C73.9454 48.8907 74.4147 51.6213 74.4147 54.864H67.9507C67.9507 51.664 67.4601 49.2107 66.4787 47.504C65.5401 45.7547 64.2601 44.5387 62.6387 43.856C61.0174 43.1733 59.1827 42.832 57.1347 42.832C55.5561 42.832 54.1054 43.0667 52.7827 43.536C51.4601 43.9627 50.3081 44.7093 49.3267 45.776C48.3454 46.8427 47.5774 48.2933 47.0227 50.128C46.5107 51.92 46.2547 54.1813 46.2547 56.912V63.184C46.2547 66.8107 46.7027 69.648 47.5987 71.696C48.5374 73.744 49.8174 75.1947 51.4387 76.048C53.0601 76.8587 54.9374 77.264 57.0707 77.264C59.2041 77.264 61.1027 76.9227 62.7667 76.24C64.4307 75.5573 65.7321 74.3627 66.6707 72.656C67.6521 70.9067 68.1427 68.4533 68.1427 65.296H74.4147C74.4147 68.368 73.9667 71.0133 73.0707 73.232C72.1747 75.4507 70.9374 77.2427 69.3587 78.608C67.8227 79.9733 66.0307 80.9973 63.9827 81.68C61.9774 82.32 59.8441 82.64 57.5827 82.64H56.8147ZM79.8497 82V35.92H86.2497V53.648C87.4017 51.984 88.8737 50.7467 90.6657 49.936C92.5004 49.0827 94.3777 48.656 96.2977 48.656C98.5164 48.656 100.479 49.0827 102.186 49.936C103.892 50.7893 105.236 52.0693 106.218 53.776C107.242 55.44 107.754 57.5307 107.754 60.048V82H101.354V61.136C101.354 58.448 100.714 56.528 99.4337 55.376C98.1964 54.1813 96.4471 53.584 94.1857 53.584C92.7351 53.584 91.3911 53.9467 90.1537 54.672C88.9591 55.3973 87.9991 56.3787 87.2737 57.616C86.5911 58.8107 86.2497 60.1973 86.2497 61.776V82H79.8497ZM115.287 82V49.296H121.687V82H115.287ZM115.095 41.296V35.92H121.879V41.296H115.095ZM141.873 82.64C139.143 82.64 136.711 81.9787 134.577 80.656C132.444 79.2907 130.759 77.392 129.521 74.96C128.327 72.528 127.729 69.6693 127.729 66.384V64.848C127.729 62.3733 128.092 60.1547 128.817 58.192C129.585 56.1867 130.609 54.48 131.889 53.072C133.212 51.6213 134.748 50.5333 136.497 49.808C138.289 49.04 140.209 48.656 142.257 48.656H142.961C145.649 48.656 147.996 49.2107 150.001 50.32C152.007 51.3867 153.564 52.9227 154.673 54.928C155.825 56.8907 156.401 59.28 156.401 62.096H150.705C150.705 60.0907 150.364 58.4267 149.681 57.104C148.999 55.7813 148.06 54.8 146.865 54.16C145.671 53.52 144.327 53.2 142.833 53.2C140.401 53.2 138.375 54.032 136.753 55.696C135.175 57.36 134.385 59.8773 134.385 63.248V67.92C134.385 71.2907 135.175 73.8293 136.753 75.536C138.332 77.2427 140.38 78.096 142.897 78.096C144.476 78.096 145.863 77.7973 147.057 77.2C148.252 76.56 149.191 75.6 149.873 74.32C150.556 72.9973 150.897 71.2907 150.897 69.2H156.401C156.401 72.0587 155.783 74.4907 154.545 76.496C153.351 78.5013 151.708 80.0373 149.617 81.104C147.569 82.128 145.244 82.64 142.641 82.64H141.873ZM161.437 82V35.92H167.837V67.216L182.941 49.296H190.493L177.437 64.4L191.261 82H183.517L173.085 68.816L167.837 74.128V82H161.437ZM221.289 82.64C218.857 82.64 216.595 82.2773 214.505 81.552C212.414 80.784 210.601 79.5893 209.065 77.968C207.529 76.304 206.334 74.1493 205.481 71.504C204.627 68.816 204.201 65.552 204.201 61.712V58.32C204.201 54.5227 204.649 51.3013 205.545 48.656C206.441 45.968 207.678 43.8133 209.257 42.192C210.878 40.528 212.777 39.3333 214.953 38.608C217.129 37.84 219.497 37.456 222.057 37.456H222.825C225.043 37.456 227.134 37.7547 229.097 38.352C231.102 38.9493 232.873 39.888 234.409 41.168C235.945 42.448 237.161 44.112 238.057 46.16C238.953 48.1653 239.401 50.5973 239.401 53.456H233.001C233.001 50.7253 232.489 48.592 231.465 47.056C230.483 45.52 229.182 44.432 227.561 43.792C225.939 43.152 224.147 42.832 222.185 42.832C220.606 42.832 219.155 43.0667 217.833 43.536C216.51 43.9627 215.358 44.7093 214.377 45.776C213.395 46.8427 212.627 48.2933 212.073 50.128C211.561 51.92 211.305 54.1813 211.305 56.912V63.184C211.305 65.9147 211.561 68.1973 212.073 70.032C212.627 71.824 213.395 73.2533 214.377 74.32C215.358 75.3867 216.51 76.1547 217.833 76.624C219.155 77.0507 220.606 77.264 222.185 77.264C223.635 77.264 225.022 77.0933 226.345 76.752C227.667 76.4107 228.841 75.8347 229.865 75.024C230.889 74.1707 231.678 73.04 232.233 71.632C232.83 70.224 233.129 68.432 233.129 66.256V63.76H220.713V58.896H239.401V73.872C239.401 76.0053 239.443 77.7547 239.529 79.12C239.657 80.4853 239.742 81.4453 239.785 82H235.817L234.537 76.496C233.214 78.544 231.379 80.08 229.033 81.104C226.686 82.128 224.254 82.64 221.737 82.64H221.289ZM254.221 82.64C252.472 82.64 250.787 82.3627 249.165 81.808C247.587 81.2533 246.285 80.3147 245.261 78.992C244.28 77.6267 243.789 75.792 243.789 73.488C243.789 71.1413 244.301 69.264 245.325 67.856C246.392 66.4053 247.885 65.296 249.805 64.528C251.768 63.76 254.093 63.248 256.781 62.992C259.512 62.736 262.499 62.608 265.741 62.608V59.28C265.741 56.976 265.165 55.376 264.013 54.48C262.904 53.5413 261.133 53.072 258.701 53.072C256.653 53.072 254.883 53.52 253.389 54.416C251.896 55.2693 251.149 56.6347 251.149 58.512V59.28H244.941C244.899 59.0667 244.877 58.8533 244.877 58.64C244.877 58.384 244.877 58.128 244.877 57.872C244.877 55.9947 245.453 54.3733 246.605 53.008C247.8 51.6 249.4 50.5333 251.405 49.808C253.453 49.04 255.779 48.656 258.381 48.656H259.277C263.587 48.656 266.787 49.5093 268.877 51.216C271.011 52.9227 272.077 55.376 272.077 58.576V75.92C272.077 76.688 272.248 77.2427 272.589 77.584C272.931 77.9253 273.336 78.096 273.805 78.096C274.275 78.096 274.765 78.0107 275.277 77.84C275.832 77.6693 276.323 77.456 276.749 77.2V81.296C276.195 81.7227 275.512 82.0427 274.701 82.256C273.891 82.512 272.931 82.64 271.821 82.64C270.456 82.64 269.347 82.384 268.493 81.872C267.683 81.3173 267.085 80.592 266.701 79.696C266.317 78.8 266.083 77.7973 265.997 76.688C264.76 78.608 263.139 80.08 261.133 81.104C259.171 82.128 256.867 82.64 254.221 82.64ZM256.781 78.096C258.275 78.096 259.704 77.776 261.069 77.136C262.435 76.4533 263.544 75.4293 264.397 74.064C265.293 72.6987 265.741 70.992 265.741 68.944V66.512C262.541 66.512 259.789 66.6827 257.485 67.024C255.181 67.3227 253.411 67.92 252.173 68.816C250.979 69.712 250.381 71.0987 250.381 72.976C250.381 74.768 250.915 76.0693 251.981 76.88C253.048 77.6907 254.648 78.096 256.781 78.096ZM280.887 82V49.296H285.623L286.583 54.096C287.65 52.3893 288.973 51.0667 290.551 50.128C292.13 49.1467 293.943 48.656 295.991 48.656C298.125 48.656 300.023 49.0827 301.687 49.936C303.351 50.7893 304.653 52.1547 305.591 54.032C306.53 52.4533 307.831 51.1733 309.495 50.192C311.202 49.168 313.207 48.656 315.511 48.656C317.602 48.656 319.458 49.0827 321.079 49.936C322.701 50.7893 323.959 52.0693 324.855 53.776C325.794 55.44 326.263 57.5307 326.263 60.048V82H319.927V61.456C319.927 58.7253 319.373 56.7413 318.263 55.504C317.197 54.2667 315.661 53.648 313.655 53.648C312.333 53.648 311.138 53.9893 310.071 54.672C309.047 55.3547 308.237 56.3147 307.639 57.552C307.085 58.7893 306.807 60.176 306.807 61.712V82H300.407V61.456C300.407 58.7253 299.853 56.7413 298.743 55.504C297.677 54.2667 296.119 53.648 294.071 53.648C292.749 53.648 291.575 53.9893 290.551 54.672C289.527 55.3547 288.717 56.3147 288.119 57.552C287.565 58.7893 287.287 60.176 287.287 61.712V82H280.887ZM346.559 82.64C343.657 82.64 341.097 82.0213 338.879 80.784C336.703 79.504 334.996 77.648 333.759 75.216C332.521 72.7413 331.903 69.776 331.903 66.32V64.976C331.903 61.4773 332.543 58.512 333.823 56.08C335.145 53.648 336.937 51.8133 339.199 50.576C341.46 49.296 344.041 48.656 346.943 48.656H347.647C350.292 48.656 352.639 49.2107 354.687 50.32C356.735 51.4293 358.313 53.008 359.423 55.056C360.575 57.104 361.151 59.536 361.151 62.352V66.448H338.559C338.559 68.88 338.879 70.9707 339.519 72.72C340.201 74.4693 341.161 75.8133 342.399 76.752C343.679 77.648 345.236 78.096 347.071 78.096C348.607 78.096 349.972 77.7973 351.167 77.2C352.361 76.6027 353.321 75.6853 354.047 74.448C354.772 73.2107 355.135 71.6747 355.135 69.84H361.151C361.151 72.4427 360.532 74.704 359.295 76.624C358.057 78.544 356.372 80.0373 354.239 81.104C352.148 82.128 349.78 82.64 347.135 82.64H346.559ZM338.623 62.608H354.879C354.879 59.408 354.175 57.04 352.767 55.504C351.401 53.968 349.481 53.2 347.007 53.2C344.745 53.2 342.804 53.9893 341.183 55.568C339.604 57.1467 338.751 59.4933 338.623 62.608Z" fill="black"/>
</svg>
