<svg width="400" height="120" viewBox="0 0 400 120" fill="none" xmlns="http://www.w3.org/2000/svg">
<rect width="400" height="120" fill="white"/>
<path d="M34.7368 82V43.472H21.2328V38.096H55.0888V43.472H41.5848V82H34.7368ZM68.4838 82.64C65.5824 82.64 63.0224 82.0213 60.8038 80.784C58.6278 79.504 56.9211 77.648 55.6838 75.216C54.4464 72.7413 53.8278 69.776 53.8278 66.32V64.976C53.8278 61.4773 54.4678 58.512 55.7478 56.08C57.0704 53.648 58.8624 51.8133 61.1238 50.576C63.3851 49.296 65.9664 48.656 68.8678 48.656H69.5718C72.2171 48.656 74.5638 49.2107 76.6118 50.32C78.6598 51.4293 80.2384 53.008 81.3478 55.056C82.4998 57.104 83.0758 59.536 83.0758 62.352V66.448H60.4838C60.4838 68.88 60.8038 70.9707 61.4438 72.72C62.1264 74.4693 63.0864 75.8133 64.3238 76.752C65.6038 77.648 67.1611 78.096 68.9958 78.096C70.5318 78.096 71.8971 77.7973 73.0918 77.2C74.2864 76.6027 75.2464 75.6853 75.9718 74.448C76.6971 73.2107 77.0598 71.6747 77.0598 69.84H83.0758C83.0758 72.4427 82.4571 74.704 81.2198 76.624C79.9824 78.544 78.2971 80.0373 76.1638 81.104C74.0731 82.128 71.7051 82.64 69.0598 82.64H68.4838ZM60.5478 62.608H76.8038C76.8038 59.408 76.0998 57.04 74.6918 55.504C73.3264 53.968 71.4064 53.2 68.9318 53.2C66.6704 53.2 64.7291 53.9893 63.1078 55.568C61.5291 57.1467 60.6758 59.4933 60.5478 62.608ZM101.398 82.64C98.6676 82.64 96.2356 81.9787 94.1023 80.656C91.9689 79.2907 90.2836 77.392 89.0463 74.96C87.8516 72.528 87.2543 69.6693 87.2543 66.384V64.848C87.2543 62.3733 87.6169 60.1547 88.3423 58.192C89.1103 56.1867 90.1343 54.48 91.4143 53.072C92.7369 51.6213 94.2729 50.5333 96.0223 49.808C97.8143 49.04 99.7343 48.656 101.782 48.656H102.486C105.174 48.656 107.521 49.2107 109.526 50.32C111.532 51.3867 113.089 52.9227 114.198 54.928C115.35 56.8907 115.926 59.28 115.926 62.096H110.23C110.23 60.0907 109.889 58.4267 109.206 57.104C108.524 55.7813 107.585 54.8 106.39 54.16C105.196 53.52 103.852 53.2 102.358 53.2C99.9263 53.2 97.8996 54.032 96.2783 55.696C94.6996 57.36 93.9103 59.8773 93.9103 63.248V67.92C93.9103 71.2907 94.6996 73.8293 96.2783 75.536C97.8569 77.2427 99.9049 78.096 102.422 78.096C104.001 78.096 105.388 77.7973 106.582 77.2C107.777 76.56 108.716 75.6 109.398 74.32C110.081 72.9973 110.422 71.2907 110.422 69.2H115.926C115.926 72.0587 115.308 74.4907 114.07 76.496C112.876 78.5013 111.233 80.0373 109.142 81.104C107.094 82.128 104.769 82.64 102.166 82.64H101.398ZM120.962 82V35.92H127.362V53.648C128.514 51.984 129.986 50.7467 131.778 49.936C133.613 49.0827 135.49 48.656 137.41 48.656C139.629 48.656 141.592 49.0827 143.298 49.936C145.005 50.7893 146.349 52.0693 147.33 53.776C148.354 55.44 148.866 57.5307 148.866 60.048V82H142.466V61.136C142.466 58.448 141.826 56.528 140.546 55.376C139.309 54.1813 137.56 53.584 135.298 53.584C133.848 53.584 132.504 53.9467 131.266 54.672C130.072 55.3973 129.112 56.3787 128.386 57.616C127.704 58.8107 127.362 60.1973 127.362 61.776V82H120.962ZM156.405 82V38.096H176.309C178.613 38.096 180.597 38.544 182.261 39.44C183.968 40.2933 185.269 41.5093 186.165 43.088C187.104 44.624 187.573 46.3947 187.573 48.4C187.573 50.576 187.189 52.3893 186.421 53.84C185.653 55.2907 184.672 56.4213 183.477 57.232C182.325 58.0427 181.173 58.64 180.021 59.024V59.408C180.747 59.536 181.6 59.792 182.581 60.176C183.563 60.56 184.501 61.136 185.397 61.904C186.336 62.6293 187.104 63.6107 187.701 64.848C188.299 66.0853 188.597 67.6213 188.597 69.456C188.597 71.8453 188.043 74 186.933 75.92C185.867 77.7973 184.395 79.2907 182.517 80.4C180.64 81.4667 178.485 82 176.053 82H156.405ZM162.997 76.688H174.773C176.139 76.688 177.355 76.368 178.421 75.728C179.488 75.0453 180.32 74.1493 180.917 73.04C181.557 71.9307 181.877 70.7147 181.877 69.392C181.877 67.984 181.557 66.7467 180.917 65.68C180.277 64.6133 179.424 63.7813 178.357 63.184C177.291 62.5867 176.096 62.288 174.773 62.288H162.997V76.688ZM162.997 56.976H174.069C175.435 56.976 176.629 56.656 177.653 56.016C178.72 55.3333 179.531 54.4587 180.085 53.392C180.683 52.2827 180.981 51.088 180.981 49.808C180.981 47.76 180.448 46.1813 179.381 45.072C178.357 43.92 176.843 43.344 174.837 43.344H162.997V56.976ZM202.634 82.64C200.884 82.64 199.199 82.3627 197.578 81.808C195.999 81.2533 194.698 80.3147 193.674 78.992C192.692 77.6267 192.202 75.792 192.202 73.488C192.202 71.1413 192.714 69.264 193.738 67.856C194.804 66.4053 196.298 65.296 198.218 64.528C200.18 63.76 202.506 63.248 205.194 62.992C207.924 62.736 210.911 62.608 214.154 62.608V59.28C214.154 56.976 213.578 55.376 212.426 54.48C211.316 53.5413 209.546 53.072 207.114 53.072C205.066 53.072 203.295 53.52 201.802 54.416C200.308 55.2693 199.562 56.6347 199.562 58.512V59.28H193.354C193.311 59.0667 193.29 58.8533 193.29 58.64C193.29 58.384 193.29 58.128 193.29 57.872C193.29 55.9947 193.866 54.3733 195.018 53.008C196.212 51.6 197.812 50.5333 199.818 49.808C201.866 49.04 204.191 48.656 206.794 48.656H207.69C211.999 48.656 215.199 49.5093 217.29 51.216C219.423 52.9227 220.49 55.376 220.49 58.576V75.92C220.49 76.688 220.66 77.2427 221.002 77.584C221.343 77.9253 221.748 78.096 222.218 78.096C222.687 78.096 223.178 78.0107 223.69 77.84C224.244 77.6693 224.735 77.456 225.162 77.2V81.296C224.607 81.7227 223.924 82.0427 223.114 82.256C222.303 82.512 221.343 82.64 220.234 82.64C218.868 82.64 217.759 82.384 216.906 81.872C216.095 81.3173 215.498 80.592 215.114 79.696C214.73 78.8 214.495 77.7973 214.41 76.688C213.172 78.608 211.551 80.08 209.546 81.104C207.583 82.128 205.279 82.64 202.634 82.64ZM205.194 78.096C206.687 78.096 208.116 77.776 209.482 77.136C210.847 76.4533 211.956 75.4293 212.81 74.064C213.706 72.6987 214.154 70.992 214.154 68.944V66.512C210.954 66.512 208.202 66.6827 205.898 67.024C203.594 67.3227 201.823 67.92 200.586 68.816C199.391 69.712 198.794 71.0987 198.794 72.976C198.794 74.768 199.327 76.0693 200.394 76.88C201.46 77.6907 203.06 78.096 205.194 78.096ZM240.628 82.64C238.366 82.64 236.404 82.3627 234.74 81.808C233.076 81.2533 231.689 80.528 230.58 79.632C229.47 78.6933 228.638 77.6693 228.084 76.56C227.529 75.408 227.252 74.2773 227.252 73.168C227.252 72.912 227.252 72.6987 227.252 72.528C227.252 72.3147 227.273 72.0587 227.316 71.76H232.948C232.905 71.888 232.884 72.016 232.884 72.144C232.884 72.2293 232.884 72.336 232.884 72.464C232.884 73.7013 233.268 74.7467 234.036 75.6C234.846 76.4107 235.913 77.0293 237.236 77.456C238.601 77.8827 240.137 78.096 241.844 78.096C243.294 78.096 244.617 77.904 245.812 77.52C247.049 77.136 248.009 76.5813 248.692 75.856C249.417 75.088 249.78 74.192 249.78 73.168C249.78 71.9733 249.396 71.056 248.628 70.416C247.86 69.7333 246.836 69.2213 245.556 68.88C244.276 68.496 242.868 68.176 241.332 67.92C239.838 67.6213 238.302 67.3013 236.724 66.96C235.188 66.576 233.78 66.064 232.5 65.424C231.22 64.784 230.196 63.9093 229.428 62.8C228.66 61.648 228.276 60.1333 228.276 58.256C228.276 56.8053 228.596 55.4827 229.236 54.288C229.876 53.0933 230.793 52.0907 231.988 51.28C233.182 50.4267 234.59 49.7867 236.212 49.36C237.876 48.8907 239.689 48.656 241.652 48.656H242.484C244.361 48.656 246.068 48.912 247.604 49.424C249.14 49.8933 250.462 50.5547 251.572 51.408C252.681 52.2187 253.513 53.1573 254.068 54.224C254.665 55.248 254.964 56.336 254.964 57.488C254.964 57.7013 254.942 57.936 254.9 58.192C254.9 58.4053 254.9 58.5547 254.9 58.64H249.268V57.936C249.268 57.5093 249.161 57.04 248.948 56.528C248.777 55.9733 248.393 55.4613 247.796 54.992C247.241 54.48 246.452 54.0533 245.428 53.712C244.446 53.3707 243.166 53.2 241.588 53.2C240.094 53.2 238.857 53.3493 237.876 53.648C236.894 53.9467 236.126 54.3307 235.572 54.8C235.06 55.2693 234.697 55.76 234.484 56.272C234.27 56.784 234.164 57.2533 234.164 57.68C234.164 58.704 234.548 59.536 235.316 60.176C236.084 60.7733 237.108 61.2427 238.388 61.584C239.668 61.9253 241.076 62.224 242.612 62.48C244.19 62.736 245.748 63.056 247.284 63.44C248.82 63.7813 250.228 64.2933 251.508 64.976C252.788 65.616 253.812 66.512 254.58 67.664C255.348 68.816 255.732 70.3093 255.732 72.144C255.732 74.064 255.369 75.7067 254.644 77.072C253.918 78.3947 252.916 79.4613 251.636 80.272C250.356 81.0827 248.884 81.68 247.22 82.064C245.556 82.448 243.785 82.64 241.908 82.64H240.628ZM261.299 82V49.296H267.699V82H261.299ZM261.107 41.296V35.92H267.891V41.296H261.107ZM287.886 82.64C285.155 82.64 282.723 81.9787 280.59 80.656C278.456 79.2907 276.771 77.392 275.534 74.96C274.339 72.528 273.742 69.6693 273.742 66.384V64.848C273.742 62.3733 274.104 60.1547 274.83 58.192C275.598 56.1867 276.622 54.48 277.902 53.072C279.224 51.6213 280.76 50.5333 282.51 49.808C284.302 49.04 286.222 48.656 288.27 48.656H288.974C291.662 48.656 294.008 49.2107 296.014 50.32C298.019 51.3867 299.576 52.9227 300.686 54.928C301.838 56.8907 302.414 59.28 302.414 62.096H296.718C296.718 60.0907 296.376 58.4267 295.694 57.104C295.011 55.7813 294.072 54.8 292.878 54.16C291.683 53.52 290.339 53.2 288.846 53.2C286.414 53.2 284.387 54.032 282.766 55.696C281.187 57.36 280.398 59.8773 280.398 63.248V67.92C280.398 71.2907 281.187 73.8293 282.766 75.536C284.344 77.2427 286.392 78.096 288.91 78.096C290.488 78.096 291.875 77.7973 293.07 77.2C294.264 76.56 295.203 75.6 295.886 74.32C296.568 72.9973 296.91 71.2907 296.91 69.2H302.414C302.414 72.0587 301.795 74.4907 300.558 76.496C299.363 78.5013 297.72 80.0373 295.63 81.104C293.582 82.128 291.256 82.64 288.654 82.64H287.886ZM318.778 82.64C316.516 82.64 314.554 82.3627 312.89 81.808C311.226 81.2533 309.839 80.528 308.73 79.632C307.62 78.6933 306.788 77.6693 306.234 76.56C305.679 75.408 305.402 74.2773 305.402 73.168C305.402 72.912 305.402 72.6987 305.402 72.528C305.402 72.3147 305.423 72.0587 305.466 71.76H311.098C311.055 71.888 311.034 72.016 311.034 72.144C311.034 72.2293 311.034 72.336 311.034 72.464C311.034 73.7013 311.418 74.7467 312.186 75.6C312.996 76.4107 314.063 77.0293 315.386 77.456C316.751 77.8827 318.287 78.096 319.994 78.096C321.444 78.096 322.767 77.904 323.962 77.52C325.199 77.136 326.159 76.5813 326.842 75.856C327.567 75.088 327.93 74.192 327.93 73.168C327.93 71.9733 327.546 71.056 326.778 70.416C326.01 69.7333 324.986 69.2213 323.706 68.88C322.426 68.496 321.018 68.176 319.482 67.92C317.988 67.6213 316.452 67.3013 314.874 66.96C313.338 66.576 311.93 66.064 310.65 65.424C309.37 64.784 308.346 63.9093 307.578 62.8C306.81 61.648 306.426 60.1333 306.426 58.256C306.426 56.8053 306.746 55.4827 307.386 54.288C308.026 53.0933 308.943 52.0907 310.138 51.28C311.332 50.4267 312.74 49.7867 314.362 49.36C316.026 48.8907 317.839 48.656 319.802 48.656H320.634C322.511 48.656 324.218 48.912 325.754 49.424C327.29 49.8933 328.612 50.5547 329.722 51.408C330.831 52.2187 331.663 53.1573 332.218 54.224C332.815 55.248 333.114 56.336 333.114 57.488C333.114 57.7013 333.092 57.936 333.05 58.192C333.05 58.4053 333.05 58.5547 333.05 58.64H327.418V57.936C327.418 57.5093 327.311 57.04 327.098 56.528C326.927 55.9733 326.543 55.4613 325.946 54.992C325.391 54.48 324.602 54.0533 323.578 53.712C322.596 53.3707 321.316 53.2 319.738 53.2C318.244 53.2 317.007 53.3493 316.026 53.648C315.044 53.9467 314.276 54.3307 313.722 54.8C313.21 55.2693 312.847 55.76 312.634 56.272C312.42 56.784 312.314 57.2533 312.314 57.68C312.314 58.704 312.698 59.536 313.466 60.176C314.234 60.7733 315.258 61.2427 316.538 61.584C317.818 61.9253 319.226 62.224 320.762 62.48C322.34 62.736 323.898 63.056 325.434 63.44C326.97 63.7813 328.378 64.2933 329.658 64.976C330.938 65.616 331.962 66.512 332.73 67.664C333.498 68.816 333.882 70.3093 333.882 72.144C333.882 74.064 333.519 75.7067 332.794 77.072C332.068 78.3947 331.066 79.4613 329.786 80.272C328.506 81.0827 327.034 81.68 325.37 82.064C323.706 82.448 321.935 82.64 320.058 82.64H318.778ZM337.663 82V76.624H342.719V43.472H337.663V38.096H354.687V43.472H349.567V76.624H354.687V82H337.663ZM359.463 82V76.624H364.519V43.472H359.463V38.096H376.487V43.472H371.367V76.624H376.487V82H359.463Z" fill="black"/>
</svg>
